<svg width="200pt" xmlns="http://www.w3.org/2000/svg" height="160" viewBox="0 0 200 120"><defs><clipPath id="a"><path d="M0 0h197.368v117.82H0V0z" transform="translate(1.796 1.61)"/></clipPath><clipPath id="b"><path d="M0 0h197.368v117.82H0V0z" transform="translate(1.796 1.61)"/></clipPath><clipPath id="c"><path d="M0 0h26.17v41.61H0V0z" transform="translate(172.995 64.423)"/></clipPath><clipPath id="d"><path d="M0 0h26.17v41.61H0V0z" transform="translate(172.995 64.423)"/></clipPath><linearGradient id="e" y1="138.744" x1="23.124" y2="10.092" gradientUnits="userSpaceOnUse" x2="23.124"><stop offset="0%" stop-color="#fff"/><stop offset="14.691%" stop-color="#fd0"/><stop offset="24.176%" stop-color="#fd0"/><stop offset="32.395%" stop-color="#fd0"/><stop offset="62.088%" stop-color="#de101a"/><stop offset="100%" stop-color="#e20d18"/></linearGradient><linearGradient id="f" y1="89.725" x1="16.911" y2="-7.869" gradientUnits="userSpaceOnUse" x2="16.911"><stop offset="0%" stop-color="#fff"/><stop offset="14.691%" stop-color="#fd0"/><stop offset="24.176%" stop-color="#fd0"/><stop offset="32.395%" stop-color="#fd0"/><stop offset="62.088%" stop-color="#de101a"/><stop offset="100%" stop-color="#e20d18"/></linearGradient><linearGradient id="g" y1="104.743" x1="26.232" y2="-30.009" gradientUnits="userSpaceOnUse" x2="26.232"><stop offset="0%" stop-color="#fff"/><stop offset="14.691%" stop-color="#fd0"/><stop offset="24.176%" stop-color="#fd0"/><stop offset="32.395%" stop-color="#fd0"/><stop offset="62.088%" stop-color="#de101a"/><stop offset="100%" stop-color="#e20d18"/></linearGradient><linearGradient id="h" y1="46.911" x1="14.531" y2="-13.068" gradientUnits="userSpaceOnUse" x2="14.531"><stop offset="0%" stop-color="#fffced"/><stop offset="1.049%" stop-color="#fffced"/><stop offset="75.275%" stop-color="#ffe200"/><stop offset="90.558%" stop-color="#ffe200"/><stop offset="100%" stop-color="#ec7302"/></linearGradient><linearGradient id="i" y1="82.09" x1="23.57" y2="-50.168" gradientUnits="userSpaceOnUse" x2="23.57"><stop offset="0%" stop-color="#fff"/><stop offset="14.691%" stop-color="#ffe200"/><stop offset="24.176%" stop-color="#ffe200"/><stop offset="32.395%" stop-color="#ffe200"/><stop offset="62.088%" stop-color="#de101a"/><stop offset="100%" stop-color="#e20d18"/></linearGradient><linearGradient id="j" y1="105.39" x1="29.334" y2="14.419" gradientUnits="userSpaceOnUse" x2="29.334"><stop offset="0%" stop-color="#fffced"/><stop offset=".965%" stop-color="#fffced"/><stop offset="69.231%" stop-color="#ffe200"/><stop offset="94.858%" stop-color="#f49700"/><stop offset="100%" stop-color="#f49700"/></linearGradient></defs><g clip-path="url(#a)"><g clip-path="url(#b)"><path d="M92.876 64.422h19.791v3.58H96.99v14.84h14.962v3.578H96.99v19.612h-4.114v-41.61zm27.123 0h4.113v18.42h21.044v-18.42h4.112v41.61h-4.112V86.42h-21.044v19.612H120v-41.61zm39.108.001h4.112v41.609h-4.112v-41.61z" fill="#e30514"/><g clip-path="url(#c)"><g clip-path="url(#d)"><path d="M177.11 82.843h4.352c4.828 0 10.372-1.848 10.372-7.63 0-6.795-4.831-7.213-10.492-7.213h-4.232v14.843zm-4.115-18.42h10.73c7.393 0 12.22 3.16 12.22 10.79 0 5.366-4.111 8.94-9.24 9.598v.119c3.34.417 4.055 2.206 5.366 5.006l7.093 16.096h-4.53l-6.022-14.068c-2.382-5.365-4.172-5.544-8.106-5.544h-3.396v19.612h-4.115v-41.61z" fill="#e30514"/></g></g><path d="M18.301 41.684C6.78 55.239 2.035 69.134 1.355 76.929 0 102.005 18.64 111.493 25.756 116.58c-5.423-4.067-9.15-19.543-2.71-34.455 6.438-14.91 19.54-23.72 21.687-43.15C46.767 19.656 34.568 0 34.568 0c2.71 22.705-4.745 28.128-16.267 41.684" transform="translate(12.188 1.61)" fill="url(#e)"/><path d="M15.137 15.816C4.456 25.309 0 37.729.68 45.863c.676 18.525 18.073 30.726 18.073 30.726C10.845 67.1 5.875 52.641 8.36 38.633 10.845 24.627 26.208 8.36 33.212 0c-2.485 2.712-5.875 4.972-18.075 15.816z" transform="translate(1.796 31.77)" fill="url(#f)"/><path d="M24.627 23.948c-4.519 10.395-14.008 21.69-16.719 26.885C0 68.004 10.844 83.82 10.844 83.82c29.823-1.356 35.47-24.626 36.6-37.05-2.26 6.098-8.133 11.746-12.2 14.234C48.123 38.635 36.827 9.716 29.823 0c.225 7.23-.679 13.555-5.196 23.948z" transform="translate(31.167 35.61)" fill="url(#g)"/><path d="M7.805 22.819C0 35.084 6.903 47.443 6.903 47.443c11.521-2.031 15.814-8.131 18.073-12.876-3.39 2.258-5.875 3.616-9.94 4.293C24.751 26.208 25.203 11.296 24.524 0 20.683 10.844 14.131 12.88 7.805 22.819" transform="translate(36.239 69.5)" fill="url(#h)"/><path d="M13.783 41.415C0 64.233 19.603 86.46 19.603 86.46c-6.327-11.973-4.076-28.936 5.624-41.546C40.007 25.7 38.2 17.243 38.2 0c-2.708 23.893-14.93 24.921-24.417 41.415" transform="translate(12.188 24.697)" fill="url(#i)"/><path d="M16.037 60.165c-10.966 21.647-1.137 39.966 9.028 50.483C0 80.412 23.62 55.629 35.581 38.958 52.06 15.994 46.56 0 46.56 0c3.745 27.739-20.53 40.447-30.523 60.165" transform="translate(9.523 3.79)" fill="url(#j)"/><path d="M80.583 19.917c-2.944 0-5.465 1.042-7.562 3.125-2.07 2.07-3.104 4.577-3.104 7.521 0 2.958 1.034 5.48 3.104 7.563 2.07 2.083 4.59 3.125 7.562 3.125 2.959 0 5.48-1.042 7.563-3.125 2.07-2.084 3.104-4.605 3.104-7.563 0-2.944-1.035-5.451-3.104-7.52-2.097-2.084-4.618-3.126-7.563-3.126zm12 10.625c0 3.32-1.173 6.16-3.52 8.521-2.348 2.347-5.181 3.52-8.5 3.52-3.334 0-6.167-1.173-8.5-3.52-2.32-2.347-3.48-5.188-3.48-8.52 0-3.306 1.174-6.126 3.521-8.46 2.333-2.333 5.153-3.5 8.459-3.5 3.319 0 6.152 1.167 8.5 3.5 2.347 2.334 3.52 5.154 3.52 8.46zM83.25 27.96c0-1.07-.274-1.788-.823-2.156-.549-.369-1.427-.553-2.635-.553h-1.875v5.334h1.979c.916 0 1.61-.111 2.083-.334.847-.402 1.271-1.166 1.271-2.291zm-8-4.042h4.792c1.708 0 2.958.16 3.75.48 1.416.583 2.125 1.728 2.125 3.437 0 1.208-.486 2.097-1.459 2.666-.514.292-1.229.507-2.145.646 1.25.167 2.163.597 2.739 1.292.576.694.865 1.368.865 2.02v2.792h-2.542a.778.778 0 0 1-.031-.135 1.538 1.538 0 0 0-.031-.156l-.063-.438V35.46c0-1.57-.389-2.604-1.167-3.104-.472-.292-1.284-.438-2.437-.438h-1.73v5.333H75.25V23.917z" fill="#66666f" fill-rule="evenodd" fill-opacity=".941"/></g></g></svg>