<svg id="Layer_1" data-name="Layer 1" xmlns="http://www.w3.org/2000/svg" viewBox="0 0 338.04 147.85"><defs><style>.cls-1{fill:#ed156f}.cls-2{fill:#5fc8d7}.cls-3{fill:#453951}</style></defs><path class="cls-1" d="M256.27 354.63c3.16-12 8.77-23.76 15.25-30.54 9.9-10.36 18-5.17 18 11.58a75.11 75.11 0 0 1-2.74 18.95z" transform="translate(-220.4 -318.76)"/><path class="cls-2" d="M271.52 324.09c6.47 6.78 12.09 18.53 15.24 30.53h-30.49a75.64 75.64 0 0 1-2.74-19c0-16.7 8.08-21.89 17.99-11.53z" transform="translate(-220.4 -318.76)"/><path class="cls-3" d="M271.52 324.09c-6.48 6.78-12.09 18.54-15.25 30.54h30.49c-3.15-12-8.77-23.75-15.24-30.53z" transform="translate(-220.4 -318.76)"/><path class="cls-1" d="M286.76 385.12c-3.16 12-8.77 23.77-15.24 30.54-9.91 10.36-18 5.18-18-11.58a75.63 75.63 0 0 1 2.74-18.95z" transform="translate(-220.4 -318.76)"/><path class="cls-2" d="M271.52 415.66c-6.48-6.77-12.09-18.52-15.25-30.53h30.49a75.18 75.18 0 0 1 2.74 19c0 16.71-8.08 21.87-17.98 11.53z" transform="translate(-220.4 -318.76)"/><path class="cls-3" d="M271.52 415.66c6.47-6.78 12.09-18.54 15.24-30.54h-30.49c3.16 12 8.77 23.76 15.25 30.53z" transform="translate(-220.4 -318.76)"/><path class="cls-1" d="M286.76 354.63c12 3.16 23.76 8.77 30.54 15.25 10.36 9.9 5.18 18-11.58 18a75.17 75.17 0 0 1-19-2.74z" transform="translate(-220.4 -318.76)"/><path class="cls-2" d="M317.3 369.88c-6.77 6.47-18.52 12.09-30.53 15.24v-30.49a75.64 75.64 0 0 1 19-2.74c16.7 0 21.89 8.11 11.53 17.99z" transform="translate(-220.4 -318.76)"/><path class="cls-3" d="M317.3 369.88c-6.78-6.48-18.54-12.09-30.54-15.25v30.49c12-3.15 23.76-8.77 30.53-15.24z" transform="translate(-220.4 -318.76)"/><path class="cls-1" d="M256.27 385.12c-12-3.15-23.76-8.76-30.54-15.24-10.36-9.91-5.17-18 11.58-18a75.63 75.63 0 0 1 18.95 2.74z" transform="translate(-220.4 -318.76)"/><path class="cls-2" d="M225.73 369.88c6.78-6.48 18.53-12.09 30.53-15.25v30.49a75.18 75.18 0 0 1-19 2.74c-16.7 0-21.89-8.08-11.53-17.98z" transform="translate(-220.4 -318.76)"/><path class="cls-3" d="M225.73 369.88c6.78 6.48 18.54 12.09 30.54 15.24v-30.49c-12 3.16-23.75 8.77-30.53 15.25z" transform="translate(-220.4 -318.76)"/><path d="M366.09 361.37h10.56v10.2h-10.56zm.6 23.76h9.24v62h-9.24zM396.68 458l4.2-7.2a39.64 39.64 0 0 0 23.88 7.92c13.68 0 22.56-7.56 22.56-22.08v-7.32c-5.4 7.2-13 13.08-24.36 13.08-14.88 0-29.16-11.16-29.16-29v-.24c0-18.12 14.4-29.28 29.16-29.28 11.64 0 19.2 5.76 24.24 12.48v-11.23h9.24v51.24c0 9.6-2.88 16.92-7.92 22-5.52 5.52-13.8 8.28-23.64 8.28a48.64 48.64 0 0 1-28.2-8.65zm50.88-44.76V413c0-12.72-11-21-22.8-21s-21.48 8.16-21.48 20.88v.24c0 12.48 10 21.12 21.48 21.12 11.76-.03 22.8-8.55 22.8-21.03zm29.76-51.87h10.56v10.2h-10.56zm.6 23.76h9.24v62h-9.24zM504 429.17v-.24c0-13.08 10.8-20 26.52-20a65.87 65.87 0 0 1 19.08 2.64v-2.16c0-11.16-6.84-16.92-18.48-16.92-7.32 0-13.08 1.92-18.84 4.56l-2.76-7.56a51.23 51.23 0 0 1 22.48-5.2c8.76 0 15.48 2.28 20 6.84 4.2 4.2 6.36 10.2 6.36 18.12v37.92h-8.88v-9.36c-4.32 5.64-11.52 10.68-22.44 10.68-11.44 0-23.04-6.6-23.04-19.32zm45.72-4.8v-6a64.72 64.72 0 0 0-18.24-2.64c-11.64 0-18.12 5-18.12 12.84v.24c0 7.8 7.2 12.36 15.6 12.36 11.36 0 20.72-6.96 20.72-16.8z" transform="translate(-220.4 -318.76)" fill="#231f20"/></svg>