<svg id="PartnersLogo" xmlns="http://www.w3.org/2000/svg" viewBox="0 0 54 20.82"><defs><style>.cls-1{fill:#007fa4}</style></defs><path class="cls-1" d="M79.69 56.39a1.28 1.28 0 0 1 .63.16 1.11 1.11 0 0 1 .48.48 1.29 1.29 0 0 1 0 1.3 1.27 1.27 0 0 1-.48.47 1.3 1.3 0 0 1-.64.17 1.28 1.28 0 0 1-.64-.17 1.26 1.26 0 0 1-.65-1.12 1.25 1.25 0 0 1 .18-.65 1.18 1.18 0 0 1 .47-.47 1.23 1.23 0 0 1 .65-.17zm0 .2a1.17 1.17 0 0 0-.54.14 1.1 1.1 0 0 0-.4.4 1.08 1.08 0 0 0 0 1.1.94.94 0 0 0 .4.39 1 1 0 0 0 .54.15 1.06 1.06 0 0 0 .55-.15 1.1 1.1 0 0 0 .4-.4 1.14 1.14 0 0 0 .14-.54 1.08 1.08 0 0 0-.15-.55 1 1 0 0 0-.41-.4 1 1 0 0 0-.53-.14zm-.6 1.73v-.07h.12v-1.12a.22.22 0 0 0 0-.1h-.12v-.08h.63A.62.62 0 0 1 80 57a.32.32 0 0 1 .15.13.42.42 0 0 1 0 .18.39.39 0 0 1 0 .14.49.49 0 0 1-.11.14.68.68 0 0 1-.22.08h.09l.07.07.06.08.06.14c0 .08.08.14.1.19a.32.32 0 0 0 .06.08.15.15 0 0 0 .08 0v.07h-.21a.19.19 0 0 1-.13 0 1.12 1.12 0 0 1-.16-.29 1 1 0 0 0-.1-.21.18.18 0 0 0-.06-.08.21.21 0 0 0-.12 0h-.08v.42a.25.25 0 0 0 0 .1h.12v.07zm.42-.73h.09c.15 0 .24 0 .29-.1a.37.37 0 0 0 .06-.21.28.28 0 0 0-.07-.21.3.3 0 0 0-.21-.08h-.13zM53 44a37.68 37.68 0 0 1 12.42 2.06c.23.07.24 0 .07-.12C60.16 44 57.34 43.38 53 43.4s-7.19.59-12.48 2.53c-.17.08-.16.19.07.12A37.66 37.66 0 0 1 53 44zm11.66 13c0 .17-.08.41-.16.74a2.27 2.27 0 0 1-.13.45 2 2 0 0 1-.54.15 7.5 7.5 0 0 1-1 0c-.65 0-1.24 0-1.76-.06v-3.17h1a7.64 7.64 0 0 1 1.2.06.35.35 0 0 1 .24.14 1.12 1.12 0 0 1 .08.5v.37H64v-2.42h-.3v.38a1.27 1.27 0 0 1-.08.45.42.42 0 0 1-.23.09 8.61 8.61 0 0 1-1.11.06h-1.17v-2.99h1.24a10 10 0 0 1 1.22.07 2.55 2.55 0 0 1 .66.17 6.4 6.4 0 0 1 .08 1h.34c.06-.72.09-1.1.1-1.14a3.89 3.89 0 0 1 .12-.54 8.28 8.28 0 0 0-1-.06h-7.14v.35a1.94 1.94 0 0 1 .68.08.27.27 0 0 1 .11.1 2.94 2.94 0 0 1 .06.57v5.25a6.13 6.13 0 0 1-.46-.57c-.29-.36-.68-.86-1.16-1.49l-1.5-2-1-1.4-.62-.9h-6.03l-1.87-.06v1.81h.34l.06-.55a2.17 2.17 0 0 1 .11-.59.23.23 0 0 1 .17-.08 10.73 10.73 0 0 1 1.12 0h.82v6.17a1.21 1.21 0 0 1-.09.53.35.35 0 0 1-.19.13 4.12 4.12 0 0 1-.79.06V59l1.7-.05c.33 0 .82 0 1.48.05v-.4a4 4 0 0 1-.79-.06.37.37 0 0 1-.21-.14 1.84 1.84 0 0 1-.08-.62v-4.65a13.57 13.57 0 0 1 0-1.42H50a4.49 4.49 0 0 1 .55 0 .19.19 0 0 1 .09 0 .13.13 0 0 1 0 .09s0 .22.06.54v.52h.35c0-.67 0-1.16.06-1.46h.29a.36.36 0 0 1 .21.11.83.83 0 0 1 .18.24.92.92 0 0 1 0 .23v5.71a2 2 0 0 1-.07.57.17.17 0 0 1-.1.1 1.67 1.67 0 0 1-.68.09V59h1.25a9.46 9.46 0 0 1 1 0v-.4a1.94 1.94 0 0 1-.68-.08.22.22 0 0 1-.1-.11 2.42 2.42 0 0 1-.07-.56v-5.46l3.6 4.61.64.89.61.78a1.58 1.58 0 0 0 .19.21h.12l.51.17v-6.77a1.7 1.7 0 0 1 .07-.57.18.18 0 0 1 .1-.11 1.86 1.86 0 0 1 .68-.08 4.12 4.12 0 0 1 .79.06.41.41 0 0 1 .21.14 1.9 1.9 0 0 1 .07.62v5.5a1.89 1.89 0 0 1-.08.57.18.18 0 0 1-.11.1 2 2 0 0 1-.75.09v.4l1.43-.05 3.26.05a9.07 9.07 0 0 0 1.15-.07A15.88 15.88 0 0 1 65 57zm.85-5.48v-.35h3.65a4.66 4.66 0 0 1 1.53.19 1.51 1.51 0 0 1 .74.6 1.74 1.74 0 0 1 .26.91 1.88 1.88 0 0 1-.25.92 2 2 0 0 1-.71.75 3.74 3.74 0 0 1-1.22.47l.65.85 1.38 1.82a8.79 8.79 0 0 0 .69.84.24.24 0 0 0 .09.06 1.41 1.41 0 0 0 .37 0V59a6.79 6.79 0 0 0-.73 0h-.8c-.23-.28-.63-.81-1.19-1.61-.31-.44-.58-.81-.82-1.1-.38-.49-.75-.93-1.09-1.33l.05-.16h.44a2.11 2.11 0 0 0 1.5-.47 1.58 1.58 0 0 0 .52-1.24 1.35 1.35 0 0 0-.44-1.09 1.92 1.92 0 0 0-1.34-.4 3.77 3.77 0 0 0-1.1.17v6.03a2 2 0 0 0 .07.62.46.46 0 0 0 .21.14 4.12 4.12 0 0 0 .79.06V59c-.52 0-1-.05-1.43-.05l-1.82.05v-.4a4.12 4.12 0 0 0 .79-.06.44.44 0 0 0 .2-.13 1.46 1.46 0 0 0 .08-.53v-5.54a2.1 2.1 0 0 0-.08-.62.41.41 0 0 0-.21-.14 4 4 0 0 0-.78-.06zM53 46.93c5.18-.09 12.21.63 17.89 3.24.19.11.24 0 .06-.12A42.59 42.59 0 0 0 53 46.32a42.64 42.64 0 0 0-18 3.73c-.17.08-.12.23.07.12 5.68-2.61 12.72-3.33 17.93-3.24z" transform="translate(-26.98 -43.4)"/><path class="cls-1" d="M53 45.51c3.9 0 10.42.4 15.46 2.65.21.11.26 0 .07-.12A37.58 37.58 0 0 0 53 44.89 37.67 37.67 0 0 0 37.43 48c-.19.09-.13.23.07.12 5.04-2.21 11.57-2.62 15.5-2.61zM77 53a1.89 1.89 0 0 0-.11-.89 2 2 0 0 0-1.62-.65 1.62 1.62 0 0 0-1.7 1.6c0 2.43 4.45.41 4.45 3.22 0 1.91-1.71 2.83-3.37 2.83a4.89 4.89 0 0 1-1.92-.43c0-.42.07-1 .08-1.39V57h.38v.53a.79.79 0 0 0 .16.58 2.73 2.73 0 0 0 1.73.51 1.8 1.8 0 0 0 2-1.7c0-2.7-4.42-.18-4.42-3.43A2.57 2.57 0 0 1 75.42 51a6.31 6.31 0 0 1 2.17.51 5.07 5.07 0 0 0-.09.54c0 .33-.07.66-.08 1zM30.28 63.71c0 .3 0 .32.36.34v.12h-1.08v-.12c.36 0 .36 0 .36-.34v-.88h-1.51v.88c0 .3 0 .32.36.34v.12h-1.08v-.12c.36 0 .36 0 .36-.34V62c0-.3 0-.32-.36-.34v-.12h1.08v.12c-.37 0-.36 0-.36.34v.7h1.51V62c0-.3 0-.32-.36-.34v-.12h1.08v.12c-.36 0-.36 0-.36.34zm3.88-.06a2.58 2.58 0 0 0 0 .32 4.18 4.18 0 0 0 .52 0 2.11 2.11 0 0 0 .61-.06 1.29 1.29 0 0 0 0-.19v-.21h.13a2 2 0 0 0 0 .3v.32h-1.99v-.12c.19 0 .32-.08.32-.34V62c0-.3 0-.32-.36-.34v-.12h2.02a1 1 0 0 0-.06.37v.22h-.11a3.33 3.33 0 0 0-.05-.37 1.81 1.81 0 0 0-.57-.06 3.39 3.39 0 0 0-.47 0 2.54 2.54 0 0 0 0 .31v.71c.83 0 .88 0 .89-.32h.12v.87h-.12c0-.42 0-.4-.89-.37zm6.56 0a.9.9 0 0 0 .2.34.31.31 0 0 0 .21.06v.12h-1.01v-.12a.64.64 0 0 0 .28 0c.06 0 .06-.09 0-.15l-.23-.56h-1.05a6 6 0 0 0-.25.64c0 .12.19.1.32.12v.12h-.87v-.12c.22 0 .24 0 .33-.2l.19-.39.51-1.14c.12-.27.24-.55.34-.82h.12zm-.59-.52L39.66 62l-.47 1.13zm4.5.7v.14a4.52 4.52 0 0 0 .53 0 2.11 2.11 0 0 0 .61-.06.56.56 0 0 1 0-.12l.08-.32H46v.65h-1.89V64c.18 0 .21-.14.21-.44V62c0-.3 0-.32-.36-.34v-.12h1.07v.12c-.36 0-.36 0-.36.34zm4.8-1.74v-.37h-.58c-.08 0-.13 0-.14.12s0 .19 0 .29h-.11v-.62h2.18v.62h-.12a2.54 2.54 0 0 0 0-.29c0-.1-.05-.11-.13-.12h-.59v1.99c0 .3 0 .32.36.34v.12h-1.08v-.12c.37 0 .36 0 .36-.34zm6.65 1.62c0 .3 0 .32.35.34v.12h-1.07v-.12c.36 0 .36 0 .36-.34v-.88H54.2v.88c0 .3 0 .32.36.34v.12h-1.08v-.12c.37 0 .36 0 .36-.34V62c0-.3 0-.32-.36-.34v-.12h1.08v.12c-.36 0-.36 0-.36.34v.7h1.52V62c0-.3 0-.32-.36-.34v-.12h1.07v.12c-.36 0-.35 0-.35.34zm5.53.29a1.89 1.89 0 0 1-.85.22 1.4 1.4 0 0 1-1.54-1.39 1.38 1.38 0 0 1 1.46-1.37 3.26 3.26 0 0 1 1 .18 5.39 5.39 0 0 0-.08.56h-.11c0-.24.05-.33-.17-.43a1.27 1.27 0 0 0-.61-.15 1 1 0 0 0-1.06 1.13A1.2 1.2 0 0 0 60.89 64a1.39 1.39 0 0 0 .76-.24zm5.28-.35a1 1 0 0 0 .19.34.33.33 0 0 0 .21.06v.12h-1v-.12a.69.69 0 0 0 .28 0 .1.1 0 0 0 0-.15l-.22-.56h-1.06a6 6 0 0 0-.25.64c0 .12.18.1.32.12v.12h-.87v-.12c.21 0 .24 0 .33-.2l.18-.39.51-1.14c.12-.27.25-.55.35-.82H66zm-.6-.52L65.82 62l-.47 1.13zM70.44 62c0-.3 0-.32-.36-.34v-.12h1.32c.52 0 .76.26.76.58a.82.82 0 0 1-.73.73l.85 1.15a.32.32 0 0 0 .22.1v.12h-.52c-.06-.08-.1-.15-.15-.21l-.9-1.16v-.06a1.93 1.93 0 0 0 .34 0 .56.56 0 0 0 .49-.53.51.51 0 0 0-.58-.53 1.17 1.17 0 0 0-.38 0 .9.9 0 0 0 0 .26v1.73c0 .3 0 .32.36.34v.12h-1.08v-.12c.36 0 .36 0 .36-.34zm5.5 1.65A2.92 2.92 0 0 0 76 64a4.18 4.18 0 0 0 .52 0 2.11 2.11 0 0 0 .61-.06.65.65 0 0 0 0-.19v-.21h.12a2 2 0 0 0 0 .3v.32h-1.99v-.12c.19 0 .33-.08.33-.34V62c0-.3 0-.32-.36-.34v-.12h2.01a1.24 1.24 0 0 0-.06.37v.22H77a2 2 0 0 0-.05-.37 1.85 1.85 0 0 0-.57-.06 3.47 3.47 0 0 0-.47 0 2.82 2.82 0 0 0 0 .31v.71c.82 0 .87 0 .87-.32h.13v.87h-.13c0-.42 0-.4-.87-.37zm-31.03-5.08a.27.27 0 0 1-.1-.06c-.07 0-.29-.34-.69-.84l-1.38-1.82c-.34-.44-.55-.73-.64-.85a3.68 3.68 0 0 0 1.21-.47 2.06 2.06 0 0 0 .72-.75 2 2 0 0 0 .25-.92A1.67 1.67 0 0 0 44 52a1.42 1.42 0 0 0-.74-.6 4.63 4.63 0 0 0-1.52-.19h-3.65v.35a4.12 4.12 0 0 1 .79.06.38.38 0 0 1 .2.14 1.79 1.79 0 0 1 .08.62v5.54a1.38 1.38 0 0 1-.09.53.42.42 0 0 1-.19.13h-.14a.62.62 0 0 1-.26-.06.71.71 0 0 1-.23-.25q-.18-.34-.75-1.68l-2.34-5.49h-.35c-.49 1.17-.81 1.92-1 2.26l-1.37 3.09c-.41.89-.64 1.4-.71 1.53a1.51 1.51 0 0 1-.26.44.44.44 0 0 1-.19.12 3 3 0 0 1-.55 0V59c.43 0 .81-.05 1.17-.05s.76 0 1.38.05v-.38a3.61 3.61 0 0 1-.71 0 .31.31 0 0 1-.19-.09.18.18 0 0 1 0-.13 1.53 1.53 0 0 1 .16-.55l.59-1.41h3.17L37 58a.88.88 0 0 1 .08.31.21.21 0 0 1 0 .13.38.38 0 0 1-.17.08 7.41 7.41 0 0 1-.75 0V59h5.2v-.4a4.22 4.22 0 0 1-.79-.06.38.38 0 0 1-.2-.14 1.68 1.68 0 0 1-.07-.62v-6.03a3.89 3.89 0 0 1 1.11-.17 1.93 1.93 0 0 1 1.34.4 1.37 1.37 0 0 1 .44 1.07 1.61 1.61 0 0 1-.51 1.24 2.14 2.14 0 0 1-1.51.47h-.47l-.06.16c.35.4.71.84 1.1 1.33.24.29.51.66.82 1.1.56.8.95 1.33 1.19 1.61h.79a6.79 6.79 0 0 1 .73 0v-.36a1.27 1.27 0 0 1-.36-.03zm-11.59-2.69l1.39-3.3 1.37 3.3zm-2.41-4.8c-.65 0-1.3.05-2 .05s-1.32 0-2-.05v.33c1.08.06 1.06.13 1.06 1v5.19c0 .87 0 1-1.06 1v.4c.51 0 1-.06 1.58-.06s1.07 0 1.61.06v-.34c-1.06 0-1.06-.13-1.06-1v-5.24a2.7 2.7 0 0 1 .06-.77 5.82 5.82 0 0 1 1.11-.16c1.12 0 1.82.54 1.82 1.7a1.55 1.55 0 0 1-1.62 1.61 3.89 3.89 0 0 1-.72-.1l.13.41a2.38 2.38 0 0 0 .73.07 2.5 2.5 0 0 0 2.6-2.37c.07-1.27-1.15-1.73-2.24-1.73z" transform="translate(-26.98 -43.4)"/></svg>