<svg xmlns="http://www.w3.org/2000/svg" width="179.337" height="54.199" viewBox="0 0 47.45 14.34"><path d="M3.908 13.791l-.238-.567-.237.567zm.298.262c.025.06.05.123.097.169.021.019.06.03.105.032v.058a3.395 3.395 0 0 0-.506 0v-.058a.317.317 0 0 0 .143-.026c.026-.014.028-.044.013-.078l-.116-.278h-.54c-.023.051-.127.278-.127.32 0 .062.093.053.162.062v.058a2.545 2.545 0 0 0-.438 0v-.058c.107-.02.12-.003.166-.103l.093-.195.256-.574c.061-.135.124-.274.173-.41h.06l.46 1.08m1.506.061v-.944c0-.11-.034-.127-.15-.127l-.03-.002v-.057a2.794 2.794 0 0 0 .454 0v.057l-.03.002c-.12 0-.156.017-.156.127v1.1l.006.071-.15-.027-.919-1.115v.927c0 .11.036.128.156.128l.03.001v.058a2.725 2.725 0 0 0-.454 0v-.058l.03-.001c.117 0 .15-.018.15-.128v-.956c0-.11-.03-.127-.136-.129h-.027v-.057a1.45 1.45 0 0 0 .33 0l.896 1.13m.709-.06c0 .055 0 .112.007.161a1.8 1.8 0 0 0 .18.014c.484.013.647-.257.647-.604 0-.401-.247-.556-.574-.556-.083 0-.167.008-.253.012a1.372 1.372 0 0 0-.007.161zm-.179-.82c0-.178-.017-.189-.167-.191v-.06a7.219 7.219 0 0 0 .738 0c.353-.003.642.216.642.584 0 .459-.352.776-.808.746a3.39 3.39 0 0 0-.506 0v-.058c.07-.013.101-.032.101-.114v-.906m2.598 1.093h-.038l-.53-1.116v.914c0 .11.036.128.156.128l.03.001v.058a2.712 2.712 0 0 0-.454 0v-.058l.03-.001c.116 0 .15-.018.15-.128v-.956c0-.11-.034-.127-.15-.127l-.03-.002v-.057a1.734 1.734 0 0 0 .361 0l.502 1.058.391-.805c.042-.087.078-.17.103-.253a1.738 1.738 0 0 0 .361 0v.057h-.028c-.115.002-.149.019-.149.129v.914c0 .148-.002.162.18.171v.058a3.985 3.985 0 0 0-.54 0v-.058c.182-.009.18-.023.18-.17v-.873l-.525 1.116m1.869-.536l-.238-.567-.238.567zm.298.262c.024.06.05.123.097.169.02.019.06.03.104.032v.058a3.393 3.393 0 0 0-.506 0v-.058a.32.32 0 0 0 .144-.026c.026-.014.028-.044.013-.078l-.116-.278h-.54c-.023.051-.128.278-.128.32 0 .062.094.053.162.062v.058a2.54 2.54 0 0 0-.437 0v-.058c.106-.02.12-.003.165-.103l.093-.195.257-.574c.06-.135.124-.274.173-.41h.06l.459 1.08m1.026-.75c0-.072 0-.12-.019-.152-.051-.08-.186-.11-.276-.11-.156 0-.289.109-.289.272 0 .412.757.07.757.547 0 .325-.29.481-.574.481a.83.83 0 0 1-.325-.072 3.21 3.21 0 0 0 .013-.237v-.054h.065v.089c0 .042.004.078.027.1a.472.472 0 0 0 .294.087c.171 0 .338-.102.338-.289 0-.46-.752-.03-.752-.584 0-.26.22-.425.465-.425.13 0 .25.042.369.087-.006.03-.013.06-.015.091-.004.057-.011.112-.013.17h-.065m.997-.001c0-.072 0-.12-.018-.152-.052-.08-.186-.11-.276-.11-.156 0-.289.109-.289.272 0 .412.757.07.757.547 0 .325-.291.481-.574.481a.827.827 0 0 1-.325-.072 3.27 3.27 0 0 0 .013-.237v-.054h.065v.089c0 .042.003.078.026.1a.475.475 0 0 0 .295.087c.17 0 .338-.102.338-.289 0-.46-.753-.03-.753-.584 0-.26.221-.425.466-.425.13 0 .25.042.37.087-.007.03-.015.06-.016.091-.004.057-.012.112-.014.17h-.065m1.152.488l-.237-.567-.238.567zm.299.262c.025.06.05.123.097.169.02.019.06.03.104.032v.058a3.416 3.416 0 0 0-.505 0v-.058a.308.308 0 0 0 .142-.026c.027-.014.029-.044.013-.078l-.115-.278h-.54c-.023.051-.128.278-.128.32 0 .062.094.053.162.062v.058a2.537 2.537 0 0 0-.437 0v-.058c.107-.02.12-.003.165-.103l.093-.195.257-.574c.06-.135.123-.274.173-.41h.06l.459 1.08m1.486.176c-.12.067-.311.112-.432.112-.42 0-.77-.247-.77-.698 0-.44.356-.687.732-.687.168 0 .336.04.497.085-.02.095-.031.19-.042.285h-.055c-.006-.122.024-.165-.088-.22a.663.663 0 0 0-.308-.071c-.313 0-.53.222-.53.567 0 .38.247.642.629.642a.701.701 0 0 0 .388-.12l.017.02-.038.085m1.457-.145c0 .148-.002.162.18.171v.058a3.984 3.984 0 0 0-.54 0v-.058c.182-.009.18-.023.18-.17v-.442h-.76v.441c0 .148-.002.162.18.171v.058a3.991 3.991 0 0 0-.542 0v-.058c.183-.009.181-.023.181-.17v-.873c0-.148.002-.162-.18-.171v-.057a3.709 3.709 0 0 0 .541 0v.057c-.182.009-.18.023-.18.17v.353h.76v-.352c0-.148.002-.162-.18-.171v-.057a3.687 3.687 0 0 0 .54 0v.057c-.182.009-.18.023-.18.17v.873m.622-.209c-.012.27.14.348.39.348.115 0 .254-.03.322-.131a.56.56 0 0 0 .077-.317v-.605c0-.11-.035-.127-.15-.127l-.031-.002v-.057a2.806 2.806 0 0 0 .454 0v.057l-.03.002c-.12 0-.156.017-.156.127v.701a.491.491 0 0 1-.084.278.43.43 0 0 1-.198.152.9.9 0 0 1-.256.04c-.173 0-.38-.027-.471-.196-.048-.086-.048-.154-.048-.249v-.684c0-.148.002-.162-.18-.171v-.057a3.71 3.71 0 0 0 .542 0v.057c-.183.009-.181.023-.181.17v.664m1.87-.572c0-.072 0-.12-.02-.152-.05-.08-.186-.11-.275-.11-.155 0-.289.109-.289.272 0 .412.757.07.757.547 0 .325-.291.481-.574.481a.83.83 0 0 1-.325-.072c.008-.073.011-.163.013-.237v-.054h.065v.089c0 .042.004.078.026.1a.475.475 0 0 0 .295.087c.171 0 .338-.102.338-.289 0-.46-.752-.03-.752-.584 0-.26.22-.425.465-.425.13 0 .25.042.369.087-.006.03-.013.06-.015.091-.004.057-.012.112-.013.17h-.065m.625.748a.96.96 0 0 0 .01.163c.07.01.167.01.258.01.103 0 .207-.004.306-.032a.535.535 0 0 0 .023-.097l.017-.105h.062c-.007.04-.018.093-.018.154v.158c-.07.01-.198.008-.316.01a6.19 6.19 0 0 0-.686 0v-.058c.095-.003.163-.043.163-.17v-.873c0-.148.002-.162-.18-.171v-.057a6.449 6.449 0 0 0 .695 0c.12.002.251 0 .316.01a.63.63 0 0 0-.03.183c0 .041-.006.073-.006.113h-.059a.879.879 0 0 0-.027-.186.956.956 0 0 0-.283-.033c-.083 0-.173 0-.235.01a.951.951 0 0 0-.01.158v.355c.414.004.44.026.443-.16h.062v.44h-.062c0-.216-.013-.204-.443-.189v.367m1.241-.781c-.002-.072-.002-.134-.007-.19l-.293.01c-.04.001-.063.007-.067.056-.007.046-.019.095-.02.147h-.058c0-.037 0-.07-.002-.107a3.9 3.9 0 0 0-.01-.203 15.864 15.864 0 0 0 1.097 0c-.005.07-.007.136-.009.203-.002.037-.002.07-.002.107h-.057c-.002-.052-.013-.101-.02-.147-.005-.049-.027-.055-.067-.056l-.297-.01c-.006.056-.006.118-.007.19v.813c0 .148-.002.162.18.171v.058a3.997 3.997 0 0 0-.542 0v-.058c.183-.009.181-.023.181-.17v-.814m1.165 0c-.002-.072-.002-.134-.008-.19l-.293.01c-.04.001-.062.007-.066.056-.007.046-.019.095-.02.147h-.058c0-.037 0-.07-.002-.107a3.859 3.859 0 0 0-.01-.203 15.856 15.856 0 0 0 1.098 0c-.006.07-.008.136-.01.203-.002.037-.002.07-.002.107h-.057c-.002-.052-.013-.101-.021-.147-.004-.049-.026-.055-.067-.056l-.296-.01c-.005.056-.005.118-.008.19v.813c0 .148-.001.162.181.171v.058a3.985 3.985 0 0 0-.542 0v-.058c.183-.009.18-.023.18-.17v-.814m1.459.032c0-.072 0-.12-.02-.152-.05-.08-.186-.11-.275-.11-.155 0-.289.109-.289.272 0 .412.755.07.755.547 0 .325-.29.481-.572.481a.828.828 0 0 1-.325-.072c.007-.073.01-.163.013-.237v-.054h.064v.089c0 .042.005.078.027.1a.476.476 0 0 0 .295.087c.17 0 .338-.102.338-.289 0-.46-.752-.03-.752-.584 0-.26.22-.425.466-.425.129 0 .248.042.368.087-.007.03-.014.06-.016.091-.003.057-.011.112-.013.17h-.064m2.063.483v.048c-.093.016-.076.109-.07.23l.007.179-.09.025a1.612 1.612 0 0 1-.413.072c-.424 0-.767-.22-.767-.69 0-.432.323-.695.78-.695.167 0 .334.04.493.085a3.69 3.69 0 0 0-.041.285h-.055c-.006-.122.025-.165-.088-.22a.655.655 0 0 0-.306-.071c-.364 0-.58.236-.58.572 0 .382.22.652.613.652.146 0 .253-.028.268-.076a1.46 1.46 0 0 0 .002-.295c-.006-.039-.082-.037-.216-.043v-.058h.463m.486.265a.96.96 0 0 0 .01.163c.07.01.167.01.259.01.102 0 .206-.004.306-.032a.572.572 0 0 0 .022-.097l.017-.105h.063c-.008.04-.019.093-.019.154v.158c-.07.01-.197.008-.316.01a6.208 6.208 0 0 0-.686 0v-.058c.095-.003.163-.043.163-.17v-.873c0-.148.003-.162-.18-.171v-.057a6.476 6.476 0 0 0 .695 0c.12.002.252 0 .316.01a.677.677 0 0 0-.03.183c0 .041-.006.073-.006.113h-.059a.785.785 0 0 0-.027-.186.955.955 0 0 0-.283-.033c-.083 0-.173 0-.235.01a.946.946 0 0 0-.01.158v.355c.415.004.44.026.443-.16h.063v.44h-.063c0-.216-.013-.204-.443-.189v.367m2.015.062v-.944c0-.11-.035-.127-.15-.127l-.03-.002v-.057a2.804 2.804 0 0 0 .454 0v.057l-.031.002c-.12 0-.156.017-.156.127v1.1l.006.071-.15-.027-.918-1.115v.927c0 .11.036.128.155.128l.03.001v.058a2.714 2.714 0 0 0-.453 0v-.058l.03-.001c.116 0 .15-.018.15-.128v-.956c0-.11-.03-.127-.137-.129h-.026v-.057a1.438 1.438 0 0 0 .329 0l.897 1.13m.726-.062c0 .069.001.114.01.163.07.01.167.01.258.01.102 0 .207-.004.305-.032a.466.466 0 0 0 .023-.097l.018-.105h.062a.747.747 0 0 0-.019.154v.158c-.07.01-.198.008-.315.01a6.184 6.184 0 0 0-.686 0v-.058c.095-.003.163-.043.163-.17v-.873c0-.148.002-.162-.18-.171v-.057a6.417 6.417 0 0 0 .694 0c.121.002.253 0 .317.01a.625.625 0 0 0-.03.183c0 .041-.006.073-.006.113h-.059a.86.86 0 0 0-.027-.186.95.95 0 0 0-.282-.033c-.085 0-.174 0-.236.01a.88.88 0 0 0-.01.158v.355c.414.004.44.026.442-.16h.063v.44h-.063c0-.216-.013-.204-.442-.189v.367m.98-.841c0-.147.002-.161-.18-.17v-.057a5.671 5.671 0 0 0 .661 0c.262-.013.383.13.383.29 0 .206-.186.33-.37.366l.432.562a.16.16 0 0 0 .109.053v.058a.906.906 0 0 0-.26 0c-.03-.04-.05-.075-.077-.107l-.452-.581.007-.029a.773.773 0 0 0 .175-.008c.133-.023.247-.125.247-.266 0-.205-.152-.266-.292-.266a.73.73 0 0 0-.191.025c-.011.032-.011.072-.011.13v.873c0 .148-.002.162.181.171v.058a4.017 4.017 0 0 0-.543 0v-.058c.183-.009.18-.023.18-.17v-.873m1.977.58l-.237-.567-.238.567zm.3.262c.024.06.048.123.096.169.02.019.06.03.105.032v.058a3.416 3.416 0 0 0-.506 0v-.058c.05-.001.1-.003.143-.026.026-.014.028-.044.012-.078l-.114-.278h-.54c-.023.051-.128.278-.128.32 0 .062.093.053.162.062v.058a2.577 2.577 0 0 0-.438 0v-.058c.107-.02.12-.003.166-.103l.092-.195.258-.574c.06-.135.123-.274.172-.41h.061l.459 1.08m.653.092l.005.07c.08.01.177.01.268.01.102 0 .208-.004.306-.032a.376.376 0 0 0 .02-.061l.043-.16.062.004a1.968 1.968 0 0 0-.02.127l-.02.2c-.062.01-.183.008-.295.01a5.577 5.577 0 0 0-.653 0v-.058c.09-.014.104-.07.104-.222v-.821c0-.148.001-.162-.181-.171v-.057a3.706 3.706 0 0 0 .541 0v.057c-.182.009-.18.023-.18.17v.934m2.577-.061c0 .148-.003.162.18.171v.058a4.007 4.007 0 0 0-.541 0v-.058c.182-.009.18-.023.18-.17v-.442h-.76v.441c0 .148-.002.162.181.171v.058a4.023 4.023 0 0 0-.542 0v-.058c.183-.009.18-.023.18-.17v-.873c0-.148.003-.162-.18-.171v-.057a3.72 3.72 0 0 0 .542 0v.057c-.183.009-.18.023-.18.17v.353H36v-.352c0-.148.002-.162-.18-.171v-.057a3.716 3.716 0 0 0 .542 0v.057c-.184.009-.18.023-.18.17v.873m1.478-.42c0-.376-.17-.626-.522-.626-.33 0-.48.23-.48.54 0 .334.155.681.53.681.319-.02.472-.245.472-.595zm.204-.059a.727.727 0 0 1-.736.736c-.386 0-.674-.266-.674-.7 0-.387.273-.691.714-.685.407 0 .696.228.696.65m.824-.303c0-.072 0-.12-.018-.152-.051-.08-.187-.11-.276-.11-.156 0-.289.109-.289.272 0 .412.757.07.757.547 0 .325-.291.481-.574.481a.825.825 0 0 1-.325-.072c.006-.073.01-.163.013-.237v-.054h.064v.089c0 .042.004.078.028.1.075.065.196.087.294.087.17 0 .338-.102.338-.289 0-.46-.752-.03-.752-.584 0-.26.22-.425.465-.425.129 0 .248.042.368.087-.005.03-.013.06-.014.091-.004.057-.012.112-.015.17h-.064m.445-.093c0-.147.002-.161-.181-.17v-.057a5.967 5.967 0 0 0 .668 0c.184 0 .393.08.393.295 0 .237-.205.393-.443.402a.436.436 0 0 1-.124-.01l-.02-.071a.558.558 0 0 0 .121.016c.156.007.275-.111.275-.273 0-.197-.119-.289-.308-.289-.065 0-.128.015-.19.027-.01.032-.01.072-.01.13v.873c0 .148-.002.162.18.171v.058a3.97 3.97 0 0 0-.542 0v-.058c.183-.009.181-.023.181-.17v-.873m1.328.872c0 .148-.002.162.181.171v.058a3.985 3.985 0 0 0-.541 0v-.058c.182-.009.18-.023.18-.17v-.873c0-.148.002-.162-.18-.171v-.057a3.696 3.696 0 0 0 .541 0v.057c-.183.009-.18.023-.18.17v.873m.721-.813c-.003-.072-.003-.134-.009-.19l-.293.01c-.04.001-.062.007-.066.056-.008.046-.02.095-.021.147h-.056c0-.037 0-.07-.003-.107a4.585 4.585 0 0 0-.01-.203 15.845 15.845 0 0 0 1.098 0c-.006.07-.008.136-.01.203-.002.037-.002.07-.002.107h-.057c-.002-.052-.013-.101-.021-.147-.004-.049-.026-.055-.066-.056l-.296-.01c-.007.056-.007.118-.008.19v.813c0 .148-.003.162.18.171v.058a3.985 3.985 0 0 0-.542 0v-.058c.183-.009.182-.023.182-.17v-.814m1.61.521l-.237-.567-.237.567zm.299.262c.024.06.05.123.097.169a.17.17 0 0 0 .104.032v.058a3.367 3.367 0 0 0-.505 0v-.058c.05-.001.1-.003.143-.026.026-.014.028-.044.013-.078l-.117-.278h-.54c-.022.051-.127.278-.127.32 0 .062.095.053.162.062v.058a2.546 2.546 0 0 0-.437 0v-.058c.106-.02.12-.003.166-.103l.093-.195.256-.574c.06-.135.124-.274.173-.41h.06l.459 1.08m.653.092l.006.07c.08.01.177.01.268.01.103 0 .208-.004.306-.032.008-.017.013-.039.019-.061l.045-.16.06.004c-.007.027-.012.076-.018.127l-.023.2c-.06.01-.18.008-.294.01a5.58 5.58 0 0 0-.652 0v-.058c.09-.014.102-.07.102-.222v-.821c0-.148.003-.162-.18-.171v-.057a3.704 3.704 0 0 0 .543 0v.057c-.184.009-.182.023-.182.17v.934M.18 10.726c0-.15.003-.162-.18-.172v-.057a6.482 6.482 0 0 0 .696 0c.12.003.25 0 .315.01a.64.64 0 0 0-.03.184c0 .04-.006.072-.006.112H.916a.89.89 0 0 0-.027-.186.954.954 0 0 0-.283-.033c-.084 0-.173 0-.235.01a.696.696 0 0 0-.01.124v.39c.415.003.441.026.443-.16h.062v.438H.804c0-.214-.013-.203-.443-.187v.399c0 .147-.002.161.18.17v.057c-.09-.005-.18-.01-.273-.01a4.69 4.69 0 0 0-.268.01v-.056c.183-.01.18-.024.18-.171v-.872m2.076.452c0-.377-.17-.627-.523-.627-.33 0-.48.23-.48.541 0 .333.155.68.532.68.317-.02.471-.245.471-.594zm.203-.06a.728.728 0 0 1-.735.736c-.386 0-.675-.266-.675-.7 0-.387.274-.692.715-.685.406 0 .695.228.695.65m.434.269c-.012.27.14.348.39.348.115 0 .254-.03.322-.13a.567.567 0 0 0 .076-.319v-.603c0-.11-.034-.128-.15-.128l-.03-.002v-.057a2.807 2.807 0 0 0 .454 0v.057l-.03.002c-.12 0-.156.017-.156.128v.7a.486.486 0 0 1-.084.278.434.434 0 0 1-.198.152.898.898 0 0 1-.256.04c-.173 0-.38-.027-.472-.196-.047-.086-.047-.154-.047-.249v-.683c0-.15.002-.162-.18-.172v-.057a3.713 3.713 0 0 0 .54 0v.057c-.181.01-.18.023-.18.172v.662m2.351.24v-.944c0-.11-.034-.128-.15-.128l-.03-.002v-.057a2.807 2.807 0 0 0 .454 0v.057l-.03.002c-.12 0-.156.017-.156.128v1.1l.005.07-.15-.027-.918-1.115v.927c0 .111.036.128.156.128l.03.002v.056a3.488 3.488 0 0 0-.226-.01c-.075 0-.151.005-.228.01v-.056l.03-.002c.117 0 .151-.017.151-.128v-.955c0-.11-.03-.128-.137-.13h-.026v-.057a1.457 1.457 0 0 0 .328 0l.897 1.131m.709-.06c0 .055 0 .111.008.16.053.008.11.012.179.015.484.012.647-.257.647-.605 0-.401-.246-.555-.574-.555-.083 0-.167.008-.252.011a1.22 1.22 0 0 0-.008.162zm-.178-.82c0-.178-.017-.19-.168-.192v-.06a7.236 7.236 0 0 0 .738 0c.353-.003.642.216.642.584 0 .459-.352.776-.808.745a4.368 4.368 0 0 0-.252-.01c-.086 0-.17.005-.253.01v-.056c.068-.014.1-.033.1-.114v-.907m1.667.817a.96.96 0 0 0 .01.163c.07.01.167.01.258.01.103 0 .207-.003.306-.032a.481.481 0 0 0 .023-.097l.017-.105h.063c-.008.04-.02.094-.02.154v.158c-.07.01-.197.008-.315.01a7.93 7.93 0 0 0-.342-.01c-.116 0-.228.004-.344.01v-.057c.095-.004.164-.044.164-.171v-.872c0-.15.001-.162-.18-.172v-.057a6.454 6.454 0 0 0 .695 0c.12.003.25 0 .315.01a.633.633 0 0 0-.03.184c0 .04-.006.072-.006.112h-.059a.864.864 0 0 0-.026-.186.955.955 0 0 0-.284-.033c-.083 0-.173 0-.235.01a.956.956 0 0 0-.01.158v.355c.415.004.441.027.443-.16h.063v.44h-.063c0-.215-.013-.204-.443-.188v.366m1.144.003c0 .055 0 .111.008.16.053.008.11.012.179.015.484.012.647-.257.647-.605 0-.401-.247-.555-.574-.555-.083 0-.167.008-.252.011a1.375 1.375 0 0 0-.008.162zm-.179-.82c0-.178-.017-.19-.167-.192v-.06a7.233 7.233 0 0 0 .738 0c.353-.003.642.216.642.584 0 .459-.351.776-.808.745a4.344 4.344 0 0 0-.252-.01c-.086 0-.17.005-.253.01v-.056c.068-.014.1-.033.1-.114v-.907m2.129.98c.046.01.099.016.17.017.2 0 .334-.124.334-.328 0-.21-.133-.291-.377-.291h-.127zm0-.68a.99.99 0 0 0 .135.008c.165-.002.312-.066.312-.255 0-.182-.128-.228-.287-.228a.477.477 0 0 0-.15.021.806.806 0 0 0-.01.14zm-.18-.322c0-.159-.035-.168-.168-.172v-.057a5.589 5.589 0 0 0 .646 0c.177 0 .337.065.337.266 0 .173-.162.285-.317.312.193.007.381.087.381.31 0 .256-.26.466-.558.44-.069-.005-.137-.01-.206-.01-.07 0-.139.005-.207.01v-.056c.08-.022.091-.063.091-.133v-.91m1.635.442l.196-.31c.072-.121.142-.24.205-.361h.152v.029c-.16.184-.39.505-.468.674a.337.337 0 0 0-.026.143v.255c0 .147-.002.161.18.17v.057c-.091-.005-.18-.01-.273-.01-.093 0-.183.005-.268.01v-.056c.182-.01.18-.024.18-.171v-.28c0-.014 0-.038-.01-.058l-.227-.4c-.063-.108-.179-.294-.314-.28v-.054l.202-.04c.055-.01.083.023.116.063.03.04.056.08.083.123l.272.496m1.45.56c.046.01.098.016.171.017.2 0 .332-.124.332-.328 0-.21-.133-.291-.376-.291h-.127zm0-.68a.99.99 0 0 0 .135.008c.165-.002.311-.066.311-.255 0-.182-.127-.228-.286-.228a.478.478 0 0 0-.15.021.849.849 0 0 0-.01.14zm-.18-.322c0-.159-.035-.168-.168-.172v-.057a5.57 5.57 0 0 0 .646 0c.177 0 .337.065.337.266 0 .173-.162.285-.318.312.194.007.382.087.382.31 0 .256-.26.466-.559.44a2.912 2.912 0 0 0-.205-.01c-.07 0-.138.005-.207.01v-.056c.08-.022.091-.063.091-.133v-.91m1.175 0c0-.15.002-.162-.18-.172v-.057a5.655 5.655 0 0 0 .66 0c.263-.013.384.13.384.289 0 .208-.186.33-.37.367l.431.562c.03.037.07.048.108.054v.056a1.125 1.125 0 0 0-.129-.01c-.043 0-.085.005-.129.01-.03-.04-.051-.073-.078-.106l-.452-.581.008-.029a.778.778 0 0 0 .174-.007c.133-.023.247-.126.247-.266 0-.206-.152-.266-.292-.266a.721.721 0 0 0-.19.024c-.012.032-.012.072-.012.132v.872c0 .147-.002.161.18.17v.057c-.09-.005-.18-.01-.273-.01-.093 0-.182.005-.267.01v-.056c.182-.01.18-.024.18-.171v-.872m1.45.872c0 .147-.002.161.18.17v.057c-.09-.005-.18-.01-.273-.01-.093 0-.183.005-.268.01v-.056c.182-.01.18-.024.18-.171v-.872c0-.15.002-.162-.18-.172v-.057a3.7 3.7 0 0 0 .541 0v.057c-.182.01-.18.023-.18.172v.872m1.604-.298v.048c-.094.016-.076.109-.07.23l.007.179-.09.025a1.63 1.63 0 0 1-.414.072c-.423 0-.766-.22-.766-.69 0-.43.324-.695.78-.695.167 0 .334.04.494.085-.02.095-.03.19-.042.285h-.055c-.006-.121.025-.165-.087-.22a.658.658 0 0 0-.306-.07c-.365 0-.58.235-.58.571 0 .383.22.653.612.653.146 0 .252-.03.267-.077.018-.057.007-.264.003-.295-.006-.04-.082-.037-.217-.042V11.3h.464m1.427.298c0 .147-.002.161.18.17v.057c-.09-.005-.18-.01-.273-.01-.093 0-.183.005-.268.01v-.056c.182-.01.18-.024.18-.171v-.441h-.76v.44c0 .148-.002.162.18.172v.056c-.09-.005-.18-.01-.273-.01a4.56 4.56 0 0 0-.268.01v-.056c.183-.01.18-.024.18-.171v-.872c0-.15.003-.162-.18-.172v-.057a3.707 3.707 0 0 0 .542 0v.057c-.183.01-.18.023-.18.172v.351h.76v-.351c0-.15.001-.162-.181-.172v-.057a3.716 3.716 0 0 0 .542 0v.057c-.183.01-.181.023-.181.172v.872m1.167-.293l-.238-.566-.237.566zm.298.263c.025.06.05.122.097.168a.18.18 0 0 0 .105.033v.056a4.363 4.363 0 0 0-.253-.01c-.086 0-.17.005-.253.01v-.056c.05-.002.1-.004.143-.026.026-.015.028-.045.013-.079l-.116-.278h-.54c-.022.052-.127.278-.127.32 0 .063.093.053.161.063v.056a3.239 3.239 0 0 0-.218-.01c-.074 0-.146.005-.219.01v-.056c.107-.022.12-.004.166-.103l.093-.196.256-.574c.061-.135.124-.273.173-.41h.061l.458 1.082m1.11.273h-.038l-.53-1.115v.913c0 .111.036.128.156.128l.03.002v.056a3.477 3.477 0 0 0-.226-.01c-.076 0-.152.005-.228.01v-.056l.03-.002c.116 0 .15-.017.15-.128v-.955c0-.11-.034-.128-.15-.128l-.03-.002v-.057a1.74 1.74 0 0 0 .36 0l.503 1.059.391-.806a1.73 1.73 0 0 0 .103-.253 1.743 1.743 0 0 0 .36 0v.057h-.028c-.114.002-.148.02-.148.13v.914c0 .147-.002.161.18.17v.057c-.09-.005-.18-.01-.273-.01a4.56 4.56 0 0 0-.268.01v-.056c.182-.01.18-.024.18-.171v-.872l-.524 1.115m2.344-.536l-.238-.566-.238.566zm.297.263c.026.06.05.122.097.168a.19.19 0 0 0 .105.033v.056a4.359 4.359 0 0 0-.253-.01c-.085 0-.168.005-.253.01v-.056c.05-.002.101-.004.143-.026.027-.015.03-.045.014-.079l-.116-.278h-.54c-.023.052-.127.278-.127.32 0 .063.093.053.161.063v.056a3.255 3.255 0 0 0-.219-.01c-.074 0-.146.005-.218.01v-.056c.107-.022.12-.004.165-.103l.093-.196.257-.574c.06-.135.124-.273.173-.41h.06l.458 1.082m1.508.06v-.944c0-.11-.034-.128-.15-.128l-.031-.002v-.057a2.836 2.836 0 0 0 .454 0v.057l-.03.002c-.12 0-.156.017-.156.128v1.1l.006.07-.15-.027-.918-1.115v.927c0 .111.036.128.156.128l.03.002v.056a3.479 3.479 0 0 0-.226-.01c-.076 0-.152.005-.228.01v-.056l.03-.002c.116 0 .15-.017.15-.128v-.955c0-.11-.03-.128-.136-.13h-.027v-.057a1.455 1.455 0 0 0 .328 0l.898 1.131m.709-.06c0 .055 0 .111.007.16.054.008.11.012.179.015.484.012.648-.257.648-.605 0-.401-.247-.555-.574-.555-.084 0-.168.008-.253.011a1.3 1.3 0 0 0-.007.162zm-.179-.82c0-.178-.017-.19-.167-.192v-.06a7.183 7.183 0 0 0 .737 0c.354-.003.643.216.643.584 0 .459-.352.776-.808.745a4.245 4.245 0 0 0-.253-.01c-.085 0-.17.005-.253.01v-.056c.069-.014.101-.033.101-.114v-.907m1.906-.045l-.011-.044c-.023-.088-.04-.097-.13-.103l-.018-.002v-.057a3.037 3.037 0 0 0 .478 0v.057c-.184-.012-.157.063-.142.135l.04.189.15.659.236-.594.17-.457h.062l.056.176.318.888.15-.536.088-.338c.019-.076.043-.134-.15-.122v-.057a2.126 2.126 0 0 0 .398 0v.057c-.079.006-.092-.002-.119.072l-.28.913-.073.294h-.098l-.135-.392-.237-.644-.33.84-.07.196h-.094a5.57 5.57 0 0 1-.044-.195l-.215-.935m2.974.475c0-.377-.169-.627-.522-.627-.33 0-.481.23-.481.541 0 .333.156.68.532.68.317-.02.471-.245.471-.594zm.204-.06c0 .409-.32.736-.736.736-.386 0-.674-.266-.674-.7 0-.387.274-.692.714-.685.407 0 .696.228.696.65m.909.722h-.04l-.529-1.115v.913c0 .111.036.128.155.128l.031.002v.056a3.497 3.497 0 0 0-.226-.01c-.077 0-.152.005-.228.01v-.056l.03-.002c.116 0 .15-.017.15-.128v-.955c0-.11-.034-.128-.15-.128l-.03-.002v-.057a1.738 1.738 0 0 0 .361 0l.501 1.059.392-.806c.042-.088.078-.17.103-.253a1.745 1.745 0 0 0 .36 0v.057h-.028c-.114.002-.148.02-.148.13v.914c0 .147-.001.161.181.17v.057c-.091-.005-.181-.01-.274-.01a4.46 4.46 0 0 0-.267.01v-.056c.182-.01.18-.024.18-.171v-.872l-.524 1.115m1.34-.276a.96.96 0 0 0 .01.163c.07.01.167.01.26.01.101 0 .205-.003.305-.032a.545.545 0 0 0 .023-.097l.016-.105h.063c-.007.04-.019.094-.019.154v.158c-.07.01-.197.008-.316.01a7.863 7.863 0 0 0-.341-.01c-.116 0-.228.004-.344.01v-.057c.095-.004.163-.044.163-.171v-.872c0-.15.002-.162-.18-.172v-.057a6.486 6.486 0 0 0 .696 0c.118.003.25 0 .314.01a.645.645 0 0 0-.03.184c0 .04-.006.072-.006.112h-.058a.955.955 0 0 0-.027-.186.954.954 0 0 0-.283-.033c-.083 0-.174 0-.236.01a.884.884 0 0 0-.01.158v.355c.415.004.44.027.444-.16h.062v.44h-.062c0-.215-.013-.204-.443-.188v.366m2.014.063v-.944c0-.11-.034-.128-.15-.128l-.03-.002v-.057a2.807 2.807 0 0 0 .454 0v.057l-.031.002c-.12 0-.156.017-.156.128v1.1l.006.07-.15-.027-.918-1.115v.927c0 .111.036.128.156.128l.03.002v.056a3.478 3.478 0 0 0-.226-.01 3.54 3.54 0 0 0-.227.01v-.056l.03-.002c.115 0 .15-.017.15-.128v-.955c0-.11-.03-.128-.137-.13h-.027v-.057a1.478 1.478 0 0 0 .33 0l.896 1.131m.385-.631l-.028-.02a.898.898 0 0 0 .148-.423c.048-.012.095-.027.138-.042l.047-.015.026.025c-.06.154-.144.3-.247.43l-.084.045m1.242-.18c0-.073 0-.122-.02-.153-.05-.08-.185-.11-.275-.11-.156 0-.289.108-.289.271 0 .413.757.071.757.549 0 .324-.29.48-.574.48a.841.841 0 0 1-.325-.072c.007-.072.012-.163.014-.238v-.053h.064v.09c0 .042.004.077.027.098.075.066.196.088.294.088.171 0 .338-.1.338-.289 0-.46-.752-.03-.752-.584 0-.26.22-.425.465-.425.13 0 .249.042.369.087-.005.03-.014.06-.016.091-.004.057-.01.112-.013.17h-.064m2.041.781c0 .147-.001.161.18.17v.057c-.09-.005-.18-.01-.273-.01a4.56 4.56 0 0 0-.268.01v-.056c.183-.01.181-.024.181-.171v-.441h-.761v.44c0 .148-.002.162.18.172v.056c-.09-.005-.18-.01-.273-.01-.093 0-.183.005-.268.01v-.056c.182-.01.18-.024.18-.171v-.872c0-.15.002-.162-.18-.172v-.057a3.702 3.702 0 0 0 .542 0v.057c-.183.01-.181.023-.181.172v.351h.761v-.351c0-.15.002-.162-.18-.172v-.057a3.698 3.698 0 0 0 .54 0v.057c-.181.01-.18.023-.18.172v.872m1.479-.42c0-.377-.17-.627-.523-.627-.33 0-.481.23-.481.541 0 .333.156.68.532.68.318-.02.472-.245.472-.594zm.203-.06a.728.728 0 0 1-.736.736c-.385 0-.675-.266-.675-.7 0-.387.275-.692.716-.685.406 0 .695.228.695.65m.825-.302c0-.073 0-.122-.02-.153-.05-.08-.186-.11-.275-.11-.156 0-.289.108-.289.271 0 .413.756.071.756.549 0 .324-.29.48-.572.48a.84.84 0 0 1-.327-.072c.008-.072.013-.163.014-.238v-.053h.065v.09c0 .042.003.077.026.098a.47.47 0 0 0 .295.088c.17 0 .338-.1.338-.289 0-.46-.752-.03-.752-.584 0-.26.22-.425.465-.425.13 0 .249.042.37.087-.007.03-.014.06-.016.091-.004.057-.012.112-.014.17h-.064m.445-.091c0-.15.002-.162-.18-.172v-.057a5.92 5.92 0 0 0 .666 0c.184 0 .394.08.394.295 0 .237-.206.393-.444.403a.426.426 0 0 1-.123-.012l-.02-.07a.598.598 0 0 0 .12.017.263.263 0 0 0 .276-.274c0-.197-.12-.289-.309-.289-.065 0-.127.016-.189.027-.011.032-.011.072-.011.132v.872c0 .147-.002.161.18.17v.057c-.09-.005-.18-.01-.273-.01-.093 0-.183.005-.268.01v-.056c.183-.01.18-.024.18-.171v-.872m1.329.872c0 .147-.003.161.18.17v.057c-.09-.005-.18-.01-.273-.01-.094 0-.183.005-.269.01v-.056c.184-.01.182-.024.182-.171v-.872c0-.15.002-.162-.182-.172v-.057a3.714 3.714 0 0 0 .542 0v.057c-.183.01-.18.023-.18.172v.872m.72-.814c-.002-.072-.002-.133-.007-.19l-.293.01c-.04.002-.063.007-.067.057-.008.045-.019.095-.02.146h-.058c0-.036 0-.07-.002-.106a4.851 4.851 0 0 0-.009-.204 15.871 15.871 0 0 0 1.096 0c-.005.07-.006.137-.01.204v.106h-.058c-.002-.051-.013-.1-.02-.146-.004-.05-.027-.055-.067-.057l-.297-.01c-.005.057-.005.118-.007.19v.814c0 .147-.002.161.18.17v.057c-.09-.005-.18-.01-.273-.01-.093 0-.183.005-.268.01v-.056c.182-.01.18-.024.18-.171v-.814m1.612.521l-.239-.566-.237.566zm.298.263a.46.46 0 0 0 .097.168c.02.019.06.03.105.033v.056c-.085-.005-.168-.01-.253-.01-.085 0-.17.005-.253.01v-.056c.05-.002.1-.004.142-.026.027-.015.03-.045.014-.079l-.116-.278h-.54c-.023.052-.127.278-.127.32 0 .063.093.053.161.063v.056c-.073-.005-.144-.01-.218-.01-.074 0-.147.005-.218.01v-.056c.105-.022.119-.004.164-.103l.094-.196.256-.574a5.58 5.58 0 0 0 .173-.41h.061l.458 1.082m.654.09l.006.07c.08.01.177.01.268.01.102 0 .206-.003.306-.032a.358.358 0 0 0 .018-.061l.044-.16.06.004c-.005.027-.01.076-.018.127l-.021.2c-.062.01-.183.008-.295.01a7.075 7.075 0 0 0-.325-.01c-.11 0-.217.004-.326.01v-.057c.09-.016.102-.07.102-.223v-.82c0-.15.002-.162-.18-.172v-.057a3.708 3.708 0 0 0 .54 0v.057c-.181.01-.18.023-.18.172v.932m.703-2.708H.002v-.08h47.447v.08" fill="#424a52"/><path d="M33.245 5.004l.033.002c.052 0 .085-.012.101-.035a.131.131 0 0 0 .022-.076c0-.032-.008-.057-.026-.075a.1.1 0 0 0-.072-.026l-.027.001a.115.115 0 0 0-.021.004.021.021 0 0 0-.006.01.03.03 0 0 0-.004.015zm-.146.259v-.025h.01a.069.069 0 0 0 .03-.005c.007-.001.011-.004.013-.01a.087.087 0 0 0 .004-.028v-.353a.087.087 0 0 0-.004-.034.023.023 0 0 0-.011-.014.113.113 0 0 0-.03-.002H33.1v-.029h.223c.045 0 .08.007.104.018a.107.107 0 0 1 .052.049.14.14 0 0 1 .014.06.12.12 0 0 1-.011.052.128.128 0 0 1-.039.047.221.221 0 0 1-.077.031.112.112 0 0 1 .032.015.138.138 0 0 1 .024.023.388.388 0 0 1 .045.076c.013.029.025.05.033.067.01.016.018.025.023.03a.052.052 0 0 0 .028.007v.025h-.076c-.022 0-.037-.004-.046-.011a.426.426 0 0 1-.055-.104 1.204 1.204 0 0 0-.034-.074.093.093 0 0 0-.024-.029.074.074 0 0 0-.04-.008l-.03.002v.15a.08.08 0 0 0 .005.034c.003.006.006.01.011.01.006.002.02.003.04.005v.025zm.21-.612a.382.382 0 0 0-.385.385.384.384 0 0 0 .386.386.383.383 0 0 0 .332-.58.386.386 0 0 0-.332-.19zm0-.07a.458.458 0 0 1 .457.455.44.44 0 0 1-.062.228.44.44 0 0 1-.167.167.445.445 0 0 1-.455 0 .449.449 0 0 1-.166-.625.444.444 0 0 1 .394-.225M23.881.206c1.387.014 2.568.142 4.378.727.082.025.085-.013.025-.042-1.866-.684-2.86-.9-4.403-.89-1.544-.01-2.537.206-4.403.89-.061.03-.057.067.024.042C21.313.348 22.494.22 23.881.206m4.126 4.605a3.67 3.67 0 0 1-.055.26 1.1 1.1 0 0 1-.048.16.745.745 0 0 1-.192.053c-.07.01-.187.016-.35.016-.23 0-.438-.007-.623-.021-.006-.124-.01-.305-.01-.543 0-.253.004-.445.01-.573.158-.007.28-.01.367-.01.211 0 .353.008.426.023.041.01.07.025.084.049.016.023.025.082.027.177l.005.131h.135l-.009-.45.01-.4v-.037h-.117l-.011.136a.508.508 0 0 1-.03.157c-.013.016-.04.026-.08.031a3.104 3.104 0 0 1-.392.021c-.126 0-.264-.004-.415-.01l.008-.653c.003-.125.006-.259.011-.402.047-.004.123-.008.23-.013a4.34 4.34 0 0 1 .206-.008c.145 0 .289.01.433.026a.925.925 0 0 1 .233.06 2.1 2.1 0 0 1 .026.36h.121c.02-.256.032-.39.035-.402.007-.054.02-.118.042-.19a2.846 2.846 0 0 0-.361-.022c-.126 0-.328.002-.608.006l-.581.01-.54-.009h-.002c-.109.001-.241.005-.374.005-.141 0-.281-.002-.419-.008v.12a.702.702 0 0 1 .24.031c.016.007.029.02.037.036a.86.86 0 0 1 .023.198c.009.17.012.318.012.444v1.411a23.96 23.96 0 0 1-.574-.73l-.53-.7-.363-.494-.22-.316c-.085.006-.17.008-.255.008-.062 0-.138 0-.25-.003h-.149c-.099.003-.226.007-.383.01-.319.008-.521.011-.608.011a48.431 48.431 0 0 1-1.147-.026c.011.119.018.33.02.639h.12l.02-.195a.664.664 0 0 1 .04-.21c.008-.013.027-.022.059-.026.098-.013.23-.02.395-.02h.288l.012.327.003.178v1.124l-.007.549c-.004.099-.014.161-.031.187-.012.02-.035.035-.067.045a1.376 1.376 0 0 1-.28.02v.124c.35-.01.551-.015.602-.015.115 0 .288.004.519.015V5.36a1.338 1.338 0 0 1-.279-.02.127.127 0 0 1-.072-.05.654.654 0 0 1-.028-.218 24.688 24.688 0 0 1-.005-.513V3.43c0-.21.006-.377.019-.5h.235c.065 0 .152.003.263.01.11.006.175.011.192.015.015.004.026.01.033.016a.06.06 0 0 1 .016.033c.003.015.01.078.02.19l.017.186h.123c.004-.24.014-.41.02-.515a.615.615 0 0 1 .105.009.139.139 0 0 1 .073.039c.032.032.053.06.063.083.005.013.007.04.007.082v1.573c0 .124-.003.27-.01.44a.759.759 0 0 1-.025.203.07.07 0 0 1-.035.037.65.65 0 0 1-.242.03v.122c.159-.01.306-.013.442-.013.124 0 .237.004.34.013v-.122a.673.673 0 0 1-.24-.028.073.073 0 0 1-.037-.04.75.75 0 0 1-.023-.196 9.342 9.342 0 0 1-.012-.446V3.17l1.245 1.635.227.314a9.38 9.38 0 0 0 .28.352c.006.004.012.009.02.011l.042.01.181.057a102.56 102.56 0 0 1-.009-1.052V3.57c0-.121.004-.268.01-.437a.76.76 0 0 1 .025-.204.07.07 0 0 1 .035-.037.653.653 0 0 1 .241-.027c.153.002.247.009.28.02a.134.134 0 0 1 .071.05c.015.023.025.095.028.217.004.168.006.338.006.513v.986c0 .124-.004.27-.011.44a.698.698 0 0 1-.027.203.073.073 0 0 1-.039.037.773.773 0 0 1-.266.03v.122l.505-.015 1.15.015c.16 0 .295-.008.405-.025 0-.172.017-.387.051-.647h-.128m.301-1.946V2.74l.23.006.37.01c.074 0 .188-.003.342-.008.2-.008.318-.012.35-.012.245 0 .423.022.536.065.113.044.2.115.261.214a.588.588 0 0 1 .094.321.73.73 0 0 1-.339.587 1.27 1.27 0 0 1-.43.166c.032.045.109.145.228.3l.486.641c.139.18.22.28.243.3a.132.132 0 0 0 .035.019c.02.006.062.01.128.01v.123a3.27 3.27 0 0 0-.537 0 8.56 8.56 0 0 1-.42-.565 11.002 11.002 0 0 0-.676-.859l.02-.058c.067.004.118.006.152.006.234 0 .412-.055.532-.167a.564.564 0 0 0 .183-.437.483.483 0 0 0-.158-.378c-.104-.093-.261-.14-.472-.14-.133 0-.263.02-.39.06-.006.07-.01.135-.011.195-.002.018-.006.205-.014.562v.856c0 .176.003.346.008.513.003.121.01.194.026.218.015.023.039.04.072.05.033.01.126.018.278.02v.124a8.718 8.718 0 0 0-.503-.015 17.9 17.9 0 0 0-.624.015V5.36c.152-.002.245-.01.278-.02a.127.127 0 0 0 .07-.045.5.5 0 0 0 .03-.187l.007-.549v-.893c0-.175-.003-.345-.007-.513a.644.644 0 0 0-.027-.217.133.133 0 0 0-.072-.05 1.411 1.411 0 0 0-.28-.02m-4.426-1.621c1.825-.034 4.307.22 6.309 1.144.068.036.084-.015.023-.043-2.112-1.026-4.789-1.36-6.332-1.317-1.544-.042-4.22.29-6.332 1.317-.062.028-.045.079.023.043 2.001-.925 4.483-1.178 6.309-1.144" fill="#067aa4"/><path d="M23.881.744c1.375-.003 3.674.141 5.454.933.072.04.091-.01.024-.042C27.549.787 25.427.509 23.884.523c-1.545-.014-3.672.264-5.482 1.112-.067.031-.047.082.024.042 1.78-.792 4.08-.936 5.455-.933m8.494 2.65c0-.15 0-.253-.038-.316-.107-.165-.387-.229-.573-.229-.322 0-.6.226-.6.565 0 .855 1.57.146 1.57 1.135 0 .675-.602.998-1.19.998a1.73 1.73 0 0 1-.675-.15c.015-.15.024-.339.028-.493v-.11h.134v.185c0 .087.008.162.055.205.158.138.41.181.612.181.354 0 .7-.208.7-.6 0-.953-1.56-.062-1.56-1.21 0-.54.457-.883.966-.883.268 0 .516.087.765.182-.012.063-.027.126-.032.189-.008.118-.023.232-.028.35h-.134M15.878 7.164c0 .104 0 .114.127.12v.041a2.931 2.931 0 0 0-.38 0v-.04c.128-.007.127-.017.127-.121v-.31h-.534v.31c0 .104-.001.114.127.12v.041a2.939 2.939 0 0 0-.38 0v-.04c.128-.007.127-.017.127-.121v-.612c0-.104.001-.113-.127-.12v-.04a3.246 3.246 0 0 0 .38 0v.04c-.128.007-.127.016-.127.12V6.8h.534v-.248c0-.104.001-.113-.126-.12v-.04a3.204 3.204 0 0 0 .38 0v.04c-.129.007-.128.016-.128.12v.612m1.371-.022c0 .048.001.08.006.115.05.007.118.007.182.007a.764.764 0 0 0 .215-.023.308.308 0 0 0 .015-.068l.013-.074h.044c-.005.029-.013.065-.013.108v.11c-.05.008-.14.006-.222.008a4.57 4.57 0 0 0-.482 0v-.04c.067-.003.115-.031.115-.121v-.612c0-.104 0-.113-.127-.12v-.04a5.675 5.675 0 0 0 .488 0c.084.001.177 0 .222.007a.464.464 0 0 0-.022.13c0 .027-.003.05-.003.078h-.042a.644.644 0 0 0-.018-.13.646.646 0 0 0-.2-.024c-.058 0-.12 0-.165.007a.726.726 0 0 0-.006.11v.25c.29.003.31.019.311-.112h.043v.308h-.043c0-.15-.01-.142-.311-.132v.258m2.105-.183l-.167-.398-.167.398zm.21.185c.017.042.034.086.067.118.015.013.043.02.074.022v.041a2.524 2.524 0 0 0-.355 0v-.04c.034-.002.07-.003.1-.019.018-.01.02-.031.01-.054l-.082-.196h-.38c-.015.037-.089.196-.089.225 0 .043.066.037.113.043v.041a1.853 1.853 0 0 0-.306 0v-.04c.075-.016.085-.003.116-.072l.066-.138.18-.403c.043-.094.086-.192.12-.288h.044l.321.76m1.379.063l.005.05c.056.007.124.007.187.007a.761.761 0 0 0 .215-.023c.006-.013.01-.027.015-.044l.03-.112.042.003c-.004.019-.008.054-.013.09l-.015.14c-.042.007-.128.005-.206.007a4.112 4.112 0 0 0-.458 0v-.04c.063-.011.072-.05.072-.157v-.576c0-.104.002-.113-.127-.12v-.04a3.274 3.274 0 0 0 .38 0v.04c-.128.007-.127.016-.127.12v.655m1.694-.613c-.001-.051-.001-.094-.006-.134l-.205.007c-.028.001-.044.005-.047.04-.005.032-.013.067-.014.102h-.04c0-.025 0-.049-.002-.074l-.006-.143a13.92 13.92 0 0 0 .77 0 1.754 1.754 0 0 0-.007.143c-.002.025-.002.049-.002.074h-.04c-.002-.035-.01-.07-.014-.102-.003-.035-.019-.039-.047-.04l-.208-.007c-.004.04-.004.083-.006.134v.57c0 .104-.001.114.127.12v.041a2.936 2.936 0 0 0-.38 0v-.04c.128-.007.127-.017.127-.121v-.57m2.342.57c0 .104 0 .114.127.12v.041a2.926 2.926 0 0 0-.38 0v-.04c.128-.007.127-.017.127-.121v-.31h-.535v.31c0 .104 0 .114.127.12v.041a2.932 2.932 0 0 0-.38 0v-.04c.129-.007.127-.017.127-.121v-.612c0-.104.002-.113-.127-.12v-.04a3.272 3.272 0 0 0 .38 0v.04c-.127.007-.127.016-.127.12V6.8h.535v-.248c0-.104 0-.113-.127-.12v-.04a3.26 3.26 0 0 0 .38 0v.04c-.128.007-.127.016-.127.12v.612m1.954.102a.698.698 0 0 1-.302.079c-.294 0-.54-.174-.54-.49 0-.31.249-.483.513-.483.118 0 .236.028.347.06a2.226 2.226 0 0 0-.029.2h-.04c-.003-.086.018-.116-.06-.154a.456.456 0 0 0-.215-.05c-.22 0-.372.156-.372.397 0 .267.173.452.442.452.095 0 .19-.031.27-.084l.012.013-.026.06m1.652-.307l-.166-.398-.168.398zm.21.185c.017.042.034.086.068.118.014.013.043.02.073.022v.041a2.514 2.514 0 0 0-.355 0v-.04c.034-.002.07-.003.101-.019.019-.01.02-.031.008-.054l-.08-.196h-.38c-.016.037-.09.196-.09.225 0 .043.067.037.114.043v.041a1.881 1.881 0 0 0-.307 0v-.04c.076-.016.085-.003.116-.072l.066-.138.18-.403c.043-.094.087-.192.121-.288h.043l.321.76m1.254-.592c0-.104 0-.113-.128-.12v-.04a4.962 4.962 0 0 0 .465 0c.184-.01.27.09.27.203 0 .145-.131.232-.26.257l.302.396a.113.113 0 0 0 .076.036v.041a.658.658 0 0 0-.181 0c-.021-.028-.036-.053-.055-.075l-.318-.408.006-.02a.617.617 0 0 0 .122-.005c.094-.017.173-.089.173-.187 0-.145-.106-.188-.205-.188a.498.498 0 0 0-.133.018c-.008.023-.008.05-.008.092v.612c0 .104-.001.114.127.12v.041a2.961 2.961 0 0 0-.38 0v-.04c.128-.007.127-.017.127-.121v-.612m1.938.59a.7.7 0 0 0 .006.115c.05.007.118.007.183.007a.766.766 0 0 0 .214-.023.334.334 0 0 0 .016-.068l.012-.074h.044c-.006.029-.014.065-.014.108v.11c-.05.008-.139.006-.221.008a4.575 4.575 0 0 0-.481 0v-.04c.067-.003.114-.031.114-.121v-.612c0-.104.002-.113-.127-.12v-.04a5.781 5.781 0 0 0 .489 0c.083.001.175 0 .22.007a.454.454 0 0 0-.02.13c0 .027-.004.05-.004.078h-.042c-.001-.052-.01-.09-.018-.13a.646.646 0 0 0-.199-.024c-.059 0-.121 0-.166.007a.649.649 0 0 0-.006.11v.25c.291.003.31.019.31-.112h.045v.308h-.045c0-.15-.01-.142-.31-.132v.258M16.95 4.4l.493-1.163.483 1.163zm4.09.95a.112.112 0 0 1-.035-.02 3.835 3.835 0 0 1-.243-.299l-.486-.64c-.12-.156-.196-.256-.228-.301.176-.039.32-.093.429-.165a.721.721 0 0 0 .339-.588.594.594 0 0 0-.093-.321.526.526 0 0 0-.261-.214c-.113-.043-.292-.065-.538-.065-.032 0-.148.004-.349.012-.154.005-.268.007-.342.007l-.37-.01-.23-.005v.124c.153.002.246.009.279.02a.132.132 0 0 1 .072.05c.014.023.023.095.027.217.004.168.007.338.007.513v.893a52.9 52.9 0 0 1-.008.549.475.475 0 0 1-.03.187c-.012.02-.037.03-.069.045a.184.184 0 0 1-.048.01.204.204 0 0 1-.091-.02.217.217 0 0 1-.08-.089 9.084 9.084 0 0 1-.267-.59l-.824-1.936h-.125c-.173.412-.286.68-.338.8L16.655 4.6c-.143.314-.227.495-.25.542a.605.605 0 0 1-.092.155.163.163 0 0 1-.069.04.973.973 0 0 1-.19.014v.131a5.416 5.416 0 0 1 .897 0v-.131a1.36 1.36 0 0 1-.25-.018.11.11 0 0 1-.067-.034.064.064 0 0 1-.015-.045c0-.041.018-.105.056-.195l.21-.495h1.118l.237.59a.307.307 0 0 1 .027.11.068.068 0 0 1-.016.046c-.011.012-.032.02-.063.027a2.05 2.05 0 0 1-.262.014v.131h1.834V5.36a1.359 1.359 0 0 1-.278-.02.124.124 0 0 1-.072-.05c-.015-.024-.023-.097-.026-.218a15.388 15.388 0 0 1-.008-.513v-.856c.008-.357.012-.544.014-.562.002-.06.006-.125.01-.195.129-.04.259-.06.391-.06.211 0 .369.047.473.14a.482.482 0 0 1 .156.378.56.56 0 0 1-.181.437c-.121.112-.299.167-.533.167a2.75 2.75 0 0 1-.152-.006l-.02.058a10.491 10.491 0 0 1 .676.859c.197.28.337.468.42.565a3.216 3.216 0 0 1 .536 0V5.36a.501.501 0 0 1-.126-.01M16.1 2.707a13.113 13.113 0 0 1-1.384-.001v.12c.378.019.374.046.374.354v1.83c0 .308.004.336-.374.356v.117c.177-.011.362-.02.555-.02.194 0 .379.009.568.02v-.117c-.374-.02-.374-.047-.374-.345v-1.84c0-.124 0-.206.023-.273.126-.023.256-.056.39-.056.395 0 .643.19.643.6 0 .335-.248.58-.572.568a1.258 1.258 0 0 1-.252-.036l.044.146a.88.88 0 0 0 .256.024c.493-.02.918-.343.918-.837 0-.445-.433-.61-.815-.61" fill="#067aa4"/></svg>