<svg xmlns="http://www.w3.org/2000/svg" width="264.36" height="32.093" viewBox="0 0 264.36 32.093"><path d="M70.034 18.91c.055.002.096.009.122.009.197 0 .322-.046.383-.133a.495.495 0 0 0 .083-.288c0-.118-.03-.213-.099-.28a.377.377 0 0 0-.271-.101c-.03 0-.065 0-.104.005a.389.389 0 0 0-.078.014.082.082 0 0 0-.023.038.11.11 0 0 0-.013.059zm-.554.98v-.096l.037.002a.262.262 0 0 0 .118-.018c.024-.006.04-.018.047-.036a.328.328 0 0 0 .013-.11v-1.335a.332.332 0 0 0-.015-.128.072.072 0 0 0-.042-.05.43.43 0 0 0-.11-.01h-.048v-.107h.841a.96.96 0 0 1 .394.065.407.407 0 0 1 .198.185c.04.083.055.156.055.23a.464.464 0 0 1-.19.373.845.845 0 0 1-.293.117.412.412 0 0 1 .122.055.485.485 0 0 1 .09.088c.036.04.06.077.08.111.019.029.05.089.089.178.052.108.097.19.127.252a.492.492 0 0 0 .088.112.198.198 0 0 0 .103.026v.095h-.285c-.085 0-.142-.013-.174-.04-.035-.028-.103-.16-.207-.395a4.466 4.466 0 0 0-.132-.28.354.354 0 0 0-.09-.107.282.282 0 0 0-.15-.033c-.018 0-.057.006-.112.008v.567c0 .064.005.107.018.13.01.023.023.035.042.04.02.007.073.01.15.015v.095zm.797-2.311a1.441 1.441 0 0 0-1.255.722 1.427 1.427 0 0 0-.2.732 1.455 1.455 0 0 0 .73 1.26 1.4 1.4 0 0 0 .725.199c.262 0 .5-.067.726-.198a1.467 1.467 0 0 0 .73-1.26c0-.258-.069-.503-.202-.737a1.37 1.37 0 0 0-.546-.532 1.458 1.458 0 0 0-.708-.186zm0-.267c.29 0 .568.074.838.22.275.146.49.36.647.632.156.271.238.562.238.87 0 .308-.077.596-.233.86a1.668 1.668 0 0 1-.632.632 1.686 1.686 0 0 1-.858.231 1.67 1.67 0 0 1-.859-.231 1.692 1.692 0 0 1-.633-.632 1.7 1.7 0 0 1-.232-.86c0-.31.08-.6.238-.87.155-.268.368-.48.634-.63a1.75 1.75 0 0 1 .852-.222M34.64.775c5.243.054 9.705.536 16.55 2.749.307.095.32-.048.092-.16C44.23.78 40.475-.038 34.641-.002 28.803-.038 25.052.78 18 3.364c-.232.112-.218.255.09.16C24.935 1.31 29.397.829 34.64.775m15.595 17.407a13.45 13.45 0 0 1-.209.982 4.23 4.23 0 0 1-.179.608c-.22.096-.463.158-.725.196-.264.04-.707.06-1.324.06-.87 0-1.655-.025-2.354-.078a43.989 43.989 0 0 1-.037-2.052c0-.957.013-1.68.037-2.167a38.154 38.154 0 0 1 1.386-.036c.798 0 1.334.031 1.611.088.155.034.262.094.318.184.057.089.092.311.099.67l.021.495h.51l-.033-1.7.034-1.516v-.139h-.438l-.045.513c-.036.336-.072.536-.114.596-.047.058-.147.097-.302.117-.404.053-.9.078-1.479.078-.477 0-.999-.014-1.568-.041l.029-2.466c.01-.472.023-.977.043-1.517.177-.016.464-.033.87-.051.401-.021.662-.03.778-.03.545 0 1.09.035 1.635.1.323.04.614.116.88.228.067.408.103.86.098 1.357h.458c.079-.968.12-1.473.13-1.52.03-.203.081-.444.161-.718-.427-.055-.88-.08-1.365-.08-.476 0-1.24.007-2.298.02l-2.196.039-2.038-.034h-.01c-.41.005-.912.018-1.415.018-.53 0-1.06-.007-1.582-.029v.456c.458.01.762.044.91.115.06.026.106.073.137.137.038.097.068.347.088.748.032.643.045 1.2.045 1.679v5.333a11.398 11.398 0 0 1-.623-.76c-.39-.484-.906-1.15-1.548-1.997l-2.002-2.653-1.374-1.863c-.178-.257-.456-.657-.832-1.195-.317.022-.64.029-.96.029-.235 0-.526 0-.945-.01h-.563c-.374.013-.858.026-1.45.039-1.203.028-1.969.041-2.298.041-.31 0-.92-.007-1.837-.027a179.85 179.85 0 0 1-2.496-.072c.041.448.067 1.25.072 2.414h.452l.08-.738c.044-.446.092-.71.147-.794.035-.047.107-.08.226-.098.37-.047.868-.073 1.494-.073h1.087l.045 1.235c.01.243.014.468.014.672v4.253c-.02 1.278-.03 1.97-.03 2.071-.015.375-.052.61-.116.707-.043.074-.13.133-.254.17-.128.042-.48.07-1.057.079v.467c1.326-.04 2.085-.058 2.274-.058.436 0 1.09.018 1.961.058v-.467c-.579-.01-.928-.037-1.052-.078a.476.476 0 0 1-.272-.19c-.054-.09-.09-.364-.104-.823-.015-.63-.02-1.273-.02-1.936v-4.266c0-.793.02-1.425.07-1.894h.89c.244 0 .573.013.99.04.42.023.663.044.73.057a.283.283 0 0 1 .121.061c.026.02.048.063.062.124.014.057.041.295.08.72l.06.701h.467c.016-.906.05-1.552.078-1.947.19.007.321.018.392.033.104.019.196.07.278.149.12.121.2.225.237.314.018.05.027.152.027.312v5.944c0 .47-.011 1.024-.041 1.666-.017.412-.048.667-.092.764a.265.265 0 0 1-.131.14c-.15.072-.453.114-.917.116v.46a28.419 28.419 0 0 1 1.672-.05c.469 0 .897.015 1.286.05v-.46c-.46-.002-.764-.041-.908-.109a.278.278 0 0 1-.14-.147c-.04-.094-.069-.337-.087-.744a35.414 35.414 0 0 1-.047-1.686v-5.594l4.707 6.182.858 1.187c.172.235.442.578.809 1.038.137.168.221.264.251.29.023.016.046.034.072.043l.162.035.684.218c-.023-1.94-.034-3.264-.034-3.974v-3.51c0-.46.013-1.014.04-1.653.018-.42.048-.676.09-.77a.26.26 0 0 1 .133-.14c.145-.07.45-.105.912-.104.578.01.932.035 1.058.075a.504.504 0 0 1 .27.192c.055.084.092.358.104.818.016.635.022 1.28.022 1.938v3.73c0 .468-.014 1.023-.043 1.665-.02.412-.053.667-.101.764a.275.275 0 0 1-.146.14c-.164.072-.498.114-1.006.116v.46c1.208-.04 1.845-.058 1.91-.058l4.348.058c.6 0 1.111-.032 1.528-.095 0-.648.065-1.46.194-2.445h-.485m1.135-7.358v-.467c.193.006.483.01.87.022l1.402.036c.28 0 .709-.01 1.29-.029a63.174 63.174 0 0 1 1.322-.043c.93 0 1.603.082 2.028.245.425.167.755.433.987.807.238.374.355.778.355 1.217 0 .404-.11.812-.332 1.217-.22.4-.535.737-.948 1.002-.417.271-.959.477-1.624.625.12.17.41.549.86 1.137l1.837 2.42c.523.68.831 1.057.919 1.132a.501.501 0 0 0 .132.073c.073.025.234.037.484.037v.467a12.24 12.24 0 0 0-.972-.043c-.289 0-.641.013-1.058.043-.316-.367-.845-1.078-1.589-2.137-.414-.59-.78-1.079-1.095-1.473a41.643 41.643 0 0 0-1.46-1.774l.075-.218c.253.014.445.021.577.021.884 0 1.554-.208 2.01-.63.456-.414.69-.966.69-1.654 0-.599-.203-1.072-.595-1.425-.393-.353-.99-.529-1.787-.529-.502 0-.994.074-1.47.226-.024.262-.04.509-.045.736-.005.07-.02.776-.052 2.123v3.24c0 .663.01 1.307.032 1.936.01.459.039.732.095.824a.478.478 0 0 0 .275.189c.124.041.474.068 1.051.078v.467a32.561 32.561 0 0 0-1.904-.058c-.468 0-1.253.018-2.36.058v-.467c.576-.01.928-.037 1.053-.078a.479.479 0 0 0 .266-.17c.057-.098.093-.333.109-.708 0-.102.01-.793.029-2.071v-3.381c0-.657-.01-1.303-.024-1.938-.016-.46-.051-.734-.104-.818a.5.5 0 0 0-.274-.192c-.122-.04-.473-.064-1.054-.075M34.64 4.704c6.9-.13 16.28.829 23.844 4.322.26.136.32-.057.09-.16-7.983-3.881-18.101-5.14-23.933-4.98-5.835-.16-15.954 1.099-23.934 4.98-.232.103-.168.296.089.16 7.563-3.493 16.942-4.451 23.845-4.322" fill="#067aa4"/><path d="M34.64 2.81c5.197-.014 13.887.533 20.614 3.525.272.15.347-.04.091-.16-6.841-3.202-14.86-4.254-20.694-4.2-5.837-.054-13.876.998-20.717 4.2-.257.12-.18.31.09.16 6.724-2.992 15.42-3.539 20.617-3.526m32.104 10.015c0-.566 0-.956-.144-1.192-.406-.626-1.465-.866-2.167-.866-1.215 0-2.264.852-2.264 2.133 0 3.236 5.934.552 5.934 4.293 0 2.55-2.28 3.772-4.501 3.772-.897 0-1.73-.225-2.55-.568.057-.565.089-1.28.104-1.861v-.418h.506v.7c0 .328.033.611.21.776.597.521 1.55.683 2.312.683 1.34 0 2.65-.788 2.65-2.264 0-3.608-5.899-.239-5.899-4.577 0-2.041 1.727-3.339 3.649-3.339 1.012 0 1.95.33 2.893.689-.047.236-.104.473-.12.713-.031.445-.09.88-.105 1.326h-.508m-62.35 14.25c0 .394-.005.432.479.455v.155c-.24-.015-.48-.027-.725-.027-.25 0-.485.012-.711.027v-.155c.482-.023.477-.06.477-.455v-1.168H1.9v1.168c0 .394-.004.432.479.455v.155a11.089 11.089 0 0 0-.726-.027c-.246 0-.484.012-.711.027v-.155c.484-.023.479-.06.479-.455v-2.311c0-.394.005-.429-.48-.455v-.15c.228.013.466.024.712.024.247 0 .484-.01.726-.024v.15c-.483.026-.479.061-.479.455v.934h2.016v-.934c0-.394.005-.429-.477-.455v-.15c.226.013.46.024.711.024.246 0 .485-.01.725-.024v.15c-.484.026-.48.061-.48.455v2.31m5.179-.08c0 .181.006.3.024.432.188.026.446.026.686.026.274 0 .55-.01.812-.087.026-.075.05-.167.059-.255l.047-.28h.168c-.021.11-.052.245-.052.409v.419c-.186.027-.525.018-.837.027a17.288 17.288 0 0 0-.907-.027c-.306 0-.606.012-.913.027v-.155c.252-.009.433-.114.433-.455v-2.311c0-.394.004-.429-.479-.455v-.15c.307.013.61.024.924.024.313 0 .62-.01.921-.024.317.004.668 0 .837.024a1.768 1.768 0 0 0-.081.49c0 .106-.014.19-.014.297h-.156c-.005-.196-.036-.337-.07-.493-.24-.078-.5-.087-.752-.087-.224 0-.458 0-.626.026a2.736 2.736 0 0 0-.024.418v.941c1.1.012 1.17.072 1.176-.422h.164v1.165h-.164c0-.57-.037-.54-1.176-.5v.976m7.956-.693l-.63-1.504-.63 1.503zm.791.698c.067.159.132.326.257.448.057.05.161.078.279.083v.155a9.522 9.522 0 0 0-.671-.027 9.53 9.53 0 0 0-.672.027v-.155c.131-.005.268-.009.378-.068.072-.036.077-.118.038-.206l-.31-.738h-1.433c-.058.139-.338.738-.338.847 0 .165.248.142.43.165v.155a7.06 7.06 0 0 0-.58-.027c-.196 0-.387.012-.58.027v-.155c.283-.055.319-.009.439-.269l.249-.52.678-1.524c.163-.357.328-.726.458-1.089h.164l1.214 2.871m5.212.24l.016.187c.214.026.471.026.71.026.276 0 .552-.01.813-.087.022-.047.035-.101.053-.163l.114-.423.16.01c-.014.071-.03.205-.048.34l-.055.529c-.162.027-.485.018-.782.027a15.485 15.485 0 0 0-.863-.027c-.291 0-.576.012-.869.027v-.155c.239-.039.274-.186.274-.588v-2.178c0-.394.007-.429-.48-.455v-.15c.23.013.466.024.711.024.246 0 .484-.01.728-.024v.15c-.485.026-.482.061-.482.455v2.475m6.402-2.319c-.005-.191-.005-.352-.021-.504l-.776.025c-.107.005-.167.02-.177.15-.02.122-.052.253-.055.389h-.15c0-.097 0-.185-.007-.28a16.745 16.745 0 0 0-.024-.54c.478.012.957.023 1.452.023.488 0 .966-.01 1.456-.024-.014.184-.02.362-.025.54-.005.096-.005.184-.005.28h-.152c-.006-.135-.036-.266-.054-.387-.01-.13-.07-.146-.178-.151l-.785-.025c-.015.152-.015.313-.022.504v2.155c0 .394-.006.432.48.455v.155c-.24-.015-.48-.027-.727-.027s-.483.012-.71.027v-.155c.484-.023.48-.06.48-.455v-2.155m8.855 2.155c0 .394-.006.432.477.455v.155c-.24-.015-.478-.027-.724-.027-.249 0-.485.012-.712.027v-.155c.483-.023.479-.06.479-.455v-1.168h-2.02v1.168c0 .394-.004.432.48.455v.155a11.11 11.11 0 0 0-.726-.027c-.246 0-.485.012-.712.027v-.155c.485-.023.48-.06.48-.455v-2.311c0-.394.005-.429-.48-.455v-.15c.227.013.466.024.712.024.246 0 .484-.01.725-.024v.15c-.483.026-.479.061-.479.455v.934h2.019v-.934c0-.394.004-.429-.48-.455v-.15c.228.013.464.024.713.024.246 0 .484-.01.724-.024v.15c-.483.026-.478.061-.478.455v2.31m7.382.387c-.314.183-.82.298-1.14.298-1.11 0-2.042-.657-2.042-1.852 0-1.17.943-1.826 1.94-1.826.446 0 .89.107 1.313.228a8.542 8.542 0 0 0-.11.758h-.15c-.012-.326.067-.44-.228-.585a1.738 1.738 0 0 0-.814-.189c-.831 0-1.407.59-1.407 1.503 0 1.01.658 1.706 1.671 1.706.36 0 .719-.117 1.024-.318l.042.05-.099.228m6.245-1.161l-.628-1.504-.633 1.503zm.792.698c.068.159.133.326.26.448.054.05.162.078.276.083v.155a9.458 9.458 0 0 0-.668-.027c-.233 0-.453.012-.673.027v-.155c.13-.005.266-.009.38-.068.07-.036.076-.118.032-.206l-.304-.738h-1.435c-.06.139-.34.738-.34.847 0 .165.252.142.432.165v.155a7.096 7.096 0 0 0-.581-.027 7.24 7.24 0 0 0-.582.027v-.155c.287-.055.32-.009.44-.269l.25-.52.677-1.524c.163-.357.331-.726.46-1.089h.161l1.215 2.871m4.738-2.235c0-.394.003-.429-.481-.455v-.15c.28.013.573.024.872.024.298 0 .591-.01.882-.024.699-.036 1.02.343 1.02.766 0 .55-.495.877-.981.971l1.141 1.496a.424.424 0 0 0 .288.138v.155a2.479 2.479 0 0 0-.345-.027 2.46 2.46 0 0 0-.34.027c-.08-.108-.134-.199-.207-.283l-1.202-1.545.024-.077c.153.01.311.007.46-.016.354-.063.654-.335.654-.707 0-.546-.402-.709-.774-.709-.176 0-.366.026-.505.068-.03.086-.03.191-.03.348v2.31c0 .395-.004.433.48.456v.155c-.244-.015-.48-.027-.726-.027a10.3 10.3 0 0 0-.711.027v-.155c.484-.023.481-.06.481-.455v-2.311m7.325 2.23c0 .181.003.3.024.432.186.026.446.026.689.026.27 0 .547-.01.81-.087.026-.075.05-.167.06-.255l.046-.28h.165c-.021.11-.05.245-.05.409v.419c-.187.027-.526.018-.837.027-.298-.015-.6-.027-.906-.027-.308 0-.604.012-.913.027v-.155c.252-.009.434-.114.434-.455v-2.311c0-.394.005-.429-.482-.455v-.15c.31.013.613.024.924.024.312 0 .619-.01.925-.024.314.004.662 0 .834.024a1.728 1.728 0 0 0-.08.49c0 .106-.014.19-.014.297h-.16c-.002-.196-.033-.337-.067-.493-.243-.078-.5-.087-.752-.087-.222 0-.457 0-.626.026-.02.125-.023.24-.023.418v.941c1.1.012 1.168.072 1.17-.422h.171v1.165h-.17c0-.57-.035-.54-1.171-.5v.976M8.448 16.63l1.86-4.398 1.824 4.398zm15.454 3.588a.424.424 0 0 1-.133-.073c-.088-.075-.392-.453-.917-1.131l-1.838-2.42c-.453-.59-.74-.968-.862-1.138.666-.148 1.208-.354 1.623-.625a2.73 2.73 0 0 0 .953-1.002c.217-.405.328-.813.328-1.217 0-.44-.116-.843-.35-1.217a1.99 1.99 0 0 0-.988-.807c-.426-.163-1.105-.245-2.033-.245-.12 0-.56.014-1.32.043-.583.018-1.012.029-1.292.029l-1.398-.036c-.389-.011-.679-.016-.869-.022v.467c.578.01.93.035 1.053.075a.493.493 0 0 1 .272.192c.054.084.089.358.103.818.014.635.024 1.28.024 1.938v3.38c-.015 1.28-.025 1.97-.029 2.072-.015.375-.05.61-.11.707-.048.074-.143.116-.261.17a.668.668 0 0 1-.181.042c-.152-.009-.26-.028-.347-.079a.837.837 0 0 1-.303-.335c-.166-.304-.502-1.048-1.008-2.233l-3.113-7.315h-.472a276.872 276.872 0 0 1-1.28 3.02L7.33 17.389c-.544 1.186-.86 1.868-.948 2.05-.15.316-.264.511-.346.585a.61.61 0 0 1-.261.153c-.096.028-.336.044-.72.05v.495c.56-.043 1.075-.066 1.547-.066.406 0 1.023.023 1.845.066v-.496c-.451-.005-.77-.026-.948-.068a.419.419 0 0 1-.248-.13.24.24 0 0 1-.058-.167c0-.157.069-.399.21-.736l.797-1.874h4.223l.896 2.23c.069.17.103.308.103.415a.256.256 0 0 1-.063.174c-.041.045-.12.078-.236.104-.118.026-.448.042-.992.052v.496h6.934v-.467c-.574-.01-.925-.037-1.05-.078a.461.461 0 0 1-.272-.19c-.058-.09-.09-.364-.1-.823-.02-.63-.03-1.273-.03-1.936v-3.24c.03-1.347.046-2.053.052-2.123.01-.227.024-.474.041-.736a4.901 4.901 0 0 1 1.475-.226c.798 0 1.393.176 1.787.529.393.353.59.826.59 1.425 0 .688-.228 1.24-.685 1.655-.457.421-1.127.63-2.013.63-.131 0-.324-.008-.576-.022l-.075.218c.465.531.95 1.12 1.46 1.774.32.394.682.883 1.096 1.473.743 1.06 1.271 1.77 1.59 2.137.417-.03.77-.043 1.055-.043.278 0 .603.013.97.043v-.467c-.247 0-.407-.012-.479-.037M5.23 10.227a50.81 50.81 0 0 1-2.608.073c-.894 0-1.76-.029-2.622-.073v.448c1.43.073 1.414.177 1.414 1.341v6.462l.001.456c0 1.165.016 1.271-1.414 1.344v.446a31.11 31.11 0 0 1 2.1-.078c.73 0 1.43.033 2.146.078v-.446c-1.414-.073-1.416-.177-1.416-1.3v-6.962c0-.464 0-.776.087-1.028.478-.089.97-.211 1.477-.211 1.49 0 2.428.716 2.428 2.265 0 1.267-.938 2.192-2.16 2.149a4.815 4.815 0 0 1-.955-.135l.165.551c.21.06.567.106.97.09 1.861-.074 3.47-1.297 3.47-3.162 0-1.683-1.639-2.308-3.083-2.308" fill="#067aa4"/><path d="M88.319 25.55l-.897-2.139-.898 2.14zm1.127.99c.093.23.186.467.366.64.08.07.23.114.395.12v.218a12.869 12.869 0 0 0-1.908 0V27.3c.184-.007.38-.015.536-.1.1-.05.109-.167.051-.294l-.438-1.048h-2.037c-.087.194-.481 1.048-.481 1.204 0 .238.351.202.61.238v.217a9.612 9.612 0 0 0-1.65 0V27.3c.401-.077.45-.015.624-.387l.352-.74.967-2.167c.23-.51.466-1.033.654-1.55h.23l1.729 4.083m5.689.231v-3.566c0-.417-.128-.48-.566-.48l-.115-.008V22.5c.287.022.575.036.862.036.288 0 .574-.014.855-.036v.216l-.116.008c-.451 0-.589.063-.589.48v4.155l.022.267-.566-.1-3.468-4.214v3.5c0 .418.138.482.59.482l.115.007v.217a10.28 10.28 0 0 0-1.718 0V27.3l.117-.007c.438 0 .567-.064.567-.482v-3.608c0-.417-.115-.48-.515-.488h-.102V22.5c.209.022.407.036.623.036.21 0 .41-.014.617-.036l3.387 4.27m2.678-.23c0 .21 0 .423.028.612.201.027.419.042.676.048 1.83.05 2.447-.967 2.447-2.281 0-1.516-.933-2.095-2.166-2.095-.319 0-.632.028-.957.043a4.577 4.577 0 0 0-.028.61zm-.674-3.093c0-.675-.064-.717-.632-.723V22.5c.462.022.917.036 1.392.036.475 0 .933-.014 1.392-.036 1.335-.015 2.426.812 2.426 2.204 0 1.73-1.326 2.928-3.049 2.814a12.895 12.895 0 0 0-1.91 0V27.3c.258-.051.38-.122.38-.429v-3.425m9.811 4.126h-.144l-2-4.21v3.45c0 .418.135.482.586.482l.116.007v.217a10.336 10.336 0 0 0-1.717 0V27.3l.116-.007c.438 0 .567-.064.567-.482v-3.608c0-.417-.129-.48-.567-.48l-.116-.008V22.5a7 7 0 0 0 .683.036c.23 0 .46-.014.68-.036l1.897 3.997 1.477-3.042c.158-.33.296-.638.388-.955.221.022.452.036.682.036.229 0 .46-.014.682-.036v.216h-.108c-.43.008-.56.071-.56.488v3.45c0 .562-.007.611.683.647v.217a13.92 13.92 0 0 0-2.046 0V27.3c.688-.036.681-.085.681-.648v-3.291l-1.98 4.21m7.053-2.021l-.896-2.139-.896 2.14zm1.129.99c.092.23.185.467.365.64.077.07.23.114.395.12v.218a12.854 12.854 0 0 0-1.91 0V27.3c.187-.007.381-.015.538-.1.101-.05.11-.167.051-.294l-.438-1.048h-2.039c-.085.194-.478 1.048-.478 1.204 0 .238.351.202.609.238v.217a9.62 9.62 0 0 0-1.651 0V27.3c.402-.077.452-.015.623-.387l.354-.74.969-2.167c.226-.51.464-1.033.651-1.55h.23l1.73 4.083m3.875-2.833c0-.274 0-.459-.072-.576-.193-.3-.704-.414-1.04-.414-.589 0-1.09.409-1.09 1.026 0 1.557 2.854.265 2.854 2.066 0 1.226-1.098 1.818-2.167 1.818-.43 0-.831-.108-1.226-.275.028-.273.042-.616.05-.897v-.202h.244v.338c0 .16.014.295.1.373.287.253.746.33 1.111.33.647 0 1.278-.38 1.278-1.09 0-1.737-2.841-.115-2.841-2.202 0-.984.833-1.61 1.759-1.61.488 0 .938.16 1.392.333-.022.112-.052.229-.058.343-.013.214-.043.423-.05.64h-.244m3.769-.001c0-.274 0-.459-.073-.576-.193-.3-.703-.414-1.04-.414-.59 0-1.091.409-1.091 1.026 0 1.557 2.857.265 2.857 2.066 0 1.226-1.1 1.818-2.169 1.818-.43 0-.833-.108-1.226-.275.028-.273.042-.616.048-.897v-.202h.245v.338c0 .16.016.295.1.373.288.253.746.33 1.112.33.647 0 1.278-.38 1.278-1.09 0-1.737-2.842-.115-2.842-2.202 0-.984.834-1.61 1.76-1.61.488 0 .939.16 1.391.333-.021.112-.051.229-.058.343-.013.214-.044.423-.049.64h-.243m4.346 1.843l-.895-2.139-.899 2.14zm1.127.99c.095.23.188.467.367.64.08.07.23.114.394.12v.218a12.83 12.83 0 0 0-1.907 0V27.3c.185-.007.378-.015.537-.1.1-.05.108-.167.052-.294l-.44-1.048h-2.037c-.088.194-.482 1.048-.482 1.204 0 .238.353.202.61.238v.217a9.596 9.596 0 0 0-1.649 0V27.3c.401-.077.45-.015.625-.387l.35-.74.968-2.167c.23-.51.467-1.033.654-1.55h.23l1.728 4.083m5.608.661c-.456.258-1.173.426-1.626.426-1.586 0-2.906-.935-2.906-2.637 0-1.664 1.344-2.598 2.763-2.598.633 0 1.263.153 1.867.325-.07.358-.114.716-.158 1.075h-.21c-.02-.458.095-.625-.327-.83a2.491 2.491 0 0 0-1.156-.267c-1.185 0-2.003.838-2.003 2.139 0 1.435.932 2.424 2.375 2.424.518 0 1.026-.164 1.455-.45l.066.07-.14.323m5.502-.547c0 .563-.008.612.679.648v.217a13.98 13.98 0 0 0-2.044 0V27.3c.69-.036.683-.085.683-.648V24.99H135.8v1.664c0 .563-.004.612.683.648v.217a13.999 13.999 0 0 0-2.044 0V27.3c.688-.036.683-.085.683-.648v-3.291c0-.56.005-.61-.683-.646V22.5a14.628 14.628 0 0 0 2.044 0v.216c-.687.036-.683.086-.683.646v1.328h2.874v-1.328c0-.56.008-.61-.683-.646V22.5a14.61 14.61 0 0 0 2.044 0v.216c-.687.036-.679.086-.679.646v3.291m2.347-.789c-.044 1.021.532 1.315 1.472 1.315.437 0 .96-.116 1.218-.496.224-.321.287-.759.287-1.199v-2.28c0-.417-.128-.48-.565-.48l-.115-.008V22.5c.287.022.573.036.86.036.288 0 .575-.014.856-.036v.216l-.117.008c-.451 0-.586.063-.586.48v2.647c0 .396-.101.703-.318 1.047-.143.232-.49.49-.744.574a3.438 3.438 0 0 1-.97.154c-.653 0-1.434-.1-1.781-.741-.179-.324-.179-.58-.179-.94v-2.583c0-.56.007-.61-.68-.646V22.5a14.488 14.488 0 0 0 2.044 0v.216c-.69.036-.682.086-.682.646v2.502m7.062-2.158c0-.274 0-.459-.07-.576-.195-.3-.706-.414-1.044-.414-.588 0-1.091.409-1.091 1.026 0 1.557 2.857.265 2.857 2.066 0 1.226-1.097 1.818-2.165 1.818-.432 0-.835-.108-1.228-.275.03-.273.041-.616.05-.897v-.202h.243v.338c0 .16.014.295.1.373.288.253.747.33 1.114.33.646 0 1.276-.38 1.276-1.09 0-1.737-2.84-.115-2.84-2.202 0-.984.83-1.61 1.757-1.61.487 0 .94.16 1.39.333-.02.112-.049.229-.054.343-.016.214-.044.423-.052.64h-.243m2.363 2.826c0 .258.005.43.033.619.266.032.631.032.978.032.385 0 .782-.013 1.153-.12.036-.108.072-.236.088-.367l.063-.393h.237c-.03.15-.07.35-.07.581v.596c-.266.037-.749.027-1.193.037a23.334 23.334 0 0 0-2.589 0V27.3c.357-.015.615-.165.615-.648v-3.291c0-.56.008-.61-.68-.646V22.5c.434.022.87.036 1.313.036.445 0 .883-.014 1.312-.036.453.007.948 0 1.19.036a2.333 2.333 0 0 0-.111.697c0 .151-.024.272-.024.423h-.219c-.01-.281-.055-.482-.101-.703-.347-.107-.711-.123-1.071-.123-.317 0-.653 0-.89.037a3.676 3.676 0 0 0-.034.595v1.342c1.563.013 1.661.102 1.672-.604h.233v1.659h-.233c0-.81-.053-.77-1.672-.711v1.385m4.684-2.95c-.007-.27-.007-.503-.028-.716l-1.107.034c-.149.007-.237.03-.25.216-.031.172-.072.36-.08.552h-.214c0-.137 0-.266-.008-.402-.005-.25-.013-.502-.037-.767.683.022 1.365.036 2.065.036.702 0 1.38-.014 2.076-.036-.021.265-.026.517-.036.767-.008.136-.008.265-.008.402h-.213c-.008-.193-.053-.38-.079-.552-.016-.185-.098-.209-.253-.216l-1.119-.034c-.021.213-.021.445-.026.716v3.07c0 .563-.008.612.68.648v.217a13.914 13.914 0 0 0-2.044 0V27.3c.686-.036.681-.085.681-.648v-3.07m4.401.001c-.01-.27-.01-.503-.03-.716l-1.107.034c-.15.007-.235.03-.25.216-.029.172-.074.36-.08.552h-.215c0-.137 0-.266-.007-.402-.008-.25-.013-.502-.035-.767.68.022 1.363.036 2.066.036.696 0 1.38-.014 2.076-.036-.024.265-.03.517-.038.767-.008.136-.008.265-.008.402h-.216c-.008-.193-.049-.38-.077-.552-.013-.185-.099-.209-.25-.216l-1.12-.034c-.023.213-.023.445-.029.716v3.07c0 .563-.008.612.683.648v.217a14.055 14.055 0 0 0-2.048 0V27.3c.688-.036.685-.085.685-.648v-3.07m5.5.124c0-.274 0-.459-.07-.576-.192-.3-.703-.414-1.042-.414-.588 0-1.09.409-1.09 1.026 0 1.557 2.856.265 2.856 2.066 0 1.226-1.096 1.818-2.167 1.818-.43 0-.833-.108-1.227-.275.03-.273.043-.616.051-.897v-.202h.244v.338c0 .16.016.295.099.373.289.253.745.33 1.114.33.647 0 1.276-.38 1.276-1.09 0-1.737-2.844-.115-2.844-2.202 0-.984.834-1.61 1.762-1.61.486 0 .94.16 1.393.333-.024.112-.052.229-.057.343-.016.214-.044.423-.052.64h-.246m7.795 1.829v.18c-.35.056-.287.409-.265.867l.028.674c-.112.029-.222.065-.336.094-.454.138-1.091.275-1.566.275-1.598 0-2.893-.835-2.893-2.607 0-1.629 1.221-2.628 2.943-2.628.633 0 1.264.153 1.868.325-.074.358-.115.716-.159 1.075h-.21c-.02-.458.095-.625-.33-.83a2.465 2.465 0 0 0-1.153-.267c-1.378 0-2.188.889-2.188 2.158 0 1.444.832 2.463 2.31 2.463.55 0 .954-.107 1.011-.287.065-.216.02-.997.008-1.112-.021-.15-.308-.144-.819-.164v-.216h1.751m1.839.997c0 .258.008.43.036.619a9.1 9.1 0 0 0 .974.032c.388 0 .783-.013 1.156-.12.036-.108.072-.236.083-.367l.065-.393h.238c-.03.15-.071.35-.071.581v.596c-.265.037-.747.027-1.192.037a23.26 23.26 0 0 0-2.59 0V27.3c.36-.015.618-.165.618-.648v-3.291c0-.56.008-.61-.683-.646V22.5c.438.022.871.036 1.314.036.448 0 .882-.014 1.312-.036.456.007.95 0 1.193.036a2.426 2.426 0 0 0-.115.697c0 .151-.024.272-.024.423h-.218a3.4 3.4 0 0 0-.102-.703c-.344-.107-.71-.123-1.07-.123-.315 0-.651 0-.888.037a3.642 3.642 0 0 0-.036.595v1.342c1.562.013 1.661.102 1.669-.604h.239v1.659h-.239c0-.81-.047-.77-1.67-.711v1.385m7.604.237v-3.566c0-.417-.127-.48-.565-.48l-.114-.008V22.5c.286.022.573.036.862.036a11 11 0 0 0 .854-.036v.216l-.118.008c-.45 0-.588.063-.588.48v4.155l.024.267-.568-.1-3.466-4.214v3.5c0 .418.136.482.589.482l.113.007v.217a10.263 10.263 0 0 0-1.713 0V27.3l.112-.007c.44 0 .568-.064.568-.482v-3.608c0-.417-.115-.48-.516-.488h-.101V22.5c.208.022.412.036.625.036.208 0 .41-.014.617-.036l3.386 4.27m2.742-.237c0 .258.007.43.039.619a9.1 9.1 0 0 0 .973.032c.388 0 .782-.013 1.156-.12.035-.108.074-.236.087-.367l.065-.393h.235c-.03.15-.07.35-.07.581v.596c-.266.037-.749.027-1.191.037a23.443 23.443 0 0 0-2.594 0V27.3c.359-.015.618-.165.618-.648v-3.291c0-.56.01-.61-.68-.646V22.5c.437.022.866.036 1.312.036.445 0 .884-.014 1.313-.036.453.007.948 0 1.192.036-.08.236-.11.466-.115.697 0 .151-.02.272-.02.423h-.224a3.229 3.229 0 0 0-.101-.703c-.344-.107-.71-.123-1.068-.123-.317 0-.656 0-.888.037a3.217 3.217 0 0 0-.039.595v1.342c1.564.013 1.667.102 1.671-.604h.237v1.659h-.237c0-.81-.05-.77-1.67-.711v1.385m3.702-3.171c0-.56.01-.61-.68-.646V22.5a22.3 22.3 0 0 0 1.24.036c.424 0 .841-.014 1.255-.036.992-.05 1.45.488 1.45 1.09 0 .783-.702 1.25-1.398 1.386l1.628 2.125c.114.136.265.178.409.2v.217a3.32 3.32 0 0 0-.975 0c-.114-.153-.194-.281-.294-.403l-1.708-2.196.029-.107c.221.013.445.005.659-.031.502-.086.934-.473.934-1.003 0-.776-.576-1.006-1.106-1.006a2.7 2.7 0 0 0-.716.095c-.044.12-.044.273-.044.495v3.291c0 .563-.008.612.681.648v.217a13.924 13.924 0 0 0-2.044 0V27.3c.69-.036.68-.085.68-.648v-3.291m7.464 2.189l-.896-2.139-.899 2.14zm1.127.99c.094.23.188.467.365.64.08.07.23.114.396.12v.218a12.818 12.818 0 0 0-1.91 0V27.3c.186-.007.38-.015.54-.1.098-.05.106-.167.049-.294l-.438-1.048h-2.038c-.087.194-.482 1.048-.482 1.204 0 .238.351.202.612.238v.217a9.692 9.692 0 0 0-1.654 0V27.3c.404-.077.456-.015.625-.387l.355-.74.965-2.167c.23-.51.47-1.033.656-1.55h.23l1.729 4.083m2.469.346l.02.267c.3.032.67.032 1.013.032.386 0 .782-.013 1.154-.12.029-.063.05-.143.073-.231l.164-.6.232.014c-.021.099-.044.286-.073.482l-.078.752c-.232.037-.69.027-1.114.037a21.06 21.06 0 0 0-2.462 0V27.3c.339-.057.388-.267.388-.84v-3.1c0-.56.008-.609-.68-.645V22.5a14.488 14.488 0 0 0 2.046 0v.216c-.691.036-.683.086-.683.646v3.523m9.729-.232c0 .563-.008.612.684.648v.217a13.924 13.924 0 0 0-2.047 0V27.3c.689-.036.683-.085.683-.648V24.99h-2.872v1.664c0 .563-.005.612.682.648v.217a13.924 13.924 0 0 0-2.044 0V27.3c.69-.036.682-.085.682-.648v-3.291c0-.56.008-.61-.682-.646V22.5a14.549 14.549 0 0 0 2.044 0v.216c-.687.036-.682.086-.682.646v1.328h2.872v-1.328c0-.56.006-.61-.682-.646V22.5a14.549 14.549 0 0 0 2.046 0v.216c-.692.036-.684.086-.684.646v3.291m5.583-1.583c0-1.422-.637-2.37-1.973-2.37-1.248 0-1.814.87-1.814 2.047 0 1.255.587 2.568 2.008 2.568 1.199-.078 1.779-.927 1.779-2.245zm.77-.224a2.751 2.751 0 0 1-2.78 2.78c-1.455 0-2.545-1.007-2.545-2.643 0-1.463 1.035-2.613 2.699-2.592 1.536 0 2.627.864 2.627 2.455m3.114-1.14c0-.274 0-.459-.074-.576-.194-.3-.704-.414-1.04-.414-.586 0-1.091.409-1.091 1.026 0 1.557 2.857.265 2.857 2.066 0 1.226-1.1 1.818-2.166 1.818-.431 0-.834-.108-1.227-.275.028-.273.041-.616.052-.897v-.202h.239v.338c0 .16.016.295.102.373.288.253.747.33 1.114.33.644 0 1.276-.38 1.276-1.09 0-1.737-2.843-.115-2.843-2.202 0-.984.836-1.61 1.76-1.61.487 0 .94.16 1.39.333-.02.112-.049.229-.054.343-.016.214-.044.423-.052.64h-.243m1.677-.345c0-.56.006-.61-.68-.646V22.5c.415.022.831.036 1.262.036.424 0 .84-.014 1.257-.036.695 0 1.484.302 1.484 1.113 0 .897-.776 1.484-1.672 1.522a1.601 1.601 0 0 1-.465-.045l-.081-.265c.109.027.281.057.461.065.585.022 1.041-.424 1.041-1.034 0-.744-.456-1.09-1.172-1.09-.241 0-.481.058-.71.1-.042.122-.042.274-.042.496v3.291c0 .563-.005.612.68.648v.217a13.877 13.877 0 0 0-2.043 0V27.3c.686-.036.68-.085.68-.648v-3.291m5.017 3.292c0 .563-.006.612.681.648v.217a13.943 13.943 0 0 0-2.044 0V27.3c.688-.036.683-.085.683-.648v-3.291c0-.56.005-.61-.683-.646V22.5a14.567 14.567 0 0 0 2.044 0v.216c-.687.036-.681.086-.681.646v3.291m2.718-3.07c-.005-.27-.005-.503-.029-.716l-1.104.034c-.15.007-.235.03-.25.216-.029.172-.07.36-.078.552h-.216c0-.137 0-.266-.008-.402-.008-.25-.016-.502-.036-.767.683.022 1.364.036 2.068.036.695 0 1.377-.014 2.072-.036-.02.265-.028.517-.036.767-.005.136-.005.265-.005.402h-.216c-.006-.193-.05-.38-.079-.552-.015-.185-.101-.209-.25-.216l-1.12-.034c-.023.213-.023.445-.027.716v3.07c0 .563-.008.612.678.648v.217a13.999 13.999 0 0 0-2.044 0V27.3c.691-.036.68-.085.68-.648v-3.07m6.088 1.968l-.898-2.139-.895 2.14zm1.128.99c.091.23.186.467.364.64.079.07.23.114.394.12v.218a12.762 12.762 0 0 0-1.908 0V27.3c.186-.007.38-.015.538-.1.102-.05.11-.167.05-.294l-.435-1.048h-2.041c-.087.194-.48 1.048-.48 1.204 0 .238.352.202.609.238v.217a9.527 9.527 0 0 0-1.65 0V27.3c.4-.077.453-.015.625-.387l.35-.74.97-2.167c.232-.51.466-1.033.653-1.55h.23l1.731 4.083m2.467.346l.023.267c.3.032.664.032 1.01.032.388 0 .782-.013 1.156-.12.03-.063.05-.143.071-.231l.167-.6.229.014c-.024.099-.043.286-.073.482l-.079.752c-.23.037-.69.027-1.112.037a21.027 21.027 0 0 0-2.46 0V27.3c.336-.057.385-.267.385-.84v-3.1c0-.56.011-.609-.68-.645V22.5a14.549 14.549 0 0 0 2.044 0v.216c-.689.036-.681.086-.681.646v3.523M85.867 13.975c0-.56.008-.61-.681-.646v-.215c.437.02.867.035 1.312.035.445 0 .883-.014 1.313-.035.452.006.947 0 1.192.035a2.417 2.417 0 0 0-.115.697c0 .15-.022.273-.022.422h-.221c-.009-.279-.053-.48-.1-.703-.346-.106-.713-.12-1.07-.12-.318 0-.654 0-.89.035-.022.121-.038.26-.038.467v1.47c1.566.015 1.667.1 1.674-.602h.234v1.659h-.234c0-.813-.05-.77-1.674-.711v1.506c0 .56-.005.608.683.645v.216a14.51 14.51 0 0 0-2.044 0v-.216c.689-.037.68-.085.68-.645v-3.294m7.838 1.707c0-1.42-.639-2.367-1.975-2.367-1.25 0-1.815.868-1.815 2.044 0 1.256.589 2.57 2.01 2.57 1.197-.08 1.78-.927 1.78-2.247zm.767-.221a2.748 2.748 0 0 1-2.777 2.777c-1.457 0-2.547-1.004-2.547-2.642 0-1.464 1.033-2.611 2.696-2.591 1.537 0 2.628.862 2.628 2.456m1.637 1.018c-.045 1.019.53 1.313 1.47 1.313.438 0 .963-.115 1.221-.495.22-.32.285-.761.285-1.197v-2.283c0-.417-.128-.482-.564-.482l-.116-.006v-.215c.287.02.574.035.86.035.287 0 .575-.014.855-.035v.215l-.114.006c-.454 0-.59.065-.59.482v2.649c0 .393-.099.703-.318 1.047-.141.229-.487.488-.744.572a3.394 3.394 0 0 1-.968.153c-.653 0-1.436-.1-1.78-.74-.18-.323-.18-.582-.18-.94v-2.583c0-.56.007-.61-.682-.646v-.215c.323.02.661.035 1.013.035.352 0 .689-.014 1.031-.035v.215c-.686.035-.68.086-.68.646v2.504m8.877.903v-3.565c0-.417-.13-.482-.567-.482l-.114-.006v-.215c.286.02.574.035.861.035.288 0 .573-.014.854-.035v.215l-.116.006c-.45 0-.587.065-.587.482v4.156l.02.265-.565-.1-3.466-4.214v3.503c0 .416.136.48.587.48l.114.007v.216c-.28-.023-.565-.037-.853-.037-.286 0-.574.014-.86.037v-.216l.113-.007c.439 0 .568-.064.568-.48v-3.61c0-.417-.115-.482-.517-.488h-.1v-.215c.208.02.41.035.624.035.207 0 .41-.014.616-.035l3.388 4.268m2.676-.229c0 .209 0 .425.031.61.2.03.415.044.673.05 1.83.051 2.446-.967 2.446-2.281 0-1.514-.93-2.097-2.166-2.097-.316 0-.63.03-.953.045a4.47 4.47 0 0 0-.03.61zm-.675-3.09c0-.677-.064-.72-.63-.728v-.22c.459.02.919.034 1.392.034.474 0 .933-.014 1.393-.035 1.335-.015 2.426.81 2.426 2.202 0 1.73-1.33 2.93-3.05 2.814a13.12 13.12 0 0 0-.955-.037c-.324 0-.64.014-.956.037v-.216c.26-.05.38-.122.38-.43v-3.422m6.295 3.084c0 .258.006.432.036.618.265.035.632.035.976.035.388 0 .781-.016 1.155-.122.035-.107.071-.236.086-.366l.066-.395h.237c-.03.151-.072.353-.072.582v.595c-.266.037-.748.029-1.192.037a24.504 24.504 0 0 0-1.293-.037c-.437 0-.86.014-1.298.037v-.216c.36-.013.616-.164.616-.645v-3.294c0-.56.009-.61-.682-.646v-.215c.44.02.87.035 1.314.035a27 27 0 0 0 1.315-.035c.451.006.946 0 1.19.035-.08.237-.108.468-.115.697 0 .15-.02.273-.02.422h-.224a3.138 3.138 0 0 0-.1-.703c-.345-.106-.71-.12-1.069-.12-.316 0-.653 0-.89.035-.03.178-.037.343-.037.595v1.341c1.565.016 1.667.1 1.674-.601h.237v1.659h-.237c0-.813-.052-.77-1.674-.711v1.383m4.321.007c0 .209 0 .425.03.61.2.03.414.044.672.05 1.833.051 2.45-.967 2.45-2.281 0-1.514-.936-2.097-2.17-2.097-.314 0-.63.03-.953.045a4.508 4.508 0 0 0-.028.61zm-.675-3.09c0-.677-.065-.72-.63-.728v-.22c.458.02.916.034 1.39.034.474 0 .935-.014 1.393-.035 1.336-.015 2.426.81 2.426 2.202 0 1.73-1.327 2.93-3.05 2.814a13.39 13.39 0 0 0-.955-.037c-.322 0-.64.014-.953.037v-.216c.257-.05.38-.122.38-.43v-3.422m8.038 3.702c.17.035.37.057.645.065.753 0 1.254-.474 1.254-1.24 0-.793-.501-1.101-1.42-1.101h-.479zm0-2.57c.157.022.335.03.508.03.625-.008 1.177-.251 1.177-.962 0-.69-.482-.862-1.084-.862a1.81 1.81 0 0 0-.566.08 3.2 3.2 0 0 0-.035.53zm-.683-1.22c0-.594-.13-.63-.63-.645v-.215c.4.02.81.035 1.217.035.418 0 .82-.014 1.221-.035.668 0 1.27.245 1.27 1.005 0 .651-.609 1.076-1.198 1.175.732.03 1.443.33 1.443 1.172 0 .969-.983 1.758-2.11 1.664a8.896 8.896 0 0 0-.774-.037c-.267 0-.525.014-.785.037v-.216c.305-.079.346-.237.346-.503v-3.436m6.169 1.673l.74-1.17c.274-.46.54-.905.776-1.364h.576v.107c-.605.695-1.474 1.909-1.769 2.548a1.231 1.231 0 0 0-.098.538v.962c0 .56-.006.608.682.645v.216a14.689 14.689 0 0 0-2.047 0v-.216c.69-.037.682-.085.682-.645v-1.056c0-.057 0-.142-.036-.224l-.86-1.505c-.237-.409-.675-1.112-1.183-1.055v-.208l.76-.151c.208-.034.316.088.438.237.113.152.214.302.316.466l1.024 1.875m5.476 2.116c.172.035.373.057.646.065.752 0 1.255-.474 1.255-1.24 0-.793-.503-1.101-1.419-1.101h-.482zm0-2.57c.158.022.336.03.508.03.625-.008 1.18-.251 1.18-.962 0-.69-.482-.862-1.084-.862-.195 0-.403.023-.567.08a2.875 2.875 0 0 0-.037.53zm-.679-1.22c0-.594-.13-.63-.633-.645v-.215c.401.02.812.035 1.218.035.418 0 .818-.014 1.219-.035.67 0 1.273.245 1.273 1.005 0 .651-.609 1.076-1.2 1.175.735.03 1.443.33 1.443 1.172 0 .969-.983 1.758-2.11 1.664a8.958 8.958 0 0 0-.773-.037c-.266 0-.526.014-.784.037v-.216c.302-.079.347-.237.347-.503v-3.436m4.435 0c0-.56.005-.61-.683-.646v-.215c.399.02.817.035 1.24.035.424 0 .839-.014 1.255-.035.992-.05 1.45.487 1.45 1.09 0 .783-.702 1.249-1.398 1.384l1.63 2.125c.112.136.263.18.407.2v.217a3.5 3.5 0 0 0-.488-.037c-.167 0-.323.014-.49.037-.111-.151-.191-.281-.294-.401l-1.705-2.197.028-.108c.225.016.444.008.66-.03.502-.085.932-.473.932-1.004 0-.773-.574-1.004-1.102-1.004a2.7 2.7 0 0 0-.718.094c-.043.121-.043.272-.043.495v3.294c0 .56-.007.608.68.645v.216a14.481 14.481 0 0 0-2.044 0v-.216c.688-.037.683-.085.683-.645v-3.294m5.473 3.294c0 .56-.008.608.683.645v.216a14.62 14.62 0 0 0-2.047 0v-.216c.692-.037.681-.085.681-.645v-3.294c0-.56.011-.61-.681-.646v-.215c.323.02.661.035 1.013.035.351 0 .687-.014 1.034-.035v.215c-.691.035-.683.086-.683.646v3.294m6.054-1.119v.179c-.349.056-.283.409-.262.868l.025.675c-.112.029-.218.065-.334.094-.451.135-1.09.272-1.563.272-1.604 0-2.893-.834-2.893-2.606 0-1.63 1.221-2.627 2.942-2.627.63 0 1.263.153 1.867.324a12.51 12.51 0 0 0-.159 1.074h-.208c-.024-.456.094-.622-.33-.83a2.478 2.478 0 0 0-1.156-.266c-1.382 0-2.188.889-2.188 2.161 0 1.44.83 2.461 2.309 2.461.552 0 .956-.108 1.01-.286.069-.216.025-.998.009-1.115-.022-.148-.307-.143-.815-.164v-.214h1.747m5.39 1.119c0 .56-.005.608.683.645v.216a14.542 14.542 0 0 0-2.044 0v-.216c.687-.037.679-.085.679-.645v-1.665h-2.867v1.665c0 .56-.008.608.68.645v.216a14.533 14.533 0 0 0-2.044 0v-.216c.687-.037.679-.085.679-.645v-3.294c0-.56.008-.61-.679-.646v-.215c.32.02.661.035 1.01.035.354 0 .69-.014 1.034-.035v.215c-.688.035-.68.086-.68.646v1.328h2.867v-1.328c0-.56.008-.61-.679-.646v-.215c.323.02.659.035 1.01.035s.69-.014 1.034-.035v.215c-.688.035-.683.086-.683.646v3.294m4.409-1.105l-.898-2.14-.899 2.14zm1.125.99c.094.228.188.465.365.638.08.072.232.115.396.122v.216a13.466 13.466 0 0 0-.953-.037c-.326 0-.642.014-.956.037v-.216c.185-.007.38-.013.54-.1.098-.05.106-.163.049-.295l-.437-1.045h-2.04c-.086.192-.479 1.045-.479 1.203 0 .237.348.2.61.237v.216a10.065 10.065 0 0 0-.826-.037c-.279 0-.552.014-.825.037v-.216c.4-.079.452-.013.624-.386l.352-.74.969-2.168c.228-.51.465-1.033.65-1.55h.233l1.728 4.083m4.19 1.032h-.142l-2.003-4.21v3.452c0 .416.137.48.588.48l.115.007v.216a10.727 10.727 0 0 0-.852-.037c-.288 0-.575.014-.862.037v-.216l.115-.007c.437 0 .565-.064.565-.48v-3.61c0-.417-.128-.482-.565-.482l-.115-.006v-.215c.222.02.454.035.68.035.231 0 .46-.014.682-.035l1.898 3.995 1.478-3.04c.156-.33.293-.64.385-.955.221.02.453.035.681.035.23 0 .459-.014.683-.035v.215h-.107c-.432.006-.56.07-.56.488v3.452c0 .56-.008.608.68.645l.003.216a14.533 14.533 0 0 0-2.047 0v-.216c.69-.037.682-.085.682-.645v-3.294l-1.982 4.21m8.85-2.021l-.896-2.14-.899 2.14zm1.125.99c.093.228.19.465.367.638.078.072.229.115.396.122v.216a13.511 13.511 0 0 0-.956-.037c-.323 0-.638.014-.954.037v-.216c.186-.007.378-.013.54-.1.099-.05.104-.163.05-.295l-.438-1.045h-2.04c-.085.192-.478 1.045-.478 1.203 0 .237.349.2.609.237v.216a10.117 10.117 0 0 0-.825-.037 9.77 9.77 0 0 0-.826.037v-.216c.4-.079.45-.013.624-.386l.35-.74.972-2.168c.228-.51.465-1.033.65-1.55h.232l1.727 4.083m5.692.229v-3.565c0-.417-.13-.482-.568-.482l-.115-.006v-.215c.29.02.574.035.86.035.292 0 .576-.014.858-.035v.215l-.115.006c-.45 0-.59.065-.59.482v4.156l.022.265-.568-.1-3.467-4.214v3.503c0 .416.139.48.59.48l.117.007v.216a10.807 10.807 0 0 0-.857-.037c-.287 0-.574.014-.856.037v-.216l.112-.007c.437 0 .564-.064.564-.48v-3.61c0-.417-.115-.482-.515-.488h-.103v-.215c.212.02.41.035.626.035.208 0 .409-.014.617-.035l3.388 4.268m2.675-.229c0 .209 0 .425.03.61.202.03.418.044.675.05 1.828.051 2.445-.967 2.445-2.281 0-1.514-.929-2.097-2.166-2.097-.315 0-.63.03-.954.045a4.62 4.62 0 0 0-.03.61zm-.672-3.09c0-.677-.066-.72-.634-.728v-.22c.462.02.92.034 1.394.034.474 0 .933-.014 1.39-.035 1.336-.015 2.428.81 2.428 2.202 0 1.73-1.328 2.93-3.052 2.814a13.345 13.345 0 0 0-.953-.037c-.32 0-.639.014-.953.037v-.216c.257-.05.38-.122.38-.43v-3.422m7.195-.174l-.042-.164c-.085-.331-.15-.365-.487-.389l-.073-.006v-.215c.303.02.597.035.907.035a13 13 0 0 0 .904-.035v.215c-.696-.042-.596.236-.542.51l.154.71.565 2.49.89-2.24.649-1.73h.226l.216.67 1.2 3.35.566-2.024.33-1.278c.071-.287.167-.5-.565-.458v-.215c.25.02.493.035.753.035.258 0 .5-.014.752-.035v.215c-.301.021-.35-.006-.453.272l-1.052 3.445-.281 1.112h-.364l-.511-1.479-.899-2.432-1.249 3.172-.256.74h-.359c-.06-.245-.109-.488-.166-.74l-.812-3.531m11.23 1.794c0-1.42-.637-2.367-1.973-2.367-1.248 0-1.815.868-1.815 2.044 0 1.256.588 2.57 2.01 2.57 1.198-.08 1.778-.927 1.778-2.247zm.77-.221a2.749 2.749 0 0 1-2.776 2.777c-1.456 0-2.548-1.004-2.548-2.642 0-1.464 1.032-2.611 2.698-2.591 1.536 0 2.626.862 2.626 2.456m3.429 2.724h-.144l-2-4.21v3.452c0 .416.136.48.587.48l.117.007v.216a10.794 10.794 0 0 0-.855-.037c-.289 0-.574.014-.861.037v-.216l.115-.007c.437 0 .566-.064.566-.48v-3.61c0-.417-.129-.482-.566-.482l-.115-.006v-.215c.221.02.453.035.681.035.23 0 .462-.014.68-.035l1.896 3.995 1.476-3.04a6 6 0 0 0 .388-.955c.224.02.454.035.686.035.226 0 .456-.014.68-.035v.215h-.107c-.432.006-.56.07-.56.488v3.452c0 .56-.008.608.683.645v.216a14.681 14.681 0 0 0-2.048 0v-.216c.688-.037.682-.085.682-.645v-3.294l-1.981 4.21m5.068-1.039c0 .258.007.432.036.618.263.035.63.035.973.035.388 0 .782-.016 1.158-.122.036-.107.069-.236.088-.366l.062-.395h.238c-.03.151-.071.353-.071.582v.595c-.268.037-.748.029-1.193.037a24.412 24.412 0 0 0-1.291-.037c-.437 0-.863.014-1.3.037v-.216c.36-.013.617-.164.617-.645v-3.294c0-.56.006-.61-.68-.646v-.215c.438.02.866.035 1.314.035.445 0 .882-.014 1.312-.035.45.006.945 0 1.189.035a2.438 2.438 0 0 0-.113.697c0 .15-.022.273-.022.422h-.221a3.438 3.438 0 0 0-.101-.703c-.344-.106-.71-.12-1.071-.12-.315 0-.65 0-.888.035a3.42 3.42 0 0 0-.036.595v1.341c1.564.016 1.664.1 1.672-.601h.236v1.659h-.236c0-.813-.05-.77-1.672-.711v1.383m7.607.236v-3.565c0-.417-.128-.482-.568-.482l-.115-.006v-.215c.287.02.573.035.86.035.29 0 .577-.014.856-.035v.215l-.115.006c-.45 0-.588.065-.588.482v4.156l.02.265-.566-.1-3.467-4.214v3.503c0 .416.139.48.588.48l.115.007v.216a10.653 10.653 0 0 0-.854-.037c-.286 0-.573.014-.86.037v-.216l.112-.007c.44 0 .568-.064.568-.48v-3.61c0-.417-.112-.482-.516-.488h-.101v-.215c.208.02.412.035.625.035.208 0 .408-.014.618-.035l3.388 4.268M220.75 15l-.107-.07c.316-.488.524-1.042.56-1.601.18-.042.349-.1.516-.158l.18-.057.093.091a6.18 6.18 0 0 1-.927 1.623l-.314.172m4.684-.68c0-.274 0-.458-.071-.576-.192-.3-.7-.415-1.039-.415-.59 0-1.09.41-1.09 1.027 0 1.556 2.853.264 2.853 2.065 0 1.23-1.096 1.817-2.167 1.817-.429 0-.833-.108-1.226-.272.029-.275.045-.617.053-.899v-.2h.241v.336c0 .159.014.295.099.375.29.25.748.329 1.115.329.646 0 1.278-.379 1.278-1.09 0-1.737-2.841-.116-2.841-2.203 0-.984.832-1.61 1.756-1.61.487 0 .94.16 1.393.331-.021.115-.049.23-.057.347-.016.212-.044.422-.052.638h-.245m7.71 2.949c0 .56-.006.608.68.645v.216a14.62 14.62 0 0 0-2.044 0v-.216c.688-.037.68-.085.68-.645v-1.665h-2.87v1.665c0 .56-.006.608.682.645v.216a14.62 14.62 0 0 0-2.044 0v-.216c.69-.037.683-.085.683-.645v-3.294c0-.56.007-.61-.683-.646v-.215c.323.02.662.035 1.014.035.348 0 .686-.014 1.03-.035v.215c-.688.035-.682.086-.682.646v1.328h2.87v-1.328c0-.56.008-.61-.68-.646v-.215c.323.02.662.035 1.014.035.35 0 .686-.014 1.03-.035v.215c-.686.035-.68.086-.68.646v3.294m5.582-1.587c0-1.42-.639-2.367-1.972-2.367-1.25 0-1.818.868-1.818 2.044 0 1.256.59 2.57 2.011 2.57 1.197-.08 1.779-.927 1.779-2.247zm.768-.221a2.748 2.748 0 0 1-2.776 2.777c-1.459 0-2.547-1.004-2.547-2.642 0-1.464 1.03-2.611 2.697-2.591 1.535 0 2.626.862 2.626 2.456m3.115-1.141c0-.274 0-.458-.071-.576-.195-.3-.706-.415-1.042-.415-.588 0-1.09.41-1.09 1.027 0 1.556 2.856.264 2.856 2.065 0 1.23-1.096 1.817-2.167 1.817-.432 0-.833-.108-1.23-.272.033-.275.046-.617.051-.899v-.2h.247v.336c0 .159.013.295.099.375.286.25.748.329 1.114.329.644 0 1.274-.379 1.274-1.09 0-1.737-2.842-.116-2.842-2.203 0-.984.834-1.61 1.762-1.61.486 0 .937.16 1.39.331-.021.115-.049.23-.057.347-.013.212-.043.422-.05.638h-.245m1.681-.345c0-.56.007-.61-.68-.646v-.215c.414.02.83.035 1.262.035.42 0 .839-.014 1.253-.035.695 0 1.487.3 1.487 1.112 0 .896-.776 1.485-1.672 1.52a1.554 1.554 0 0 1-.467-.042l-.08-.264c.107.028.282.057.462.062.588.024 1.038-.422 1.038-1.034 0-.744-.45-1.088-1.169-1.088-.243 0-.481.055-.71.1-.042.121-.042.272-.042.495v3.294c0 .56-.008.608.681.645v.216a14.463 14.463 0 0 0-2.044 0v-.216c.688-.037.68-.085.68-.645v-3.294m5.018 3.294c0 .56-.007.608.68.645v.216a14.481 14.481 0 0 0-2.044 0v-.216c.688-.037.68-.085.68-.645v-3.294c0-.56.008-.61-.68-.646v-.215c.32.02.658.035 1.01.035.354 0 .69-.014 1.034-.035v.215c-.687.035-.68.086-.68.646v3.294m2.72-3.073c-.008-.272-.008-.501-.032-.716l-1.102.035c-.153.007-.237.03-.253.216-.028.17-.07.359-.08.552h-.213c0-.137 0-.265-.008-.4a17.323 17.323 0 0 0-.036-.769c.681.02 1.364.035 2.066.035.696 0 1.379-.014 2.074-.035a12.78 12.78 0 0 0-.034.768c-.01.136-.01.264-.01.401h-.214c-.005-.193-.049-.381-.081-.552-.013-.186-.099-.209-.247-.216l-1.122-.035c-.022.215-.022.444-.03.716v3.073c0 .56-.005.608.683.645v.216a14.681 14.681 0 0 0-2.047 0v-.216c.69-.037.686-.085.686-.645v-3.073m6.083 1.968l-.897-2.14-.898 2.14zm1.127.99c.094.228.184.465.364.638.079.072.232.115.396.122v.216c-.317-.023-.63-.037-.953-.037-.323 0-.64.014-.956.037v-.216c.188-.007.381-.013.54-.1.101-.05.107-.163.05-.295l-.438-1.045h-2.04c-.085.192-.479 1.045-.479 1.203 0 .237.355.2.61.237v.216a10.012 10.012 0 0 0-.826-.037c-.278 0-.552.014-.825.037v-.216c.404-.079.453-.013.625-.386l.351-.74.97-2.168c.231-.51.465-1.033.653-1.55h.229l1.73 4.083m2.467.345l.024.266c.299.035.664.035 1.008.035.391 0 .784-.016 1.159-.122.025-.064.05-.144.07-.228l.165-.603.229.013c-.021.102-.04.287-.07.482l-.08.752c-.229.037-.689.029-1.111.037a22.132 22.132 0 0 0-1.23-.037c-.416 0-.817.014-1.233.037v-.216c.337-.058.39-.263.39-.839v-3.1c0-.56.005-.61-.682-.646v-.215c.32.02.659.035 1.01.035s.69-.014 1.034-.035v.215c-.69.035-.683.086-.683.646v3.523M78.71 32.093h-.556V3.88h.556v28.214" fill="#424a52"/></svg>