<svg id="Layer_1" data-name="Layer 1" xmlns="http://www.w3.org/2000/svg" viewBox="0 0 593.87 179.48"><defs><style>.cls-1{fill:#323e48}.cls-2{fill:#007297}</style></defs><path class="cls-1" d="M62.71 198.64a6 6 0 001.21 2.12 2.15 2.15 0 001.31.4v.73c-1-.08-2.09-.13-3.17-.13s-2.11.05-3.16.13v-.73a4 4 0 001.79-.33c.33-.17.35-.54.16-1l-1.45-3.48h-6.75a27.54 27.54 0 00-1.6 4c0 .78 1.17.67 2 .78v.73c-.91-.08-1.81-.13-2.74-.13s-1.83.05-2.74.13v-.73c1.34-.26 1.5 0 2.08-1.28l1.16-2.45 3.21-7.18c.76-1.7 1.55-3.43 2.16-5.14H57zM59 195.37l-3-7.1-3 7.1zm22.57 4.03v-11.82c0-1.38-.43-1.59-1.88-1.59h-.38v-.72q1.43.12 2.85.12c1 0 1.91 0 2.84-.12v.73h-.39c-1.5 0-2 .21-2 1.59v13.78l.08.88-1.88-.34-11.49-14v11.61c0 1.38.45 1.59 1.95 1.59h.38v.73c-.93-.08-1.88-.13-2.83-.13s-1.9.05-2.86.13v-.73h.38c1.46 0 1.88-.21 1.88-1.59v-12c0-1.38-.38-1.59-1.71-1.61h-.33v-.72a17.66 17.66 0 004.11 0zm6.63-11.01c0-2.23-.21-2.37-2.09-2.4v-.74c1.52.08 3 .12 4.62.12s3.09 0 4.62-.12c4.42 0 8 2.69 8 7.3a9.12 9.12 0 01-10.11 9.34c-1-.08-2.09-.13-3.16-.13s-2.12.05-3.17.13v-.73c.86-.16 1.26-.4 1.26-1.42zm2.24 10.25a14.59 14.59 0 00.09 2 20.11 20.11 0 002.24.17c6.07.17 8.11-3.21 8.11-7.56 0-5-3.09-7-7.18-7-1 0-2.09.09-3.17.15a18.06 18.06 0 00-.09 2zm30.28 3.43h-.48l-6.63-14v11.44c0 1.38.45 1.59 2 1.59h.38v.73c-.92-.08-1.88-.13-2.83-.13s-1.91.05-2.86.13v-.73h.38c1.46 0 1.88-.21 1.88-1.59v-12c0-1.38-.42-1.59-1.88-1.59h-.38v-.72a21.34 21.34 0 004.52 0l6.28 13.25 4.9-10.08a21.13 21.13 0 001.29-3.17 21.34 21.34 0 004.52 0v.8h-.36c-1.43 0-1.86.23-1.86 1.61V199c0 1.86 0 2 2.26 2.14v.73c-1.14-.08-2.26-.13-3.42-.13s-2.28.05-3.35.13v-.73c2.28-.11 2.26-.28 2.26-2.14v-10.89zm27.12-3.43a5.67 5.67 0 001.21 2.12 2.15 2.15 0 001.31.4v.73c-1.05-.08-2.09-.13-3.17-.13s-2.11.05-3.16.13v-.73a4 4 0 001.79-.33c.33-.17.35-.54.16-1l-1.45-3.48h-6.75a27.54 27.54 0 00-1.6 4c0 .78 1.16.67 2 .78v.73c-.9-.08-1.81-.13-2.73-.13s-1.84.05-2.74.13v-.73c1.33-.26 1.5 0 2.07-1.28l1.16-2.45 3.21-7.18c.77-1.7 1.56-3.43 2.17-5.14h.76zm-3.74-3.27l-3-7.1-3 7.1zm16.58-6.12a4.1 4.1 0 00-.23-1.9c-.65-1-2.34-1.38-3.46-1.38a3.43 3.43 0 00-3.61 3.4c0 5.16 9.47.88 9.47 6.85 0 4.07-3.64 6-7.19 6a10.23 10.23 0 01-4.07-.91c.1-.9.14-2 .17-3v-.68h.81v1.12a1.64 1.64 0 00.33 1.24 5.84 5.84 0 003.69 1.09c2.14 0 4.23-1.26 4.23-3.61 0-5.76-9.42-.38-9.42-7.3 0-3.27 2.76-5.33 5.83-5.33a12.9 12.9 0 014.61 1.09 11.29 11.29 0 00-.19 1.14c0 .72-.14 1.41-.16 2.12zm12.48 0a4.1 4.1 0 00-.23-1.9c-.64-1-2.33-1.38-3.45-1.38a3.44 3.44 0 00-3.62 3.4c0 5.16 9.47.88 9.47 6.85 0 4.07-3.64 6-7.18 6a10.23 10.23 0 01-4.07-.91c.1-.9.14-2 .16-3v-.68h.82v1.12a1.64 1.64 0 00.33 1.24 5.81 5.81 0 003.68 1.09c2.15 0 4.24-1.26 4.24-3.61 0-5.76-9.42-.38-9.42-7.3 0-3.27 2.76-5.33 5.83-5.33a13.06 13.06 0 014.62 1.09 7.57 7.57 0 00-.2 1.14c0 .72-.14 1.41-.16 2.12zm18.16 9.39a5.8 5.8 0 001.21 2.12 2.15 2.15 0 001.31.4v.73c-1.05-.08-2.1-.13-3.17-.13s-2.11.05-3.16.13v-.73a3.9 3.9 0 001.78-.33c.34-.17.36-.54.17-1l-1.46-3.45h-6.76a27.43 27.43 0 00-1.59 4c0 .78 1.17.67 2 .78v.73c-.9-.08-1.8-.13-2.73-.13s-1.83.05-2.74.13v-.73c1.34-.26 1.5 0 2.07-1.28l1.17-2.45 3.2-7.18c.77-1.7 1.55-3.43 2.17-5.14h.76zm-3.74-3.27l-3-7.1-3 7.1zm22.33 5.46a12.69 12.69 0 01-5.4 1.41c-5.25 0-9.63-3.1-9.63-8.74s4.45-8.6 9.16-8.6a23 23 0 016.21 1.07c-.24 1.19-.39 2.38-.52 3.57H209c-.08-1.53.3-2.07-1.11-2.77a8.21 8.21 0 00-3.84-.88c-3.92 0-6.64 2.78-6.64 7.1 0 4.76 3.09 8 7.87 8a8.76 8.76 0 004.86-1.5l.21.24zm18.25-1.83c0 1.86 0 2 2.25 2.14v.73c-1.13-.08-2.25-.13-3.42-.13s-2.28.05-3.35.13v-.73c2.28-.11 2.26-.28 2.26-2.14v-5.5h-9.52v5.5c0 1.86 0 2 2.26 2.14v.73c-1.14-.08-2.26-.13-3.42-.13s-2.28.05-3.36.13v-.73c2.29-.11 2.26-.28 2.26-2.14v-10.89c0-1.86 0-2-2.26-2.14v-.72c1.08.08 2.19.12 3.36.12s2.28 0 3.42-.12v.75c-2.28.11-2.26.28-2.26 2.14v4.4h9.52v-4.4c0-1.86 0-2-2.26-2.14v-.72c1.07.08 2.19.12 3.35.12s2.29 0 3.42-.12v.72c-2.28.11-2.25.28-2.25 2.14zm7.77-2.6c-.14 3.38 1.76 4.36 4.88 4.36 1.45 0 3.19-.38 4-1.64a7 7 0 001-4v-7.57c0-1.38-.43-1.59-1.88-1.59h-.39v-.72c1 .08 1.91.12 2.86.12s1.9 0 2.83-.12v.76h-.38c-1.5 0-1.95.21-1.95 1.59v8.78a6.15 6.15 0 01-1.05 3.47 5.42 5.42 0 01-2.47 1.91 11.32 11.32 0 01-3.21.5c-2.17 0-4.76-.34-5.9-2.46a5.66 5.66 0 01-.59-3.11v-8.56c0-1.86 0-2-2.27-2.14v-.72q1.6.12 3.36.12c1.16 0 2.28 0 3.43-.12v.74c-2.29.11-2.27.28-2.27 2.14zm23.41-7.15a4 4 0 00-.24-1.9c-.64-1-2.33-1.38-3.45-1.38a3.43 3.43 0 00-3.61 3.4c0 5.16 9.46.88 9.46 6.85 0 4.07-3.64 6-7.18 6a10.23 10.23 0 01-4.07-.91c.1-.9.15-2 .17-3v-.68h.81v1.12a1.69 1.69 0 00.33 1.24 5.82 5.82 0 003.69 1.09c2.14 0 4.23-1.26 4.23-3.61 0-5.76-9.42-.38-9.42-7.3 0-3.27 2.76-5.33 5.83-5.33a13 13 0 014.61 1.16 11.29 11.29 0 00-.19 1.14c0 .72-.14 1.41-.16 2.12zm7.83 9.38a13.31 13.31 0 00.11 2 27 27 0 003.24.12 13.71 13.71 0 003.83-.4 7.15 7.15 0 00.28-1.21l.22-1.31h.78a9.6 9.6 0 00-.23 1.92v2c-.88.13-2.48.1-3.95.13s-2.83-.13-4.28-.13-2.86.05-4.31.13v-.73a1.86 1.86 0 002-2.14v-10.9c0-1.86 0-2-2.25-2.14v-.72c1.44.08 2.87.12 4.35.12s2.92 0 4.35-.12 3.14 0 3.95.12a7.9 7.9 0 00-.38 2.3c0 .51-.07.91-.07 1.41h-.74a11.27 11.27 0 00-.33-2.33 12.1 12.1 0 00-3.55-.4 22.28 22.28 0 00-3 .12 12.41 12.41 0 00-.11 2v4.44c5.18.05 5.51.34 5.54-2h.78v5.49h-.78c0-2.69-.17-2.54-5.54-2.35zm15.53-9.78c0-.91 0-1.68-.1-2.38l-3.66.12c-.5 0-.79.09-.84.7a16.3 16.3 0 00-.26 1.84h-.71v-1.34c0-.83-.05-1.66-.12-2.54 2.26.08 4.52.12 6.85.12s4.57 0 6.87-.12c-.07.88-.09 1.71-.11 2.54v1.34h-.72a12.74 12.74 0 00-.26-1.84c0-.61-.33-.69-.83-.7l-3.71-.12c-.07.7-.07 1.47-.1 2.38V199c0 1.86 0 2 2.27 2.14v.73c-1.14-.08-2.27-.13-3.43-.13s-2.28.05-3.35.13v-.73c2.28-.11 2.26-.28 2.26-2.14zm14.58 0c0-.91 0-1.68-.1-2.38l-3.67.12c-.49 0-.78.09-.82.7a14.26 14.26 0 00-.27 1.84h-.71v-1.34c0-.83-.05-1.66-.12-2.54 2.25.08 4.52.12 6.85.12s4.57 0 6.87-.12c-.07.88-.09 1.71-.11 2.54v1.34h-.71a14.26 14.26 0 00-.27-1.84c0-.61-.33-.69-.83-.7l-3.71-.12c-.07.7-.07 1.47-.09 2.38V199c0 1.86 0 2 2.26 2.14v.73c-1.14-.08-2.26-.13-3.43-.13s-2.28.05-3.36.13v-.73c2.29-.11 2.27-.28 2.27-2.14zm18.24.4a4 4 0 00-.24-1.9c-.64-1-2.33-1.38-3.44-1.38a3.45 3.45 0 00-3.63 3.4c0 5.16 9.46.88 9.46 6.85 0 4.07-3.63 6-7.17 6a10.18 10.18 0 01-4.06-.91c.09-.9.13-2 .16-3v-.68h.8v1.12a1.69 1.69 0 00.34 1.24 5.86 5.86 0 003.69 1.09c2.14 0 4.24-1.26 4.24-3.61 0-5.76-9.42-.38-9.42-7.3 0-3.27 2.75-5.33 5.83-5.33a12.9 12.9 0 014.6 1.09 9 9 0 00-.19 1.14c0 .72-.14 1.41-.17 2.12zm25.82 6.06v.59c-1.17.2-.95 1.36-.88 2.89l.09 2.23c-.38.1-.72.22-1.11.31a20 20 0 01-5.18.91c-5.31 0-9.6-2.76-9.6-8.64 0-5.4 4-8.7 9.75-8.7a22.84 22.84 0 016.19 1.1c-.24 1.19-.38 2.38-.52 3.57h-.69c-.07-1.53.31-2.07-1.1-2.77a8.09 8.09 0 00-3.82-.88c-4.57 0-7.26 3-7.26 7.17 0 4.77 2.75 8.15 7.66 8.15 1.83 0 3.17-.35 3.35-1a17.7 17.7 0 000-3.7c-.07-.48-1-.46-2.71-.53v-.72zm6.09 3.32a12 12 0 00.12 2 26.9 26.9 0 003.24.12 13.71 13.71 0 003.83-.4 7.15 7.15 0 00.28-1.21l.21-1.31h.79a9.53 9.53 0 00-.24 1.92v2c-.88.13-2.46.1-4 .13s-2.84-.13-4.28-.13-2.86.05-4.31.13v-.73a1.87 1.87 0 002.05-2.14v-10.9c0-1.86 0-2-2.26-2.14v-.72c1.45.08 2.88.12 4.35.12s2.93 0 4.35-.12 3.15 0 4 .12a8.28 8.28 0 00-.39 2.3c0 .51-.07.91-.07 1.41h-.73a11.24 11.24 0 00-.34-2.33 12 12 0 00-3.54-.4 22.13 22.13 0 00-2.95.12 11.21 11.21 0 00-.12 2v4.44c5.19.05 5.51.34 5.54-2h.79v5.49H353c0-2.69-.16-2.54-5.54-2.35zm25.21.77v-11.82c0-1.38-.43-1.59-1.87-1.59h-.39v-.72c1 .08 1.9.12 2.86.12s1.9 0 2.83-.12v.73h-.38c-1.5 0-1.95.21-1.95 1.59v13.78l.07.88-1.88-.34-11.49-14v11.61c0 1.38.45 1.59 1.94 1.59h.39v.73c-.93-.08-1.88-.13-2.83-.13s-1.91.05-2.86.13v-.73h.38c1.45 0 1.88-.21 1.88-1.59v-12c0-1.38-.38-1.59-1.71-1.61h-.33v-.72a17.66 17.66 0 004.11 0zm9.09-.77a12 12 0 00.12 2 27 27 0 003.24.12 13.68 13.68 0 003.82-.4 5.64 5.64 0 00.28-1.21l.22-1.31h.78a9.6 9.6 0 00-.23 1.92v2c-.88.13-2.48.1-3.95.13s-2.83-.13-4.28-.13-2.85.05-4.3.13v-.73a1.85 1.85 0 002-2.14v-10.9c0-1.86 0-2-2.25-2.14v-.72c1.44.08 2.87.12 4.36.12s2.92 0 4.33-.12 3.16 0 4 .12a7.88 7.88 0 00-.37 2.3c0 .51-.08.91-.08 1.41h-.73a10.6 10.6 0 00-.34-2.33 12 12 0 00-3.53-.4 22.21 22.21 0 00-3 .12 11.21 11.21 0 00-.12 2v4.44c5.18.05 5.51.34 5.54-2h.78v5.49h-.78c0-2.69-.17-2.54-5.54-2.35zM394 188.11c0-1.86 0-2-2.26-2.14v-.72c1.34.08 2.71.12 4.13.12s2.78 0 4.16-.12c3.28-.16 4.8 1.62 4.8 3.62 0 2.59-2.33 4.13-4.63 4.59l5.39 7a2.07 2.07 0 001.37.66v.73a11.08 11.08 0 00-1.63-.13 11.28 11.28 0 00-1.62.13c-.38-.5-.63-.94-1-1.34l-5.66-7.28.1-.35a9.91 9.91 0 002.18-.11 3.5 3.5 0 003.09-3.33c0-2.56-1.9-3.32-3.65-3.32a9.11 9.11 0 00-2.39.31 5.28 5.28 0 00-.14 1.64V199c0 1.86 0 2 2.27 2.14v.73c-1.15-.08-2.27-.13-3.43-.13s-2.29.05-3.37.13v-.73c2.3-.11 2.26-.28 2.26-2.14zm28.48 10.53a5.78 5.78 0 001.2 2.12 2.16 2.16 0 001.32.4v.73c-1.06-.08-2.1-.13-3.17-.13s-2.12.05-3.16.13v-.73a3.93 3.93 0 001.78-.33c.34-.17.35-.54.16-1l-1.44-3.48h-6.76a28.61 28.61 0 00-1.59 4c0 .78 1.16.67 2 .78v.73c-.91-.08-1.81-.13-2.74-.13s-1.83.05-2.73.13v-.73c1.34-.26 1.49 0 2.07-1.28l1.15-2.45 3.23-7.18c.76-1.7 1.54-3.43 2.16-5.14h.76zm-3.75-3.27l-3-7.1-3 7.1zm11.92 4.41l.07.88a30.07 30.07 0 003.35.12 13.79 13.79 0 003.84-.4 5.21 5.21 0 00.25-.76l.53-2h.78c-.07.33-.16 1-.25 1.59l-.25 2.5a36.88 36.88 0 01-3.69.13c-1.33-.08-2.7-.13-4.08-.13s-2.71.05-4.1.13v-.73c1.13-.18 1.3-.87 1.3-2.78v-10.22c0-1.86 0-2-2.27-2.14v-.72q1.61.12 3.36.12c1.16 0 2.28 0 3.42-.12v.75c-2.28.11-2.26.28-2.26 2.14zm32.26-.78c0 1.86 0 2 2.26 2.14v.73c-1.14-.08-2.26-.13-3.43-.13s-2.28.05-3.35.13v-.73c2.28-.11 2.26-.28 2.26-2.14v-5.5h-9.52v5.5c0 1.86 0 2 2.27 2.14v.73c-1.15-.08-2.27-.13-3.43-.13s-2.28.05-3.36.13v-.73c2.29-.11 2.26-.28 2.26-2.14v-10.89c0-1.86 0-2-2.26-2.14v-.72q1.62.12 3.36.12c1.16 0 2.28 0 3.43-.12v.75c-2.29.11-2.27.28-2.27 2.14v4.4h9.52v-4.4c0-1.86 0-2-2.26-2.14v-.72c1.07.08 2.19.12 3.35.12s2.29 0 3.43-.12v.72c-2.29.11-2.26.28-2.26 2.14zm21.09-6a9.11 9.11 0 01-9.21 9.21c-4.83 0-8.44-3.34-8.44-8.76 0-4.85 3.42-8.65 8.94-8.58 5.05.03 8.71 2.88 8.71 8.13zm-2.55.73c0-4.7-2.12-7.84-6.54-7.84-4.13 0-6 2.88-6 6.77 0 4.18 1.95 8.52 6.65 8.52 3.93-.18 5.85-3.04 5.85-7.42zm12.83-4.48a4 4 0 00-.24-1.9c-.63-1-2.33-1.38-3.44-1.38a3.44 3.44 0 00-3.62 3.4c0 5.16 9.47.88 9.47 6.85 0 4.07-3.64 6-7.18 6a10.19 10.19 0 01-4.07-.91c.08-.9.14-2 .16-3v-.68h.8v1.12a1.61 1.61 0 00.35 1.24 5.79 5.79 0 003.68 1.09c2.13 0 4.23-1.26 4.23-3.61 0-5.76-9.41-.38-9.41-7.3 0-3.27 2.76-5.33 5.82-5.33a13 13 0 014.61 1.09 9 9 0 00-.18 1.14c-.05.72-.15 1.41-.18 2.12zm5.57-1.14c0-1.86 0-2-2.27-2.14v-.72c1.39.08 2.77.12 4.19.12s2.79 0 4.17-.12c2.31 0 4.92 1 4.92 3.69 0 3-2.57 4.93-5.54 5a6 6 0 01-1.56-.14l-.25-.88a6.94 6.94 0 001.52.21 3.28 3.28 0 003.44-3.42c0-2.47-1.49-3.62-3.86-3.62a12.21 12.21 0 00-2.36.34 5.28 5.28 0 00-.14 1.64V199c0 1.86 0 2 2.25 2.14v.73c-1.14-.08-2.25-.13-3.42-.13s-2.29.05-3.36.13v-.73c2.29-.11 2.27-.28 2.27-2.14zM516.47 199c0 1.86 0 2 2.26 2.14v.73c-1.13-.08-2.26-.13-3.42-.13s-2.28.05-3.35.13v-.73c2.28-.11 2.26-.28 2.26-2.14v-10.89c0-1.86 0-2-2.26-2.14v-.72c1.07.08 2.18.12 3.35.12s2.29 0 3.42-.12v.75c-2.29.11-2.26.28-2.26 2.14zm9.03-10.15c0-.91 0-1.68-.11-2.38l-3.66.12c-.5 0-.78.09-.83.7a14.26 14.26 0 00-.27 1.84h-.7v-1.34c0-.83 0-1.66-.12-2.54 2.26.08 4.52.12 6.84.12s4.58 0 6.89-.12c-.08.88-.1 1.71-.12 2.54v1.34h-.72a14.35 14.35 0 00-.25-1.84c-.06-.61-.33-.69-.83-.7l-3.71-.12c-.08.7-.08 1.47-.1 2.38V199c0 1.86 0 2 2.26 2.14v.73c-1.15-.08-2.26-.13-3.43-.13s-2.28.05-3.36.13v-.73c2.29-.11 2.28-.28 2.28-2.14zm23.89 9.79a5.83 5.83 0 001.22 2.12 2.14 2.14 0 001.3.4v.73c-1-.08-2.09-.13-3.16-.13s-2.11.05-3.16.13v-.73a3.9 3.9 0 001.78-.33c.34-.17.36-.54.17-1l-1.46-3.48h-6.75a27.54 27.54 0 00-1.6 4c0 .78 1.18.67 2 .78v.73c-.91-.08-1.81-.13-2.74-.13s-1.83.05-2.73.13v-.73c1.33-.26 1.49 0 2.07-1.28l1.17-2.45 3.2-7.18c.76-1.7 1.56-3.43 2.17-5.14h.76zm-3.73-3.27l-3-7.1-3 7.1zm11.91 4.41l.07.88a30.16 30.16 0 003.36.12 13.68 13.68 0 003.83-.4 4.29 4.29 0 00.23-.76l.56-2h.75c-.08.33-.14 1-.22 1.59l-.28 2.5a36.17 36.17 0 01-3.68.13c-1.34-.08-2.69-.13-4.06-.13s-2.73.05-4.11.13v-.73c1.13-.18 1.28-.87 1.28-2.78v-10.22c0-1.86 0-2-2.24-2.14v-.72c1.07.08 2.19.12 3.35.12s2.28 0 3.43-.12v.75c-2.29.11-2.27.28-2.27 2.14zM12.33 157c0-1.86 0-2-2.27-2.15v-.71c1.46.07 2.88.13 4.36.13s2.92-.06 4.35-.13 3.14 0 3.95.13a8.14 8.14 0 00-.38 2.3c0 .5-.08.9-.08 1.4h-.73a11.17 11.17 0 00-.33-2.33 11.78 11.78 0 00-3.55-.41 22.2 22.2 0 00-2.95.12 8.68 8.68 0 00-.12 1.55v4.88c5.19.05 5.52.33 5.55-2h.78v5.49h-.78c0-2.68-.17-2.54-5.55-2.35v5c0 1.84 0 2 2.26 2.14v.7c-1.14-.06-2.26-.12-3.42-.12s-2.29.06-3.36.12v-.7c2.29-.12 2.27-.3 2.27-2.14zm28.51 4.92a9.11 9.11 0 01-9.2 9.21c-4.83 0-8.44-3.33-8.44-8.76 0-4.85 3.42-8.66 8.94-8.58 5.09 0 8.7 2.85 8.7 8.13zm-2.54.74c0-4.71-2.12-7.85-6.54-7.85-4.14 0-6 2.88-6 6.78 0 4.16 2 8.52 6.66 8.52 3.95-.27 5.88-3.11 5.88-7.45zm7.97 2.64c-.15 3.38 1.76 4.35 4.87 4.35 1.46 0 3.19-.38 4-1.64a7.13 7.13 0 00.94-4v-7.56c0-1.38-.42-1.59-1.87-1.59h-.38v-.71c.95.07 1.9.13 2.85.13s1.9-.06 2.83-.13v.71h-.38c-1.5 0-2 .21-2 1.59v8.77a6.1 6.1 0 01-1 3.48 5.35 5.35 0 01-2.47 1.9 10.93 10.93 0 01-3.21.51c-2.16 0-4.76-.34-5.9-2.45a5.66 5.66 0 01-.6-3.13V157c0-1.86 0-2-2.25-2.15v-.71c1.07.07 2.19.13 3.35.13s2.28-.06 3.42-.13v.71c-2.28.12-2.25.29-2.25 2.15zm29.42 3v-11.83c0-1.38-.43-1.59-1.88-1.59h-.38v-.71c.95.07 1.9.13 2.86.13s1.9-.06 2.82-.13v.71h-.38c-1.49 0-2 .21-2 1.59v13.78l.07.88-1.8-.34-11.48-14v11.6c0 1.39.45 1.6 1.95 1.6h.38v.7c-.93-.06-1.88-.12-2.83-.12s-1.9.06-2.86.12v-.7h.39c1.44 0 1.87-.21 1.87-1.6v-12c0-1.38-.38-1.59-1.71-1.62h-.33v-.71a16.31 16.31 0 004.11 0zm6.64-11.02c0-2.23-.22-2.38-2.1-2.4v-.74c1.53.07 3 .13 4.62.13s3.09-.06 4.61-.13c4.43 0 8 2.69 8 7.3a9.09 9.09 0 01-10.11 9.32c-1-.06-2.09-.12-3.16-.12s-2.12.06-3.16.12v-.7c.85-.18 1.26-.41 1.26-1.43zm2.23 10.26a13.07 13.07 0 00.1 2 19.56 19.56 0 002.23.18c6.07.15 8.11-3.22 8.11-7.57 0-5-3.09-6.95-7.18-6.95-1 0-2.09.1-3.16.14a14.3 14.3 0 00-.1 2zm18.63-.03a13.45 13.45 0 00.11 2 24.92 24.92 0 003.24.13 13.68 13.68 0 003.83-.41 5.37 5.37 0 00.28-1.21l.22-1.32h.78a10.43 10.43 0 00-.24 1.94v2c-.88.12-2.47.11-3.94.12s-2.84-.12-4.28-.12-2.86.06-4.31.12v-.7a1.88 1.88 0 002.05-2.14V157c0-1.86 0-2-2.26-2.15v-.71c1.44.07 2.87.13 4.35.13s2.92-.06 4.35-.13 3.14 0 3.95.13a7.8 7.8 0 00-.38 2.3c0 .5-.07.9-.07 1.4h-.74a11.17 11.17 0 00-.33-2.33 11.78 11.78 0 00-3.55-.41 22.28 22.28 0 00-3 .12 12.7 12.7 0 00-.11 2v4.45c5.18.05 5.51.33 5.53-2h.79v5.49h-.79c0-2.68-.16-2.54-5.53-2.35zm12.08-10.23c0-2.23-.22-2.38-2.1-2.4v-.74c1.52.07 3 .13 4.62.13s3.09-.06 4.61-.13c4.43 0 8 2.69 8 7.3a9.09 9.09 0 01-10.11 9.32c-1-.06-2.09-.12-3.16-.12s-2.12.06-3.16.12v-.7c.85-.18 1.26-.41 1.26-1.43zm2.24 10.26a16.31 16.31 0 00.08 2 19.94 19.94 0 002.24.18c6.07.15 8.11-3.22 8.11-7.57 0-5-3.09-6.95-7.18-6.95-1.05 0-2.09.1-3.17.14a18.83 18.83 0 00-.08 2zM139.65 157c0-2-.43-2.1-2.1-2.15v-.71c1.34.07 2.69.13 4 .13s2.71-.06 4-.13c2.21 0 4.21.81 4.21 3.33 0 2.16-2 3.57-4 3.9 2.43.1 4.78 1.1 4.78 3.87 0 3.22-3.26 5.84-7 5.52-.86-.06-1.72-.12-2.57-.12s-1.74.06-2.6.12v-.7c1-.27 1.15-.79 1.15-1.67zm2.26 4a13.11 13.11 0 001.68.09c2.08 0 3.9-.82 3.9-3.18s-1.59-2.86-3.58-2.86a5.94 5.94 0 00-1.88.26 10.14 10.14 0 00-.12 1.76zm0 8.51a10 10 0 002.14.21 3.87 3.87 0 004.16-4.11c0-2.61-1.67-3.64-4.71-3.64h-1.59zm18.19-6.97l2.46-3.88c.9-1.52 1.77-3 2.56-4.52H167v.36a49.41 49.41 0 00-5.85 8.43 4.26 4.26 0 00-.33 1.8v3.19c0 1.84 0 2 2.26 2.14v.7c-1.15-.06-2.26-.12-3.43-.12s-2.28.06-3.35.12v-.7c2.28-.12 2.26-.3 2.26-2.14v-3.5a1.73 1.73 0 00-.12-.74l-2.85-5c-.79-1.36-2.24-3.69-3.93-3.5v-.69l2.53-.5c.68-.12 1 .28 1.44.78a15 15 0 011 1.55zM176 157c0-2-.43-2.1-2.09-2.15v-.71c1.33.07 2.68.13 4 .13s2.71-.06 4-.13c2.22 0 4.21.81 4.21 3.33 0 2.16-2 3.57-4 3.9 2.43.1 4.78 1.1 4.78 3.87 0 3.22-3.26 5.84-7 5.52-.86-.06-1.71-.12-2.57-.12s-1.74.06-2.59.12v-.7c1-.27 1.14-.79 1.14-1.67zm2.26 4a13.27 13.27 0 001.69.09c2.07 0 3.9-.82 3.9-3.18s-1.59-2.86-3.59-2.86a6 6 0 00-1.88.26 10.14 10.14 0 00-.12 1.76zm0 8.51a10 10 0 002.14.21 3.86 3.86 0 004.16-4.11c0-2.61-1.66-3.64-4.71-3.64h-1.59zM190.69 157c0-1.86 0-2-2.26-2.15v-.71c1.33.07 2.71.13 4.12.13s2.78-.06 4.16-.13c3.28-.17 4.8 1.62 4.8 3.61 0 2.6-2.33 4.15-4.64 4.6l5.4 7a2.09 2.09 0 001.36.68v.7a14.18 14.18 0 00-1.62-.12 14.71 14.71 0 00-1.62.12c-.38-.5-.64-.92-1-1.33l-5.65-7.27.09-.36a9.39 9.39 0 002.19-.09 3.52 3.52 0 003.09-3.33c0-2.57-1.9-3.33-3.66-3.33a9.05 9.05 0 00-2.38.3A5.38 5.38 0 00193 157v10.92c0 1.84 0 2 2.26 2.14v.7c-1.14-.06-2.26-.12-3.43-.12s-2.28.06-3.35.12v-.7c2.28-.12 2.26-.3 2.26-2.14zm18.15 10.92c0 1.84 0 2 2.26 2.14v.7c-1.14-.06-2.26-.12-3.43-.12s-2.28.06-3.35.12v-.7c2.28-.12 2.26-.3 2.26-2.14V157c0-1.86 0-2-2.26-2.15v-.71c1.07.07 2.19.13 3.35.13s2.29-.06 3.43-.13v.71c-2.29.12-2.26.29-2.26 2.15zm20.07-3.72v.6c-1.17.19-.95 1.35-.88 2.88l.1 2.23c-.39.09-.74.21-1.12.31a20.33 20.33 0 01-5.19.91c-5.3 0-9.58-2.76-9.58-8.64 0-5.4 4-8.7 9.75-8.7a22.75 22.75 0 016.18 1.06c-.23 1.19-.37 2.38-.52 3.57H227c-.07-1.52.31-2.07-1.09-2.76a8.29 8.29 0 00-3.83-.88c-4.57 0-7.26 2.95-7.26 7.16 0 4.79 2.76 8.17 7.66 8.17 1.83 0 3.16-.36 3.35-1a17 17 0 000-3.69c-.07-.5-1-.47-2.71-.54v-.72zm17.86 3.72c0 1.84 0 2 2.27 2.14v.7c-1.15-.06-2.27-.12-3.43-.12s-2.29.06-3.36.12v-.7c2.29-.12 2.27-.3 2.27-2.14v-5.52H235v5.52c0 1.84 0 2 2.26 2.14v.7c-1.14-.06-2.26-.12-3.43-.12s-2.28.06-3.35.12v-.7c2.29-.12 2.26-.3 2.26-2.14V157c0-1.86 0-2-2.26-2.15v-.71c1.07.07 2.19.13 3.35.13s2.29-.06 3.43-.13v.71c-2.26.15-2.26.29-2.26 2.15v4.4h9.52V157c0-1.86 0-2-2.27-2.15v-.71c1.07.07 2.19.13 3.36.13s2.28-.06 3.43-.13v.71c-2.29.12-2.27.29-2.27 2.15zm18.34-.38a6 6 0 001.22 2.11 2.28 2.28 0 001.3.41v.7c-1-.06-2.09-.12-3.16-.12s-2.12.06-3.17.12v-.7a4.36 4.36 0 001.79-.33c.33-.18.36-.55.17-1l-1.45-3.47h-6.76a28.61 28.61 0 00-1.59 4c0 .79 1.16.67 2 .79v.7c-.9-.06-1.81-.12-2.74-.12s-1.83.06-2.73.12v-.7c1.33-.27 1.5-.06 2.07-1.29l1.16-2.45 3.21-7.18c.77-1.7 1.55-3.43 2.17-5.14h.76zm-3.73-3.29l-3-7.09-3 7.09zM279 171h-.47l-6.64-14v11.43c0 1.39.45 1.6 1.95 1.6h.38v.7c-.92-.06-1.88-.12-2.83-.12s-1.9.06-2.85.12v-.7h.38c1.45 0 1.87-.21 1.87-1.6v-12c0-1.38-.42-1.59-1.87-1.59h-.38v-.71c.73.07 1.5.13 2.25.13s1.53-.06 2.27-.13l6.28 13.25 4.9-10.08a22.15 22.15 0 001.28-3.17c.74.07 1.5.13 2.26.13s1.53-.06 2.26-.13v.71h-.35c-1.43 0-1.86.24-1.86 1.62v11.45c0 1.84 0 2 2.26 2.14v.7c-1.14-.06-2.26-.12-3.43-.12s-2.28.06-3.35.12v-.7c2.28-.12 2.26-.3 2.26-2.14V157zm33.06-3.46a6 6 0 001.22 2.11 2.29 2.29 0 001.31.41v.7c-1-.06-2.1-.12-3.17-.12s-2.11.06-3.16.12v-.7a4.45 4.45 0 001.79-.33c.33-.18.36-.55.17-1l-1.46-3.47H302a28.61 28.61 0 00-1.59 4c0 .79 1.17.67 2 .79v.7c-.9-.06-1.81-.12-2.73-.12s-1.83.06-2.74.12v-.7c1.34-.27 1.5-.06 2.07-1.29l1.17-2.45 3.21-7.18c.76-1.7 1.55-3.43 2.16-5.14h.76zm-3.72-3.29l-3-7.09-3 7.09zm22.59 4.05v-11.83c0-1.38-.42-1.59-1.88-1.59h-.39v-.71c1 .07 1.91.13 2.86.13s1.9-.06 2.83-.13v.71h-.38c-1.5 0-2 .21-2 1.59v13.78l.07.88-1.88-.34-11.48-14v11.6c0 1.39.45 1.6 1.95 1.6h.38v.7c-.94-.06-1.88-.12-2.83-.12s-1.91.06-2.86.12v-.7h.38c1.45 0 1.88-.21 1.88-1.6v-12c0-1.38-.39-1.59-1.71-1.62h-.33v-.71a16.23 16.23 0 004.1 0zm6.64-11.02c0-2.23-.22-2.38-2.1-2.4v-.74c1.52.07 3 .13 4.61.13s3.09-.06 4.61-.13c4.44 0 8.06 2.69 8.06 7.3a9.1 9.1 0 01-10.12 9.32c-1.05-.06-2.09-.12-3.16-.12s-2.12.06-3.17.12v-.7c.86-.18 1.27-.41 1.27-1.43zm2.23 10.26a13.07 13.07 0 00.1 2 19.37 19.37 0 002.23.18c6.06.15 8.11-3.22 8.11-7.57 0-5-3.09-6.95-7.18-6.95-1.05 0-2.1.1-3.16.14a16 16 0 00-.1 2zm21.61-10.82l-.13-.56c-.28-1.09-.5-1.21-1.63-1.28h-.22v-.71c1 .07 2 .13 3 .13s2-.06 3-.13v.71c-2.31-.14-2 .79-1.79 1.69l.51 2.37 1.88 8.24 3-7.43 2.07-5.75h.77l.7 2.21 4 11.11 1.88-6.71 1.1-4.23c.23-.95.54-1.67-1.89-1.53v-.71c.84.07 1.64.13 2.5.13s1.66-.06 2.5-.13v.71c-1 .08-1.16 0-1.5.91l-3.5 11.42-.92 3.68h-1.24l-1.69-4.9-3-8.06-4.13 10.52-.86 2.44h-1.19c-.19-.8-.37-1.61-.56-2.44zm39.78 5.2a9.12 9.12 0 01-9.21 9.21c-4.82 0-8.44-3.33-8.44-8.76 0-4.85 3.43-8.66 8.94-8.58 5.1 0 8.71 2.85 8.71 8.13zm-2.55.74c0-4.71-2.11-7.85-6.53-7.85-4.14 0-6 2.88-6 6.78 0 4.16 2 8.52 6.65 8.52 3.96-.27 5.88-3.11 5.88-7.45zm13.93 8.34h-.49l-6.63-14v11.43c0 1.39.45 1.6 1.94 1.6h.39v.7c-.93-.06-1.88-.12-2.83-.12s-1.9.06-2.86.12v-.7h.39c1.45 0 1.88-.21 1.88-1.6v-12c0-1.38-.43-1.59-1.88-1.59h-.39v-.71c.74.07 1.49.13 2.27.13s1.51-.06 2.26-.13l6.27 13.25 4.9-10.08a22.24 22.24 0 001.29-3.17c.74.07 1.5.13 2.25.13s1.53-.06 2.26-.13v.71h-.35c-1.43 0-1.86.24-1.86 1.62v11.45c0 1.84 0 2 2.27 2.14v.7c-1.15-.06-2.27-.12-3.43-.12s-2.29.06-3.35.12v-.7c2.29-.12 2.26-.3 2.26-2.14V157zm16.78-3.49a12.15 12.15 0 00.12 2 24.84 24.84 0 003.24.13 13.65 13.65 0 003.82-.41 6.69 6.69 0 00.3-1.21l.2-1.32h.79a10.43 10.43 0 00-.24 1.94v2c-.88.12-2.47.11-3.95.12s-2.82-.12-4.28-.12-2.85.06-4.3.12v-.7a1.87 1.87 0 002-2.14V157c0-1.86 0-2-2.26-2.15v-.71c1.45.07 2.88.13 4.37.13s2.91-.06 4.34-.13 3.13 0 3.94.13a8.14 8.14 0 00-.38 2.3c0 .5-.07.9-.07 1.4h-.73a11.14 11.14 0 00-.34-2.33 11.68 11.68 0 00-3.54-.41 22.2 22.2 0 00-2.95.12 11.47 11.47 0 00-.12 2v4.45c5.18.05 5.51.33 5.55-2h.78v5.49h-.78c0-2.68-.17-2.54-5.55-2.35zm25.22.79v-11.83c0-1.38-.44-1.59-1.88-1.59h-.38v-.71c.95.07 1.9.13 2.85.13s1.9-.06 2.83-.13v.71h-.39c-1.49 0-2 .21-2 1.59v13.78l.08.88-1.88-.34-11.49-14v11.6c0 1.39.45 1.6 1.95 1.6h.38v.7c-.92-.06-1.88-.12-2.83-.12s-1.9.06-2.84.12v-.7h.37c1.45 0 1.88-.21 1.88-1.6v-12c0-1.38-.38-1.59-1.72-1.62h-.33v-.71a16.39 16.39 0 004.12 0zm4.81-7.9l-.35-.24a11.2 11.2 0 001.86-5.31 17.28 17.28 0 001.72-.52l.59-.19.32.32a20.67 20.67 0 01-3.09 5.37zm15.55-2.26a3.85 3.85 0 00-.25-1.91c-.63-1-2.32-1.38-3.44-1.38a3.44 3.44 0 00-3.62 3.4c0 5.17 9.47.89 9.47 6.86 0 4.07-3.64 6-7.18 6a10.58 10.58 0 01-4.07-.91c.09-.9.15-2 .17-3v-.66h.8v1.12a1.58 1.58 0 00.34 1.23 5.8 5.8 0 003.68 1.1c2.15 0 4.23-1.26 4.23-3.61 0-5.76-9.4-.38-9.4-7.31 0-3.26 2.75-5.32 5.81-5.32a13 13 0 014.62 1.09 9.08 9.08 0 00-.2 1.14c-.05.71-.13 1.4-.16 2.12zm25.54 9.78c0 1.84 0 2 2.26 2.14v.7c-1.14-.06-2.26-.12-3.42-.12s-2.29.06-3.35.12v-.7c2.28-.12 2.26-.3 2.26-2.14v-5.52h-9.53v5.52c0 1.84 0 2 2.27 2.14v.7c-1.15-.06-2.27-.12-3.43-.12s-2.29.06-3.35.12v-.7c2.28-.12 2.26-.3 2.26-2.14V157c0-1.86 0-2-2.26-2.15v-.71c1.06.07 2.19.13 3.35.13s2.28-.06 3.43-.13v.71c-2.29.12-2.27.29-2.27 2.15v4.4h9.53V157c0-1.86 0-2-2.26-2.15v-.71c1.06.07 2.19.13 3.35.13s2.28-.06 3.42-.13v.71c-2.28.12-2.26.29-2.26 2.15zm21.05-6a9.11 9.11 0 01-9.21 9.21c-4.82 0-8.44-3.33-8.44-8.76 0-4.85 3.43-8.66 9-8.58 5.04 0 8.65 2.85 8.65 8.13zm-2.54.74c0-4.71-2.13-7.85-6.55-7.85-4.13 0-6 2.88-6 6.78 0 4.16 2 8.52 6.67 8.52 3.95-.27 5.9-3.11 5.9-7.45zm12.86-4.52a4.15 4.15 0 00-.23-1.91c-.65-1-2.34-1.38-3.45-1.38a3.44 3.44 0 00-3.62 3.4c0 5.17 9.47.89 9.47 6.86 0 4.07-3.64 6-7.17 6a10.6 10.6 0 01-4.09-.91c.1-.9.16-2 .17-3v-.66h.82v1.12a1.62 1.62 0 00.32 1.23 5.85 5.85 0 003.69 1.1c2.14 0 4.24-1.26 4.24-3.61 0-5.76-9.42-.38-9.42-7.31 0-3.26 2.75-5.32 5.82-5.32a13 13 0 014.62 1.09 11.29 11.29 0 00-.19 1.14c-.05.71-.15 1.4-.17 2.12zm5.57-1.14c0-1.86 0-2-2.26-2.15v-.71c1.38.07 2.75.13 4.19.13s2.77-.06 4.16-.13c2.3 0 4.93 1 4.93 3.69 0 3-2.57 4.92-5.55 5a5.35 5.35 0 01-1.55-.14l-.25-.88a7.39 7.39 0 001.52.21 3.3 3.3 0 003.45-3.43c0-2.47-1.51-3.61-3.88-3.61a13.15 13.15 0 00-2.36.33 5 5 0 00-.15 1.65v10.92c0 1.84 0 2 2.26 2.14v.7c-1.14-.06-2.26-.12-3.42-.12s-2.28.06-3.35.12v-.7c2.29-.12 2.26-.3 2.26-2.14zM554 167.92c0 1.84 0 2 2.26 2.14v.7c-1.13-.06-2.26-.12-3.41-.12s-2.3.06-3.37.12v-.7c2.3-.12 2.27-.3 2.27-2.14V157c0-1.86 0-2-2.27-2.15v-.71c1.07.07 2.19.13 3.37.13s2.28-.06 3.41-.13v.71c-2.26.15-2.26.29-2.26 2.15zm9.05-10.19c0-.9 0-1.66-.09-2.38l-3.67.12c-.5 0-.78.1-.84.72a14.43 14.43 0 00-.25 1.83h-.72v-1.33c0-.84 0-1.67-.11-2.55 2.26.07 4.52.13 6.84.13s4.58-.06 6.88-.13c-.07.88-.08 1.71-.12 2.55v1.33h-.71a16.45 16.45 0 00-.26-1.83c0-.62-.34-.69-.84-.72l-3.71-.12c-.06.72-.06 1.48-.09 2.38v10.19c0 1.84 0 2 2.26 2.14v.7c-1.14-.06-2.26-.12-3.42-.12s-2.29.06-3.36.12v-.7c2.29-.12 2.26-.3 2.26-2.14zm23.95 9.81a5.82 5.82 0 001.2 2.11 2.32 2.32 0 001.32.41v.7c-1.06-.06-2.09-.12-3.16-.12s-2.12.06-3.17.12v-.7a4.37 4.37 0 001.78-.33c.34-.18.36-.55.17-1l-1.46-3.47h-6.75a28.61 28.61 0 00-1.59 4c0 .79 1.16.67 2 .79v.7c-.91-.06-1.81-.12-2.73-.12s-1.84.06-2.73.12v-.7c1.31-.27 1.49-.06 2.06-1.29l1.17-2.45 3.21-7.18c.76-1.7 1.53-3.43 2.16-5.14h.76zm-3.74-3.29l-3-7.09-3 7.09zm11.88 4.43l.07.87a27.68 27.68 0 003.35.13 13.68 13.68 0 003.83-.41 3.35 3.35 0 00.23-.77l.56-2h.76c-.07.34-.14 1-.25 1.6l-.25 2.49a34.4 34.4 0 01-3.7.12c-1.32-.06-2.67-.12-4.06-.12s-2.71.06-4.08.12v-.7c1.12-.2 1.27-.88 1.27-2.79V157c0-1.86 0-2-2.25-2.15v-.71c1.07.07 2.19.13 3.35.13s2.28-.06 3.42-.13v.71c-2.28.12-2.25.29-2.25 2.15z" transform="translate(-10.06 -22.76)"/><path class="cls-1" d="M.02 111.01h593.84v1.01H.02z"/><path class="cls-2" d="M427 80.09a5.76 5.76 0 012.77.73 5.4 5.4 0 012.15 2.09 5.83 5.83 0 01.79 2.88 5.8 5.8 0 01-2.87 4.95 5.69 5.69 0 01-5.68 0 5.57 5.57 0 01-2.1-2.1 5.73 5.73 0 012.12-7.81 5.8 5.8 0 012.82-.74zm0 .89a4.93 4.93 0 00-2.37.62 4.9 4.9 0 00-2.45 4.19 4.81 4.81 0 00.65 2.41 4.63 4.63 0 001.73 1.8 4.81 4.81 0 006.57-1.77 4.77 4.77 0 000-4.84 4.57 4.57 0 00-1.8-1.77A4.87 4.87 0 00427 81zm-2.64 7.65v-.32h.12a1 1 0 00.4-.06.21.21 0 00.15-.12 1 1 0 000-.36v-4.41a1 1 0 000-.43.23.23 0 00-.14-.16 1.2 1.2 0 00-.36 0h-.16v-.35h2.79a3.14 3.14 0 011.3.22 1.32 1.32 0 01.66.61 1.72 1.72 0 01.18.76 1.57 1.57 0 01-.15.65 1.54 1.54 0 01-.48.58 2.63 2.63 0 01-1 .39 1.26 1.26 0 01.4.18 1.38 1.38 0 01.3.3 2.4 2.4 0 01.27.36 6.51 6.51 0 01.29.59c.17.36.32.63.42.84a1.73 1.73 0 00.29.37.74.74 0 00.34.08v.32H429a.87.87 0 01-.57-.14 4.88 4.88 0 01-.69-1.3 10 10 0 00-.44-.93 1 1 0 00-.3-.35.91.91 0 00-.49-.11h-.37v1.86a.9.9 0 00.06.43c0 .07.07.12.13.13a2.08 2.08 0 00.5 0v.32zm1.84-3.25h.4a1.49 1.49 0 001.27-.44 1.66 1.66 0 00.27-1 1.28 1.28 0 00-.32-.93 1.25 1.25 0 00-.9-.33 2.24 2.24 0 00-.35 0 1.4 1.4 0 00-.25 0 .32.32 0 00-.08.13.31.31 0 000 .19zM309 25.33c17.36.19 32.14 1.78 54.8 9.11 1 .32 1.07-.16.31-.53-23.41-8.56-35.84-11.27-55.11-11.15-19.33-.12-31.75 2.59-55.1 11.15-.77.37-.72.85.3.53 22.62-7.33 37.39-8.92 54.8-9.11zM360.59 83c-.11.74-.34 1.81-.69 3.26a13.35 13.35 0 01-.59 2 9.12 9.12 0 01-2.4.65 33.81 33.81 0 01-4.39.2c-2.88 0-5.48-.08-7.79-.26-.08-1.55-.12-3.81-.12-6.8 0-3.16 0-5.56.12-7.17 2-.08 3.5-.12 4.58-.12a31.73 31.73 0 015.34.29 1.51 1.51 0 011.05.61 5.19 5.19 0 01.33 2.22l.07 1.64h1.69l-.11-5.63.11-5v-.46h-1.45l-.14 1.7a6.69 6.69 0 01-.38 2 1.6 1.6 0 01-1 .38 38 38 0 01-4.9.26c-1.58 0-3.31 0-5.19-.14l.09-8.16c0-1.56.08-3.24.14-5 .59-.05 1.54-.1 2.88-.16s2.2-.1 2.58-.1a44.8 44.8 0 015.42.33 10.8 10.8 0 012.91.75 27 27 0 01.33 4.5h1.51c.26-3.21.4-4.88.44-5a15.59 15.59 0 01.53-2.37A34.12 34.12 0 00357 57c-1.58 0-4.11 0-7.61.07l-7.28.13-6.75-.12c-1.36 0-3 .06-4.68.06s-3.52 0-5.24-.09v1.51a8.92 8.92 0 013 .38.91.91 0 01.46.45 11 11 0 01.28 2.48c.11 2.13.16 4 .16 5.56V85.1c-.55-.6-1.25-1.44-2.07-2.51-1.29-1.6-3-3.81-5.12-6.61l-6.63-8.79L311 61l-2.76-4c-1.05.07-2.11.09-3.18.09h-4.99c-1.24 0-2.84.09-4.8.13q-6 .14-7.61.14c-1 0-3 0-6.08-.09q-5.64-.14-8.27-.24.21 2.22.24 8H275l.26-2.44a8.51 8.51 0 01.49-2.63 1.11 1.11 0 01.74-.33 42.33 42.33 0 015-.24h3.6l.15 4.09v16.33q-.11 6.36-.1 6.86a5.74 5.74 0 01-.34 2.33 1.45 1.45 0 01-.85.56 16.85 16.85 0 01-3.5.26v1.55c4.4-.14 6.91-.2 7.54-.2 1.44 0 3.61.06 6.49.2v-1.53a16.35 16.35 0 01-3.48-.26 1.55 1.55 0 01-.91-.63 8.33 8.33 0 01-.34-2.72c-.05-2.09-.06-4.22-.06-6.42V65.69a61.91 61.91 0 01.23-6.27h2.94c.81 0 1.9 0 3.28.14s2.19.14 2.42.18a.89.89 0 01.4.21.68.68 0 01.2.4c0 .19.14 1 .27 2.39l.2 2.32h1.54c.05-3 .17-5.14.26-6.45a8.1 8.1 0 011.3.12 1.73 1.73 0 01.92.49 3.64 3.64 0 01.79 1 3.62 3.62 0 01.09 1V81c0 1.55 0 3.39-.14 5.51a9.82 9.82 0 01-.3 2.54.9.9 0 01-.44.46 8.06 8.06 0 01-3 .38v1.53c2-.12 3.82-.17 5.53-.17 1.55 0 3 0 4.26.17v-1.56a8.24 8.24 0 01-3-.36.94.94 0 01-.46-.48 9.82 9.82 0 01-.29-2.47q-.15-3.21-.15-5.58V62.45l15.58 20.46 2.84 3.94q.85 1.16 2.68 3.43a9.59 9.59 0 00.83 1 .87.87 0 00.24.15l.53.11 2.27.72q-.12-9.63-.11-13.16V67.45c0-1.52 0-3.36.13-5.48a9.7 9.7 0 01.3-2.55.86.86 0 01.44-.46 8.34 8.34 0 013-.35 18.8 18.8 0 013.5.25 1.67 1.67 0 01.9.64 7.56 7.56 0 01.34 2.71q.08 3.15.08 6.41V81c0 1.55-.05 3.39-.15 5.51a8.9 8.9 0 01-.33 2.54 1 1 0 01-.49.46 9.6 9.6 0 01-3.33.38v1.53c4-.14 6.11-.2 6.33-.2l14.4.2a34.32 34.32 0 005.06-.32 63.84 63.84 0 01.64-8.1zm3.76-24.39v-1.54l2.88.07 4.64.12c.93 0 2.35 0 4.28-.1 2.51-.09 4-.14 4.37-.14a20.25 20.25 0 016.72.81 6.52 6.52 0 013.27 2.68 7.36 7.36 0 011.17 4 8.27 8.27 0 01-1.1 4 9.06 9.06 0 01-3.14 3.32 16.32 16.32 0 01-5.37 2.17c.39.56 1.35 1.82 2.84 3.76l6.09 8a47.12 47.12 0 003 3.75 1.75 1.75 0 00.44.24 6.44 6.44 0 001.6.12v1.55c-1.24-.1-2.3-.15-3.22-.15s-2.12.05-3.5.15c-1.05-1.22-2.8-3.57-5.26-7.08-1.37-2-2.58-3.57-3.63-4.88-1.69-2.16-3.3-4.11-4.84-5.87l.25-.72c.84 0 1.48.07 1.91.07 2.93 0 5.15-.69 6.66-2.09a7 7 0 002.28-5.47 6.06 6.06 0 00-2-4.72q-2-1.76-5.92-1.75a16.07 16.07 0 00-4.87.74c-.08.87-.13 1.69-.15 2.44 0 .23-.07 2.57-.17 7v10.72c0 2.2 0 4.33.1 6.42a7.73 7.73 0 00.32 2.72 1.55 1.55 0 00.91.63 16.51 16.51 0 003.48.26v1.55c-2.29-.14-4.39-.2-6.3-.2-1.55 0-4.15.06-7.82.2v-1.55a16.72 16.72 0 003.49-.26 1.6 1.6 0 00.88-.56 6.27 6.27 0 00.36-2.35q0-.49.1-6.86V68.62c0-2.17 0-4.31-.08-6.41a8 8 0 00-.35-2.71 1.63 1.63 0 00-.9-.64 18.61 18.61 0 00-3.42-.25zM309 38.35c22.85-.43 53.91 2.74 79 14.31.86.45 1.06-.19.3-.53-26.44-12.85-59.95-17-79.26-16.49-19.32-.53-52.82 3.64-79.25 16.49-.77.34-.56 1 .29.53C255 41.09 286.1 37.92 309 38.35z" transform="translate(-10.06 -22.76)"/><path class="cls-2" d="M309 32.07c17.21 0 46 1.77 68.26 11.68.9.5 1.15-.13.3-.53-22.7-10.61-49.25-14.09-68.56-13.91-19.33-.18-45.95 3.3-68.61 13.91-.85.4-.59 1 .31.53C263 33.84 291.75 32 309 32.07zm106.26 33.17c0-1.88 0-3.17-.47-3.95-1.35-2.07-4.85-2.87-7.18-2.87-4 0-7.49 2.82-7.49 7.07 0 10.71 19.65 1.82 19.65 14.21 0 8.44-7.55 12.49-14.91 12.49a21.71 21.71 0 01-8.44-1.88c.19-1.87.29-4.24.34-6.17v-1.38h1.67v2.32a3.47 3.47 0 00.7 2.57c2 1.72 5.13 2.26 7.66 2.26 4.43 0 8.77-2.61 8.77-7.5 0-11.94-19.53-.79-19.53-15.15 0-6.76 5.72-11.06 12.08-11.06 3.36 0 6.46 1.09 9.58 2.28a21.32 21.32 0 00-.4 2.37c-.1 1.47-.29 2.91-.34 4.39zM208.8 112.42c0 1.31 0 1.43 1.58 1.51v.51c-.79 0-1.58-.09-2.39-.09s-1.61 0-2.36.09v-.51c1.6-.08 1.58-.2 1.58-1.51v-3.87h-6.68v3.87c0 1.31 0 1.43 1.59 1.51v.51c-.8 0-1.59-.09-2.41-.09s-1.6 0-2.35.09v-.51c1.6-.08 1.59-.2 1.59-1.51v-7.65c0-1.31 0-1.42-1.59-1.51v-.49c.75 0 1.54.07 2.35.07s1.61 0 2.41-.07v.49c-1.6.09-1.59.2-1.59 1.51v3.09h6.68v-3.09c0-1.31 0-1.42-1.58-1.51v-.49c.75 0 1.52.07 2.36.07s1.6 0 2.39-.07v.49c-1.6.09-1.58.2-1.58 1.51zm17.2-.27a8.56 8.56 0 00.08 1.43 17.68 17.68 0 002.27.09 9.33 9.33 0 002.69-.29 4.3 4.3 0 00.19-.84l.16-.93h.55a6.75 6.75 0 00-.16 1.35v1.39c-.63.09-1.75.06-2.78.09s-2-.09-3-.09-2 0-3 .09v-.51a1.31 1.31 0 001.43-1.51v-7.65c0-1.31 0-1.42-1.59-1.51v-.49c1 0 2 .07 3.06.07s2.06 0 3-.07 2.21 0 2.78.07a5.87 5.87 0 00-.28 1.62v1h-.52a8.42 8.42 0 00-.23-1.63 8 8 0 00-2.49-.29 14.53 14.53 0 00-2.07.09A7.88 7.88 0 00226 105v3.12c3.64 0 3.87.23 3.89-1.4h.54v3.85h-.54c0-1.88-.12-1.78-3.89-1.65zm28.91.02a4.27 4.27 0 00.85 1.48 1.56 1.56 0 00.93.28v.51c-.74 0-1.48-.09-2.22-.09s-1.49 0-2.23.09v-.51a2.87 2.87 0 001.25-.23c.24-.12.26-.39.13-.68l-1-2.45h-4.74a21 21 0 00-1.12 2.81c0 .55.82.47 1.42.55v.51c-.63 0-1.26-.09-1.92-.09s-1.28 0-1.92.09v-.51c.94-.19 1.06 0 1.45-.89l.82-1.73 2.25-5c.54-1.18 1.09-2.4 1.52-3.61h.55zm-2.62-2.32l-2.08-5-2.09 5zm19.88 3.15l.06.62a19.66 19.66 0 002.35.09 9.33 9.33 0 002.69-.29 3.78 3.78 0 00.18-.54l.37-1.4h.53c0 .23-.1.67-.16 1.12l-.18 1.75c-.54.09-1.61.06-2.59.09s-1.88-.09-2.86-.09-1.9 0-2.87.09v-.51c.79-.13.9-.62.9-2v-7.21c0-1.31 0-1.42-1.58-1.51v-.49c.75 0 1.53.07 2.35.07s1.6 0 2.41-.07v.49c-1.61.09-1.6.2-1.6 1.51zm21.2-7.72a16.55 16.55 0 00-.07-1.66l-2.57.08c-.35 0-.55.07-.58.5a9.83 9.83 0 00-.19 1.28h-.49v-.92c0-.6 0-1.19-.07-1.79 1.57 0 3.17.07 4.8.07s3.2 0 4.82-.07c0 .6-.06 1.19-.08 1.79v.92h-.5a12 12 0 00-.18-1.28c0-.43-.23-.49-.59-.5l-2.6-.08c0 .5 0 1-.07 1.66v7.14c0 1.31 0 1.43 1.59 1.51v.51c-.79 0-1.59-.09-2.41-.09s-1.59 0-2.35.09v-.51c1.6-.08 1.59-.2 1.59-1.51zm29.32 7.14c0 1.31 0 1.43 1.58 1.51v.51c-.79 0-1.58-.09-2.4-.09s-1.6 0-2.35.09v-.51c1.6-.08 1.58-.2 1.58-1.51v-3.87h-6.68v3.87c0 1.31 0 1.43 1.58 1.51v.51c-.79 0-1.58-.09-2.4-.09s-1.6 0-2.35.09v-.51c1.6-.08 1.59-.2 1.59-1.51v-7.65c0-1.31 0-1.42-1.59-1.51v-.49c.75 0 1.54.07 2.35.07s1.61 0 2.4-.07v.49c-1.59.09-1.58.2-1.58 1.51v3.09h6.68v-3.09c0-1.31 0-1.42-1.58-1.51v-.49c.75 0 1.53.07 2.35.07s1.61 0 2.4-.07v.49c-1.6.09-1.58.2-1.58 1.51zm24.44 1.28a8.76 8.76 0 01-3.77 1c-3.68 0-6.76-2.18-6.76-6.14s3.12-6 6.42-6a16.07 16.07 0 014.35.75c-.18.84-.27 1.67-.37 2.51h-.5c0-1.08.23-1.46-.75-1.93a5.63 5.63 0 00-2.7-.63c-2.75 0-4.65 2-4.65 5a5.28 5.28 0 005.53 5.64 6.19 6.19 0 003.39-1l.14.17zm23.3-1.53a4.3 4.3 0 00.86 1.48 1.55 1.55 0 00.92.28v.51c-.74 0-1.47-.09-2.21-.09s-1.5 0-2.23.09v-.51a3 3 0 001.26-.23c.23-.12.25-.39.1-.68l-1-2.45h-4.75a21.14 21.14 0 00-1.13 2.81c0 .55.83.47 1.43.55v.51c-.64 0-1.27-.09-1.93-.09s-1.28 0-1.92.09v-.51c.95-.19 1.06 0 1.45-.89l.83-1.73 2.24-5c.54-1.18 1.1-2.4 1.53-3.61h.53zm-2.62-2.32l-2.08-5-2.1 5zm18.31-5.08c0-1.31 0-1.42-1.59-1.51v-.49c.93 0 1.9.07 2.89.07s2 0 2.92-.07c2.31-.12 3.38 1.13 3.38 2.53 0 1.82-1.64 2.9-3.25 3.22l3.78 5a1.41 1.41 0 00.95.46v.51a7.2 7.2 0 00-2.27 0c-.26-.36-.44-.66-.68-.94l-4-5.11.08-.26a6.43 6.43 0 001.52 0 2.48 2.48 0 002.17-2.34 2.27 2.27 0 00-2.57-2.35 6.13 6.13 0 00-1.67.23 3.63 3.63 0 00-.1 1.15v7.65c0 1.31 0 1.43 1.59 1.51v.51c-.81 0-1.59-.09-2.4-.09s-1.61 0-2.36.09v-.51c1.6-.08 1.59-.2 1.59-1.51zm24.26 7.38a8.56 8.56 0 00.08 1.43 17.84 17.84 0 002.28.09 9.34 9.34 0 002.68-.29 3.69 3.69 0 00.2-.84l.16-.93h.54a6.75 6.75 0 00-.16 1.35v1.39c-.62.09-1.75.06-2.78.09s-2-.09-3-.09-2 0-3 .09v-.51a1.31 1.31 0 001.44-1.51v-7.65c0-1.31 0-1.42-1.6-1.51v-.49c1 0 2 .07 3.06.07s2.05 0 3.06-.07 2.2 0 2.77.07a5.84 5.84 0 00-.27 1.62v1h-.53a7.71 7.71 0 00-.23-1.63 8 8 0 00-2.49-.29 14.67 14.67 0 00-2.07.09 7.88 7.88 0 00-.08 1.38v3.12c3.65 0 3.87.23 3.88-1.4h.56v3.85h-.56c0-1.88-.11-1.78-3.88-1.65zM273.39 89.72a1.42 1.42 0 01-.43-.24 44.7 44.7 0 01-3-3.75l-6.09-8c-1.5-1.94-2.45-3.2-2.85-3.76a16.23 16.23 0 005.37-2.07 9 9 0 003.16-3.32 8.46 8.46 0 001.08-4 7.35 7.35 0 00-1.16-4 6.52 6.52 0 00-3.27-2.68 20.36 20.36 0 00-6.73-.81c-.4 0-1.86 0-4.37.14-1.93.06-3.35.1-4.28.1l-4.63-.12-2.88-.07v1.54a18.56 18.56 0 013.49.25 1.63 1.63 0 01.9.64 7.56 7.56 0 01.34 2.71q.08 3.15.08 6.41v11.12q-.08 6.36-.09 6.86a6 6 0 01-.37 2.35 2.07 2.07 0 01-.86.56 2.4 2.4 0 01-.61.14 2.63 2.63 0 01-1.14-.26 2.69 2.69 0 01-1-1.11c-.56-1-1.67-3.47-3.34-7.4l-10.36-24.22h-1.56c-2.16 5.16-3.58 8.51-4.23 10l-6 13.62q-2.7 5.9-3.14 6.79a8.15 8.15 0 01-1.14 1.94 2.14 2.14 0 01-.87.5 11.23 11.23 0 01-2.38.16v1.65c1.85-.15 3.56-.22 5.12-.22 1.34 0 3.39.07 6.11.22v-1.65a16.34 16.34 0 01-3.14-.22 1.32 1.32 0 01-.82-.43.79.79 0 01-.19-.56 7.06 7.06 0 01.69-2.43l2.64-6.21h14l3 7.39a3.81 3.81 0 01.34 1.37.89.89 0 01-.2.58 1.5 1.5 0 01-.79.34 24.3 24.3 0 01-3.28.17v1.65h23v-1.55a16.59 16.59 0 01-3.48-.26A1.5 1.5 0 01253 89a7.63 7.63 0 01-.33-2.72c-.07-2.09-.1-4.22-.1-6.42V69.09c.1-4.46.15-6.8.17-7 0-.75.08-1.57.14-2.44a16.28 16.28 0 014.88-.74q4 0 5.92 1.75a6 6 0 011.95 4.72 7 7 0 01-2.26 5.47c-1.51 1.4-3.74 2.09-6.67 2.09-.43 0-1.07 0-1.91-.07l-.25.72c1.55 1.76 3.15 3.71 4.84 5.87 1.05 1.31 2.26 2.93 3.63 4.88 2.46 3.51 4.21 5.86 5.26 7.08 1.38-.1 2.56-.15 3.5-.15s2 .05 3.21.15v-1.58a6.4 6.4 0 01-1.59-.12zm-51.17-11.88l6.16-14.56 6 14.56zm-10.66-21.2c-2.87.14-5.72.24-8.64.24s-5.82-.1-8.68-.24v1.48c4.74.24 4.68.59 4.68 4.44v22.91c0 3.85 0 4.21-4.68 4.45v1.47c2.21-.15 4.53-.25 6.95-.25s4.74.1 7.11.25v-1.47c-4.68-.24-4.69-.59-4.69-4.31V62.56a10.93 10.93 0 01.29-3.4 26.08 26.08 0 014.89-.7c4.93 0 8 2.37 8 7.5a6.83 6.83 0 01-7.16 7.11 16.41 16.41 0 01-3.16-.44l.55 1.82a11.1 11.1 0 003.21.3c6.16-.25 11.49-4.3 11.49-10.47.05-5.57-5.37-7.64-10.16-7.64z" transform="translate(-10.06 -22.76)"/></svg>