<svg id="Layer_1" data-name="Layer 1" xmlns="http://www.w3.org/2000/svg" viewBox="0 0 225.1 117.07"><defs><style>.cls-1{fill:#676868}</style></defs><path class="cls-1" d="M24.39 94.59H5.66v6.76h17.13q3.75 0 5.12 1.28t1.37 4.88v3.12q0 3.61-1.34 4.88t-5.15 1.28H6.55q-3.82 0-5.18-1.28T0 110.63V109h4.61v3.88h20.15v-7.33H7.56q-3.78 0-5.14-1.28t-1.34-4.9V96.9q0-3.57 1.35-4.88t5.14-1.31h14.85q3.72 0 5.14 1.26T29 96.42V98h-4.61v-3.41zm20.61.96c0 .38 0 .9.06 1.56 0 1.08.06 1.77.06 2.08v17.6H41V90.72h4.15l13.25 16.9 12.21-16.9h4.67v26.07h-4.67v-17.6c0-.64 0-1.26.08-1.86s.13-1.18.23-1.74a20.78 20.78 0 0 1-.92 2.17 7.26 7.26 0 0 1-.86 1.43l-10.25 13.48h-1.32L46.93 99.31a10.22 10.22 0 0 1-1-1.62 14.19 14.19 0 0 1-.93-2.14m89.78 21.52V91h21.46a6.29 6.29 0 0 1 4.29 1.19 5 5 0 0 1 1.31 3.86v5.82a4.89 4.89 0 0 1-1.31 3.81 6.35 6.35 0 0 1-4.29 1.17h-3.54l11.78 10.21h-6.74l-10.64-10.21h-7.29v10.21h-5zM154 94.82h-14.18v8.41H154a3.47 3.47 0 0 0 2.28-.54 2.87 2.87 0 0 0 .58-2.1v-3.13a2.79 2.79 0 0 0-.62-2 3.21 3.21 0 0 0-2.24-.6m33.49.02v22.19h-5.01V94.88h-12.61V91h30.29v3.88h-12.67z"/><path fill="#64aed0" d="M125.46 117.01h-9.57l-11.21-18.59-11.54 18.59h-9.32l20.84-34.18 20.8 34.18z"/><path fill="#722772" d="M83.91 0h9.51l11.14 18.47L116.03 0h9.25l-20.7 33.96L83.91 0z"/><path fill="#e24a31" d="M60.61 35.72l4.76-7.56h22.39L76.67 9.49l4.63-7.62 20.59 33.85H60.61z"/><path fill="#89bf44" d="M148.72 38.78l-4.75 7.55h-22.4l11.09 18.83-4.63 7.62-20.59-34h41.28z"/><path fill="#e77d26" d="M128 1.73l4.76 7.82-11.26 18.61h22.56l4.63 7.56H107.4L128 1.73z"/><path fill="#f1b42a" d="M81.28 72.77l-4.75-7.83 11.25-18.61H65.23l-4.63-7.55h41.29L81.28 72.77z"/><path class="cls-1" d="M206.57 89.73a9 9 0 0 1 2.09-2.88 9.8 9.8 0 0 1 3.08-1.91 10.34 10.34 0 0 1 7.45 0 9.69 9.69 0 0 1 3.05 1.91 9.16 9.16 0 0 1 2.08 2.88 8.39 8.39 0 0 1 .77 3.59 8.59 8.59 0 0 1-.77 3.64 9.27 9.27 0 0 1-2.08 2.9 9.39 9.39 0 0 1-3.05 1.91 10.49 10.49 0 0 1-7.45 0 9.5 9.5 0 0 1-3.08-1.91 9.15 9.15 0 0 1-2.09-2.9 8.59 8.59 0 0 1-.77-3.64 8.4 8.4 0 0 1 .77-3.59m1.58 6.7a7.54 7.54 0 0 0 1.67 2.48 7.76 7.76 0 0 0 2.51 1.65 8.14 8.14 0 0 0 3.14.6 8 8 0 0 0 3.11-.6 7.8 7.8 0 0 0 2.5-1.65 7.56 7.56 0 0 0 1.67-2.48 7.91 7.91 0 0 0 .6-3.11 7.69 7.69 0 0 0-.6-3 7.48 7.48 0 0 0-1.67-2.45 7.91 7.91 0 0 0-2.5-1.63 8 8 0 0 0-3.11-.6 8.19 8.19 0 0 0-3.14.6 7.87 7.87 0 0 0-2.51 1.63 7.47 7.47 0 0 0-1.67 2.45 7.69 7.69 0 0 0-.6 3 7.91 7.91 0 0 0 .6 3.11m7.92-8.4a4.78 4.78 0 0 1 3 .76 2.74 2.74 0 0 1 1 2.29 2.53 2.53 0 0 1-.85 2.11A3.92 3.92 0 0 1 217 94l3.21 4.71h-1.87l-3.05-4.58h-1.85v4.58h-1.75V88h4.34zm-.77 4.73h1.12a3 3 0 0 0 .94-.21A1.45 1.45 0 0 0 218 92a1.72 1.72 0 0 0 .24-1 1.48 1.48 0 0 0-.22-.85 1.45 1.45 0 0 0-.56-.49 2.59 2.59 0 0 0-.79-.23 6.38 6.38 0 0 0-.89-.06h-2.31v3.39h1.82z"/></svg>